<?xml version="1.0" encoding="UTF-8" standalone="no"?><svg xmlns="http://www.w3.org/2000/svg" xmlns:xlink="http://www.w3.org/1999/xlink" clip-rule="evenodd" stroke-miterlimit="10" viewBox="0 0 1024 768"><desc>SVG generated by Keynote</desc><defs></defs><g transform="matrix(1.00, 0.00, -0.00, -1.00, 0.0, 768.0)"><g><clipPath id="clip0x6080012b2780"><path d="M 0.0 768.0 L 1024.0 768.0 L 1024.0 0.0 L 0.0 0.0 Z M 0.0 768.0 "></path></clipPath><g clip-path="url(#clip0x6080012b2780)"><image xlink:href="../../45DA958D-0BF7-418D-8F04-7EBED7B3F604/assets/7DDA4CC5426700CA34754E241DBFD959.jpeg" width="2048.00" height="1536.00" transform="matrix(0.50, 0.00, -0.00, -0.50, 0.0, 768.0)"></image></g></g><text xml:space="preserve" font-family="AmericanTypewriter,American Typewriter" font-size="70.0" fill="#6E5F3B" transform="matrix(1.00, 0.00, -0.00, -1.00, 143.3, 632.5)">S</text><text xml:space="preserve" font-family="AmericanTypewriter,American Typewriter" font-size="70.0" fill="#6E5F3B" transform="matrix(1.00, 0.00, -0.00, -1.00, 186.5, 632.5)">t</text><text xml:space="preserve" font-family="AmericanTypewriter,American Typewriter" font-size="70.0" fill="#6E5F3B" transform="matrix(1.00, 0.00, -0.00, -1.00, 215.2, 632.5)">i</text><text xml:space="preserve" font-family="AmericanTypewriter,American Typewriter" font-size="70.0" fill="#6E5F3B" transform="matrix(1.00, 0.00, -0.00, -1.00, 237.6, 632.5)">l</text><text xml:space="preserve" font-family="AmericanTypewriter,American Typewriter" font-size="70.0" fill="#6E5F3B" transform="matrix(1.00, 0.00, -0.00, -1.00, 259.9, 632.5)">l</text><text xml:space="preserve" font-family="AmericanTypewriter,American Typewriter" font-size="70.0" fill="#6E5F3B" transform="matrix(1.00, 0.00, -0.00, -1.00, 282.2, 632.5)"> </text><text xml:space="preserve" font-family="AmericanTypewriter,American Typewriter" font-size="70.0" fill="#6E5F3B" transform="matrix(1.00, 0.00, -0.00, -1.00, 300.4, 632.5)">w</text><text xml:space="preserve" font-family="AmericanTypewriter,American Typewriter" font-size="70.0" fill="#6E5F3B" transform="matrix(1.00, 0.00, -0.00, -1.00, 357.2, 632.5)">o</text><text xml:space="preserve" font-family="AmericanTypewriter,American Typewriter" font-size="70.0" fill="#6E5F3B" transform="matrix(1.00, 0.00, -0.00, -1.00, 396.1, 632.5)">r</text><text xml:space="preserve" font-family="AmericanTypewriter,American Typewriter" font-size="70.0" fill="#6E5F3B" transform="matrix(1.00, 0.00, -0.00, -1.00, 431.2, 632.5)">k</text><text xml:space="preserve" font-family="AmericanTypewriter,American Typewriter" font-size="70.0" fill="#6E5F3B" transform="matrix(1.00, 0.00, -0.00, -1.00, 475.2, 632.5)">i</text><text xml:space="preserve" font-family="AmericanTypewriter,American Typewriter" font-size="70.0" fill="#6E5F3B" transform="matrix(1.00, 0.00, -0.00, -1.00, 497.6, 632.5)">n</text><text xml:space="preserve" font-family="AmericanTypewriter,American Typewriter" font-size="70.0" fill="#6E5F3B" transform="matrix(1.00, 0.00, -0.00, -1.00, 542.9, 632.5)">g</text><text xml:space="preserve" font-family="AmericanTypewriter,American Typewriter" font-size="70.0" fill="#6E5F3B" transform="matrix(1.00, 0.00, -0.00, -1.00, 581.8, 632.5)"> </text><text xml:space="preserve" font-family="AmericanTypewriter,American Typewriter" font-size="70.0" fill="#6E5F3B" transform="matrix(1.00, 0.00, -0.00, -1.00, 600.0, 632.5)">t</text><text xml:space="preserve" font-family="AmericanTypewriter,American Typewriter" font-size="70.0" fill="#6E5F3B" transform="matrix(1.00, 0.00, -0.00, -1.00, 628.7, 632.5)">h</text><text xml:space="preserve" font-family="AmericanTypewriter,American Typewriter" font-size="70.0" fill="#6E5F3B" transform="matrix(1.00, 0.00, -0.00, -1.00, 674.0, 632.5)">a</text><text xml:space="preserve" font-family="AmericanTypewriter,American Typewriter" font-size="70.0" fill="#6E5F3B" transform="matrix(1.00, 0.00, -0.00, -1.00, 714.2, 632.5)">t</text><text xml:space="preserve" font-family="AmericanTypewriter,American Typewriter" font-size="70.0" fill="#6E5F3B" transform="matrix(1.00, 0.00, -0.00, -1.00, 742.9, 632.5)"> </text><text xml:space="preserve" font-family="AmericanTypewriter,American Typewriter" font-size="70.0" fill="#6E5F3B" transform="matrix(1.00, 0.00, -0.00, -1.00, 761.1, 632.5)">o</text><text xml:space="preserve" font-family="AmericanTypewriter,American Typewriter" font-size="70.0" fill="#6E5F3B" transform="matrix(1.00, 0.00, -0.00, -1.00, 800.0, 632.5)">u</text><text xml:space="preserve" font-family="AmericanTypewriter,American Typewriter" font-size="70.0" fill="#6E5F3B" transform="matrix(1.00, 0.00, -0.00, -1.00, 844.1, 632.5)">t</text><text xml:space="preserve" font-family="AmericanTypewriter,American Typewriter" font-size="70.0" fill="#6E5F3B" transform="matrix(1.00, 0.00, -0.00, -1.00, 872.8, 632.5)">…</text><image xlink:href="../../EE0F35A8-E4D9-4F08-82A2-4E5256DEE888/assets/06324A8B8BF56E44D648BF26EFF2583E.png" width="84.00" height="90.00" transform="matrix(0.19, 0.00, -0.00, -0.19, 129.0, 527.6)"></image><text xml:space="preserve" font-family="Palatino-Roman,Palatino" font-size="34.6" fill="#93741B" transform="matrix(1.00, 0.00, -0.00, -1.00, 162.6, 509.6)">S</text><text xml:space="preserve" font-family="Palatino-Roman,Palatino" font-size="34.6" fill="#93741B" transform="matrix(1.00, 0.00, -0.00, -1.00, 180.7, 509.6)">o</text><text xml:space="preserve" font-family="Palatino-Roman,Palatino" font-size="34.6" fill="#93741B" transform="matrix(1.00, 0.00, -0.00, -1.00, 199.6, 509.6)">m</text><text xml:space="preserve" font-family="Palatino-Roman,Palatino" font-size="34.6" fill="#93741B" transform="matrix(1.00, 0.00, -0.00, -1.00, 230.1, 509.6)">e</text><text xml:space="preserve" font-family="Palatino-Roman,Palatino" font-size="34.6" fill="#93741B" transform="matrix(1.00, 0.00, -0.00, -1.00, 246.7, 509.6)"> </text><text xml:space="preserve" font-family="Palatino-Roman,Palatino" font-size="34.6" fill="#93741B" transform="matrix(1.00, 0.00, -0.00, -1.00, 255.3, 509.6)">r</text><text xml:space="preserve" font-family="Palatino-Roman,Palatino" font-size="34.6" fill="#93741B" transform="matrix(1.00, 0.00, -0.00, -1.00, 268.3, 509.6)">e</text><text xml:space="preserve" font-family="Palatino-Roman,Palatino" font-size="34.6" fill="#93741B" transform="matrix(1.00, 0.00, -0.00, -1.00, 284.9, 509.6)">s</text><text xml:space="preserve" font-family="Palatino-Roman,Palatino" font-size="34.6" fill="#93741B" transform="matrix(1.00, 0.00, -0.00, -1.00, 299.5, 509.6)">e</text><text xml:space="preserve" font-family="Palatino-Roman,Palatino" font-size="34.6" fill="#93741B" transform="matrix(1.00, 0.00, -0.00, -1.00, 316.1, 509.6)">a</text><text xml:space="preserve" font-family="Palatino-Roman,Palatino" font-size="34.6" fill="#93741B" transform="matrix(1.00, 0.00, -0.00, -1.00, 333.4, 509.6)">r</text><text xml:space="preserve" font-family="Palatino-Roman,Palatino" font-size="34.6" fill="#93741B" transform="matrix(1.00, 0.00, -0.00, -1.00, 346.4, 509.6)">c</text><text xml:space="preserve" font-family="Palatino-Roman,Palatino" font-size="34.6" fill="#93741B" transform="matrix(1.00, 0.00, -0.00, -1.00, 361.7, 509.6)">h</text><text xml:space="preserve" font-family="Palatino-Roman,Palatino" font-size="34.6" fill="#93741B" transform="matrix(1.00, 0.00, -0.00, -1.00, 381.9, 509.6)"> </text><text xml:space="preserve" font-family="Palatino-Roman,Palatino" font-size="34.6" fill="#93741B" transform="matrix(1.00, 0.00, -0.00, -1.00, 390.5, 509.6)">f</text><text xml:space="preserve" font-family="Palatino-Roman,Palatino" font-size="34.6" fill="#93741B" transform="matrix(1.00, 0.00, -0.00, -1.00, 402.0, 509.6)">u</text><text xml:space="preserve" font-family="Palatino-Roman,Palatino" font-size="34.6" fill="#93741B" transform="matrix(1.00, 0.00, -0.00, -1.00, 422.9, 509.6)">n</text><text xml:space="preserve" font-family="Palatino-Roman,Palatino" font-size="34.6" fill="#93741B" transform="matrix(1.00, 0.00, -0.00, -1.00, 443.0, 509.6)">d</text><text xml:space="preserve" font-family="Palatino-Roman,Palatino" font-size="34.6" fill="#93741B" transform="matrix(1.00, 0.00, -0.00, -1.00, 464.1, 509.6)">i</text><text xml:space="preserve" font-family="Palatino-Roman,Palatino" font-size="34.6" fill="#93741B" transform="matrix(1.00, 0.00, -0.00, -1.00, 474.1, 509.6)">n</text><text xml:space="preserve" font-family="Palatino-Roman,Palatino" font-size="34.6" fill="#93741B" transform="matrix(1.00, 0.00, -0.00, -1.00, 494.2, 509.6)">g</text><text xml:space="preserve" font-family="Palatino-Roman,Palatino" font-size="34.6" fill="#93741B" transform="matrix(1.00, 0.00, -0.00, -1.00, 513.5, 509.6)"> </text><text xml:space="preserve" font-family="Palatino-Roman,Palatino" font-size="34.6" fill="#93741B" transform="matrix(1.00, 0.00, -0.00, -1.00, 522.1, 509.6)">a</text><text xml:space="preserve" font-family="Palatino-Roman,Palatino" font-size="34.6" fill="#93741B" transform="matrix(1.00, 0.00, -0.00, -1.00, 539.4, 509.6)">g</text><text xml:space="preserve" font-family="Palatino-Roman,Palatino" font-size="34.6" fill="#93741B" transform="matrix(1.00, 0.00, -0.00, -1.00, 558.6, 509.6)">e</text><text xml:space="preserve" font-family="Palatino-Roman,Palatino" font-size="34.6" fill="#93741B" transform="matrix(1.00, 0.00, -0.00, -1.00, 575.2, 509.6)">n</text><text xml:space="preserve" font-family="Palatino-Roman,Palatino" font-size="34.6" fill="#93741B" transform="matrix(1.00, 0.00, -0.00, -1.00, 595.3, 509.6)">c</text><text xml:space="preserve" font-family="Palatino-Roman,Palatino" font-size="34.6" fill="#93741B" transform="matrix(1.00, 0.00, -0.00, -1.00, 610.6, 509.6)">i</text><text xml:space="preserve" font-family="Palatino-Roman,Palatino" font-size="34.6" fill="#93741B" transform="matrix(1.00, 0.00, -0.00, -1.00, 620.7, 509.6)">e</text><text xml:space="preserve" font-family="Palatino-Roman,Palatino" font-size="34.6" fill="#93741B" transform="matrix(1.00, 0.00, -0.00, -1.00, 637.2, 509.6)">s</text><text xml:space="preserve" font-family="Palatino-Roman,Palatino" font-size="34.6" fill="#93741B" transform="matrix(1.00, 0.00, -0.00, -1.00, 651.9, 509.6)"> </text><text xml:space="preserve" font-family="Palatino-Roman,Palatino" font-size="34.6" fill="#93741B" transform="matrix(1.00, 0.00, -0.00, -1.00, 660.5, 509.6)">w</text><text xml:space="preserve" font-family="Palatino-Roman,Palatino" font-size="34.6" fill="#93741B" transform="matrix(1.00, 0.00, -0.00, -1.00, 689.3, 509.6)">i</text><text xml:space="preserve" font-family="Palatino-Roman,Palatino" font-size="34.6" fill="#93741B" transform="matrix(1.00, 0.00, -0.00, -1.00, 699.4, 509.6)">l</text><text xml:space="preserve" font-family="Palatino-Roman,Palatino" font-size="34.6" fill="#93741B" transform="matrix(1.00, 0.00, -0.00, -1.00, 709.4, 509.6)">l</text><text xml:space="preserve" font-family="Palatino-Roman,Palatino" font-size="34.6" fill="#93741B" transform="matrix(1.00, 0.00, -0.00, -1.00, 719.5, 509.6)"> </text><text xml:space="preserve" font-family="Palatino-Roman,Palatino" font-size="34.6" fill="#93741B" transform="matrix(1.00, 0.00, -0.00, -1.00, 728.1, 509.6)">p</text><text xml:space="preserve" font-family="Palatino-Roman,Palatino" font-size="34.6" fill="#93741B" transform="matrix(1.00, 0.00, -0.00, -1.00, 748.9, 509.6)">a</text><text xml:space="preserve" font-family="Palatino-Roman,Palatino" font-size="34.6" fill="#93741B" transform="matrix(1.00, 0.00, -0.00, -1.00, 766.2, 509.6)">y</text><text xml:space="preserve" font-family="Palatino-Roman,Palatino" font-size="34.6" fill="#93741B" transform="matrix(1.00, 0.00, -0.00, -1.00, 785.4, 509.6)"> </text><text xml:space="preserve" font-family="Palatino-Roman,Palatino" font-size="34.6" fill="#93741B" transform="matrix(1.00, 0.00, -0.00, -1.00, 794.1, 509.6)">f</text><text xml:space="preserve" font-family="Palatino-Roman,Palatino" font-size="34.6" fill="#93741B" transform="matrix(1.00, 0.00, -0.00, -1.00, 805.6, 509.6)">o</text><text xml:space="preserve" font-family="Palatino-Roman,Palatino" font-size="34.6" fill="#93741B" transform="matrix(1.00, 0.00, -0.00, -1.00, 824.4, 509.6)">r</text><text xml:space="preserve" font-family="Palatino-Roman,Palatino" font-size="34.6" fill="#93741B" transform="matrix(1.00, 0.00, -0.00, -1.00, 838.1, 509.6)"> </text><text xml:space="preserve" font-family="Palatino-Roman,Palatino" font-size="34.6" fill="#93741B" transform="matrix(1.00, 0.00, -0.00, -1.00, 846.7, 509.6)">b</text><text xml:space="preserve" font-family="Palatino-Roman,Palatino" font-size="34.6" fill="#93741B" transform="matrix(1.00, 0.00, -0.00, -1.00, 865.9, 509.6)">o</text><text xml:space="preserve" font-family="Palatino-Roman,Palatino" font-size="34.6" fill="#93741B" transform="matrix(1.00, 0.00, -0.00, -1.00, 884.7, 509.6)">o</text><text xml:space="preserve" font-family="Palatino-Roman,Palatino" font-size="34.6" fill="#93741B" transform="matrix(1.00, 0.00, -0.00, -1.00, 903.6, 509.6)">k</text><text xml:space="preserve" font-family="Palatino-Roman,Palatino" font-size="34.6" fill="#93741B" transform="matrix(1.00, 0.00, -0.00, -1.00, 922.8, 509.6)"> </text><text xml:space="preserve" font-family="Palatino-Roman,Palatino" font-size="34.6" fill="#93741B" transform="matrix(1.00, 0.00, -0.00, -1.00, 162.6, 463.6)">p</text><text xml:space="preserve" font-family="Palatino-Roman,Palatino" font-size="34.6" fill="#93741B" transform="matrix(1.00, 0.00, -0.00, -1.00, 183.4, 463.6)">u</text><text xml:space="preserve" font-family="Palatino-Roman,Palatino" font-size="34.6" fill="#93741B" transform="matrix(1.00, 0.00, -0.00, -1.00, 204.2, 463.6)">b</text><text xml:space="preserve" font-family="Palatino-Roman,Palatino" font-size="34.6" fill="#93741B" transform="matrix(1.00, 0.00, -0.00, -1.00, 223.3, 463.6)">l</text><text xml:space="preserve" font-family="Palatino-Roman,Palatino" font-size="34.6" fill="#93741B" transform="matrix(1.00, 0.00, -0.00, -1.00, 233.4, 463.6)">i</text><text xml:space="preserve" font-family="Palatino-Roman,Palatino" font-size="34.6" fill="#93741B" transform="matrix(1.00, 0.00, -0.00, -1.00, 243.5, 463.6)">s</text><text xml:space="preserve" font-family="Palatino-Roman,Palatino" font-size="34.6" fill="#93741B" transform="matrix(1.00, 0.00, -0.00, -1.00, 258.1, 463.6)">h</text><text xml:space="preserve" font-family="Palatino-Roman,Palatino" font-size="34.6" fill="#93741B" transform="matrix(1.00, 0.00, -0.00, -1.00, 278.2, 463.6)">i</text><text xml:space="preserve" font-family="Palatino-Roman,Palatino" font-size="34.6" fill="#93741B" transform="matrix(1.00, 0.00, -0.00, -1.00, 288.3, 463.6)">n</text><text xml:space="preserve" font-family="Palatino-Roman,Palatino" font-size="34.6" fill="#93741B" transform="matrix(1.00, 0.00, -0.00, -1.00, 308.4, 463.6)">g</text><text xml:space="preserve" font-family="Palatino-Roman,Palatino" font-size="34.6" fill="#93741B" transform="matrix(1.00, 0.00, -0.00, -1.00, 327.6, 463.6)"> </text><text xml:space="preserve" font-family="Palatino-Roman,Palatino" font-size="34.6" fill="#93741B" transform="matrix(1.00, 0.00, -0.00, -1.00, 336.3, 463.6)">c</text><text xml:space="preserve" font-family="Palatino-Roman,Palatino" font-size="34.6" fill="#93741B" transform="matrix(1.00, 0.00, -0.00, -1.00, 351.6, 463.6)">h</text><text xml:space="preserve" font-family="Palatino-Roman,Palatino" font-size="34.6" fill="#93741B" transform="matrix(1.00, 0.00, -0.00, -1.00, 371.7, 463.6)">a</text><text xml:space="preserve" font-family="Palatino-Roman,Palatino" font-size="34.6" fill="#93741B" transform="matrix(1.00, 0.00, -0.00, -1.00, 389.0, 463.6)">r</text><text xml:space="preserve" font-family="Palatino-Roman,Palatino" font-size="34.6" fill="#93741B" transform="matrix(1.00, 0.00, -0.00, -1.00, 402.0, 463.6)">g</text><text xml:space="preserve" font-family="Palatino-Roman,Palatino" font-size="34.6" fill="#93741B" transform="matrix(1.00, 0.00, -0.00, -1.00, 421.3, 463.6)">e</text><text xml:space="preserve" font-family="Palatino-Roman,Palatino" font-size="34.6" fill="#93741B" transform="matrix(1.00, 0.00, -0.00, -1.00, 437.8, 463.6)">s</text><text xml:space="preserve" font-family="Palatino-Roman,Palatino" font-size="34.6" fill="#93741B" transform="matrix(1.00, 0.00, -0.00, -1.00, 452.4, 463.6)">.</text><image xlink:href="../../EE0F35A8-E4D9-4F08-82A2-4E5256DEE888/assets/06324A8B8BF56E44D648BF26EFF2583E.png" width="84.00" height="90.00" transform="matrix(0.19, 0.00, -0.00, -0.19, 129.0, 401.0)"></image><text xml:space="preserve" font-family="Palatino-Roman,Palatino" font-size="34.6" fill="#93741B" transform="matrix(1.00, 0.00, -0.00, -1.00, 162.6, 383.0)">S</text><text xml:space="preserve" font-family="Palatino-Roman,Palatino" font-size="34.6" fill="#93741B" transform="matrix(1.00, 0.00, -0.00, -1.00, 180.7, 383.0)">o</text><text xml:space="preserve" font-family="Palatino-Roman,Palatino" font-size="34.6" fill="#93741B" transform="matrix(1.00, 0.00, -0.00, -1.00, 199.6, 383.0)">m</text><text xml:space="preserve" font-family="Palatino-Roman,Palatino" font-size="34.6" fill="#93741B" transform="matrix(1.00, 0.00, -0.00, -1.00, 230.1, 383.0)">e</text><text xml:space="preserve" font-family="Palatino-Roman,Palatino" font-size="34.6" fill="#93741B" transform="matrix(1.00, 0.00, -0.00, -1.00, 246.7, 383.0)"> </text><text xml:space="preserve" font-family="Palatino-Roman,Palatino" font-size="34.6" fill="#93741B" transform="matrix(1.00, 0.00, -0.00, -1.00, 255.3, 383.0)">l</text><text xml:space="preserve" font-family="Palatino-Roman,Palatino" font-size="34.6" fill="#93741B" transform="matrix(1.00, 0.00, -0.00, -1.00, 265.4, 383.0)">i</text><text xml:space="preserve" font-family="Palatino-Roman,Palatino" font-size="34.6" fill="#93741B" transform="matrix(1.00, 0.00, -0.00, -1.00, 275.4, 383.0)">b</text><text xml:space="preserve" font-family="Palatino-Roman,Palatino" font-size="34.6" fill="#93741B" transform="matrix(1.00, 0.00, -0.00, -1.00, 294.5, 383.0)">r</text><text xml:space="preserve" font-family="Palatino-Roman,Palatino" font-size="34.6" fill="#93741B" transform="matrix(1.00, 0.00, -0.00, -1.00, 308.2, 383.0)">a</text><text xml:space="preserve" font-family="Palatino-Roman,Palatino" font-size="34.6" fill="#93741B" transform="matrix(1.00, 0.00, -0.00, -1.00, 325.5, 383.0)">r</text><text xml:space="preserve" font-family="Palatino-Roman,Palatino" font-size="34.6" fill="#93741B" transform="matrix(1.00, 0.00, -0.00, -1.00, 339.1, 383.0)">i</text><text xml:space="preserve" font-family="Palatino-Roman,Palatino" font-size="34.6" fill="#93741B" transform="matrix(1.00, 0.00, -0.00, -1.00, 349.2, 383.0)">e</text><text xml:space="preserve" font-family="Palatino-Roman,Palatino" font-size="34.6" fill="#93741B" transform="matrix(1.00, 0.00, -0.00, -1.00, 365.7, 383.0)">s</text><text xml:space="preserve" font-family="Palatino-Roman,Palatino" font-size="34.6" fill="#93741B" transform="matrix(1.00, 0.00, -0.00, -1.00, 380.4, 383.0)"> </text><text xml:space="preserve" font-family="Palatino-Roman,Palatino" font-size="34.6" fill="#93741B" transform="matrix(1.00, 0.00, -0.00, -1.00, 389.0, 383.0)">m</text><text xml:space="preserve" font-family="Palatino-Roman,Palatino" font-size="34.6" fill="#93741B" transform="matrix(1.00, 0.00, -0.00, -1.00, 419.5, 383.0)">a</text><text xml:space="preserve" font-family="Palatino-Roman,Palatino" font-size="34.6" fill="#93741B" transform="matrix(1.00, 0.00, -0.00, -1.00, 436.8, 383.0)">k</text><text xml:space="preserve" font-family="Palatino-Roman,Palatino" font-size="34.6" fill="#93741B" transform="matrix(1.00, 0.00, -0.00, -1.00, 456.0, 383.0)">e</text><text xml:space="preserve" font-family="Palatino-Roman,Palatino" font-size="34.6" fill="#93741B" transform="matrix(1.00, 0.00, -0.00, -1.00, 472.6, 383.0)"> </text><text xml:space="preserve" font-family="Palatino-Roman,Palatino" font-size="34.6" fill="#93741B" transform="matrix(1.00, 0.00, -0.00, -1.00, 481.2, 383.0)">t</text><text xml:space="preserve" font-family="Palatino-Roman,Palatino" font-size="34.6" fill="#93741B" transform="matrix(1.00, 0.00, -0.00, -1.00, 492.5, 383.0)">h</text><text xml:space="preserve" font-family="Palatino-Roman,Palatino" font-size="34.6" fill="#93741B" transform="matrix(1.00, 0.00, -0.00, -1.00, 512.6, 383.0)">e</text><text xml:space="preserve" font-family="Palatino-Roman,Palatino" font-size="34.6" fill="#93741B" transform="matrix(1.00, 0.00, -0.00, -1.00, 529.2, 383.0)">i</text><text xml:space="preserve" font-family="Palatino-Roman,Palatino" font-size="34.6" fill="#93741B" transform="matrix(1.00, 0.00, -0.00, -1.00, 539.2, 383.0)">r</text><text xml:space="preserve" font-family="Palatino-Roman,Palatino" font-size="34.6" fill="#93741B" transform="matrix(1.00, 0.00, -0.00, -1.00, 552.9, 383.0)"> </text><text xml:space="preserve" font-family="Palatino-Roman,Palatino" font-size="34.6" fill="#93741B" transform="matrix(1.00, 0.00, -0.00, -1.00, 561.5, 383.0)">O</text><text xml:space="preserve" font-family="Palatino-Roman,Palatino" font-size="34.6" fill="#93741B" transform="matrix(1.00, 0.00, -0.00, -1.00, 588.7, 383.0)">A</text><text xml:space="preserve" font-family="Palatino-Roman,Palatino" font-size="34.6" fill="#93741B" transform="matrix(1.00, 0.00, -0.00, -1.00, 613.7, 383.0)"> </text><text xml:space="preserve" font-family="Palatino-Roman,Palatino" font-size="34.6" fill="#93741B" transform="matrix(1.00, 0.00, -0.00, -1.00, 622.3, 383.0)">f</text><text xml:space="preserve" font-family="Palatino-Roman,Palatino" font-size="34.6" fill="#93741B" transform="matrix(1.00, 0.00, -0.00, -1.00, 633.8, 383.0)">u</text><text xml:space="preserve" font-family="Palatino-Roman,Palatino" font-size="34.6" fill="#93741B" transform="matrix(1.00, 0.00, -0.00, -1.00, 654.7, 383.0)">n</text><text xml:space="preserve" font-family="Palatino-Roman,Palatino" font-size="34.6" fill="#93741B" transform="matrix(1.00, 0.00, -0.00, -1.00, 674.8, 383.0)">d</text><text xml:space="preserve" font-family="Palatino-Roman,Palatino" font-size="34.6" fill="#93741B" transform="matrix(1.00, 0.00, -0.00, -1.00, 695.9, 383.0)">s</text><text xml:space="preserve" font-family="Palatino-Roman,Palatino" font-size="34.6" fill="#93741B" transform="matrix(1.00, 0.00, -0.00, -1.00, 710.5, 383.0)"> </text><text xml:space="preserve" font-family="Palatino-Roman,Palatino" font-size="34.6" fill="#93741B" transform="matrix(1.00, 0.00, -0.00, -1.00, 719.2, 383.0)">a</text><text xml:space="preserve" font-family="Palatino-Roman,Palatino" font-size="34.6" fill="#93741B" transform="matrix(1.00, 0.00, -0.00, -1.00, 736.4, 383.0)">v</text><text xml:space="preserve" font-family="Palatino-Roman,Palatino" font-size="34.6" fill="#93741B" transform="matrix(1.00, 0.00, -0.00, -1.00, 756.0, 383.0)">a</text><text xml:space="preserve" font-family="Palatino-Roman,Palatino" font-size="34.6" fill="#93741B" transform="matrix(1.00, 0.00, -0.00, -1.00, 773.2, 383.0)">i</text><text xml:space="preserve" font-family="Palatino-Roman,Palatino" font-size="34.6" fill="#93741B" transform="matrix(1.00, 0.00, -0.00, -1.00, 783.3, 383.0)">l</text><text xml:space="preserve" font-family="Palatino-Roman,Palatino" font-size="34.6" fill="#93741B" transform="matrix(1.00, 0.00, -0.00, -1.00, 793.4, 383.0)">a</text><text xml:space="preserve" font-family="Palatino-Roman,Palatino" font-size="34.6" fill="#93741B" transform="matrix(1.00, 0.00, -0.00, -1.00, 810.6, 383.0)">b</text><text xml:space="preserve" font-family="Palatino-Roman,Palatino" font-size="34.6" fill="#93741B" transform="matrix(1.00, 0.00, -0.00, -1.00, 829.8, 383.0)">l</text><text xml:space="preserve" font-family="Palatino-Roman,Palatino" font-size="34.6" fill="#93741B" transform="matrix(1.00, 0.00, -0.00, -1.00, 839.8, 383.0)">e</text><text xml:space="preserve" font-family="Palatino-Roman,Palatino" font-size="34.6" fill="#93741B" transform="matrix(1.00, 0.00, -0.00, -1.00, 856.4, 383.0)"> </text><text xml:space="preserve" font-family="Palatino-Roman,Palatino" font-size="34.6" fill="#93741B" transform="matrix(1.00, 0.00, -0.00, -1.00, 865.0, 383.0)">f</text><text xml:space="preserve" font-family="Palatino-Roman,Palatino" font-size="34.6" fill="#93741B" transform="matrix(1.00, 0.00, -0.00, -1.00, 876.5, 383.0)">o</text><text xml:space="preserve" font-family="Palatino-Roman,Palatino" font-size="34.6" fill="#93741B" transform="matrix(1.00, 0.00, -0.00, -1.00, 895.4, 383.0)">r</text><text xml:space="preserve" font-family="Palatino-Roman,Palatino" font-size="34.6" fill="#93741B" transform="matrix(1.00, 0.00, -0.00, -1.00, 909.0, 383.0)"> </text><text xml:space="preserve" font-family="Palatino-Roman,Palatino" font-size="34.6" fill="#93741B" transform="matrix(1.00, 0.00, -0.00, -1.00, 162.6, 337.0)">b</text><text xml:space="preserve" font-family="Palatino-Roman,Palatino" font-size="34.6" fill="#93741B" transform="matrix(1.00, 0.00, -0.00, -1.00, 181.7, 337.0)">o</text><text xml:space="preserve" font-family="Palatino-Roman,Palatino" font-size="34.6" fill="#93741B" transform="matrix(1.00, 0.00, -0.00, -1.00, 200.6, 337.0)">o</text><text xml:space="preserve" font-family="Palatino-Roman,Palatino" font-size="34.6" fill="#93741B" transform="matrix(1.00, 0.00, -0.00, -1.00, 219.5, 337.0)">k</text><text xml:space="preserve" font-family="Palatino-Roman,Palatino" font-size="34.6" fill="#93741B" transform="matrix(1.00, 0.00, -0.00, -1.00, 238.7, 337.0)">s</text><text xml:space="preserve" font-family="Palatino-Roman,Palatino" font-size="34.6" fill="#93741B" transform="matrix(1.00, 0.00, -0.00, -1.00, 253.3, 337.0)"> </text><text xml:space="preserve" font-family="Palatino-Roman,Palatino" font-size="34.6" fill="#93741B" transform="matrix(1.00, 0.00, -0.00, -1.00, 262.0, 337.0)">a</text><text xml:space="preserve" font-family="Palatino-Roman,Palatino" font-size="34.6" fill="#93741B" transform="matrix(1.00, 0.00, -0.00, -1.00, 279.2, 337.0)">s</text><text xml:space="preserve" font-family="Palatino-Roman,Palatino" font-size="34.6" fill="#93741B" transform="matrix(1.00, 0.00, -0.00, -1.00, 293.9, 337.0)"> </text><text xml:space="preserve" font-family="Palatino-Roman,Palatino" font-size="34.6" fill="#93741B" transform="matrix(1.00, 0.00, -0.00, -1.00, 302.5, 337.0)">w</text><text xml:space="preserve" font-family="Palatino-Roman,Palatino" font-size="34.6" fill="#93741B" transform="matrix(1.00, 0.00, -0.00, -1.00, 331.3, 337.0)">e</text><text xml:space="preserve" font-family="Palatino-Roman,Palatino" font-size="34.6" fill="#93741B" transform="matrix(1.00, 0.00, -0.00, -1.00, 347.9, 337.0)">l</text><text xml:space="preserve" font-family="Palatino-Roman,Palatino" font-size="34.6" fill="#93741B" transform="matrix(1.00, 0.00, -0.00, -1.00, 358.0, 337.0)">l</text><text xml:space="preserve" font-family="Palatino-Roman,Palatino" font-size="34.6" fill="#93741B" transform="matrix(1.00, 0.00, -0.00, -1.00, 368.0, 337.0)"> </text><text xml:space="preserve" font-family="Palatino-Roman,Palatino" font-size="34.6" fill="#93741B" transform="matrix(1.00, 0.00, -0.00, -1.00, 376.7, 337.0)">a</text><text xml:space="preserve" font-family="Palatino-Roman,Palatino" font-size="34.6" fill="#93741B" transform="matrix(1.00, 0.00, -0.00, -1.00, 393.9, 337.0)">s</text><text xml:space="preserve" font-family="Palatino-Roman,Palatino" font-size="34.6" fill="#93741B" transform="matrix(1.00, 0.00, -0.00, -1.00, 408.6, 337.0)"> </text><text xml:space="preserve" font-family="Palatino-Roman,Palatino" font-size="34.6" fill="#93741B" transform="matrix(1.00, 0.00, -0.00, -1.00, 417.2, 337.0)">j</text><text xml:space="preserve" font-family="Palatino-Roman,Palatino" font-size="34.6" fill="#93741B" transform="matrix(1.00, 0.00, -0.00, -1.00, 425.3, 337.0)">o</text><text xml:space="preserve" font-family="Palatino-Roman,Palatino" font-size="34.6" fill="#93741B" transform="matrix(1.00, 0.00, -0.00, -1.00, 444.2, 337.0)">u</text><text xml:space="preserve" font-family="Palatino-Roman,Palatino" font-size="34.6" fill="#93741B" transform="matrix(1.00, 0.00, -0.00, -1.00, 465.0, 337.0)">r</text><text xml:space="preserve" font-family="Palatino-Roman,Palatino" font-size="34.6" fill="#93741B" transform="matrix(1.00, 0.00, -0.00, -1.00, 478.6, 337.0)">n</text><text xml:space="preserve" font-family="Palatino-Roman,Palatino" font-size="34.6" fill="#93741B" transform="matrix(1.00, 0.00, -0.00, -1.00, 498.8, 337.0)">a</text><text xml:space="preserve" font-family="Palatino-Roman,Palatino" font-size="34.6" fill="#93741B" transform="matrix(1.00, 0.00, -0.00, -1.00, 516.0, 337.0)">l</text><text xml:space="preserve" font-family="Palatino-Roman,Palatino" font-size="34.6" fill="#93741B" transform="matrix(1.00, 0.00, -0.00, -1.00, 526.1, 337.0)">s</text><image xlink:href="../../EE0F35A8-E4D9-4F08-82A2-4E5256DEE888/assets/06324A8B8BF56E44D648BF26EFF2583E.png" width="84.00" height="90.00" transform="matrix(0.19, 0.00, -0.00, -0.19, 129.0, 274.4)"></image><text xml:space="preserve" font-family="Palatino-Roman,Palatino" font-size="34.6" fill="#93741B" transform="matrix(1.00, 0.00, -0.00, -1.00, 162.6, 256.5)">S</text><text xml:space="preserve" font-family="Palatino-Roman,Palatino" font-size="34.6" fill="#93741B" transform="matrix(1.00, 0.00, -0.00, -1.00, 180.7, 256.5)">o</text><text xml:space="preserve" font-family="Palatino-Roman,Palatino" font-size="34.6" fill="#93741B" transform="matrix(1.00, 0.00, -0.00, -1.00, 199.6, 256.5)">m</text><text xml:space="preserve" font-family="Palatino-Roman,Palatino" font-size="34.6" fill="#93741B" transform="matrix(1.00, 0.00, -0.00, -1.00, 230.1, 256.5)">e</text><text xml:space="preserve" font-family="Palatino-Roman,Palatino" font-size="34.6" fill="#93741B" transform="matrix(1.00, 0.00, -0.00, -1.00, 246.7, 256.5)"> </text><text xml:space="preserve" font-family="Palatino-Roman,Palatino" font-size="34.6" fill="#93741B" transform="matrix(1.00, 0.00, -0.00, -1.00, 255.3, 256.5)">t</text><text xml:space="preserve" font-family="Palatino-Roman,Palatino" font-size="34.6" fill="#93741B" transform="matrix(1.00, 0.00, -0.00, -1.00, 266.6, 256.5)">i</text><text xml:space="preserve" font-family="Palatino-Roman,Palatino" font-size="34.6" fill="#93741B" transform="matrix(1.00, 0.00, -0.00, -1.00, 276.6, 256.5)">t</text><text xml:space="preserve" font-family="Palatino-Roman,Palatino" font-size="34.6" fill="#93741B" transform="matrix(1.00, 0.00, -0.00, -1.00, 287.9, 256.5)">l</text><text xml:space="preserve" font-family="Palatino-Roman,Palatino" font-size="34.6" fill="#93741B" transform="matrix(1.00, 0.00, -0.00, -1.00, 298.0, 256.5)">e</text><text xml:space="preserve" font-family="Palatino-Roman,Palatino" font-size="34.6" fill="#93741B" transform="matrix(1.00, 0.00, -0.00, -1.00, 314.5, 256.5)">s</text><text xml:space="preserve" font-family="Palatino-Roman,Palatino" font-size="34.6" fill="#93741B" transform="matrix(1.00, 0.00, -0.00, -1.00, 329.2, 256.5)"> </text><text xml:space="preserve" font-family="Palatino-Roman,Palatino" font-size="34.6" fill="#93741B" transform="matrix(1.00, 0.00, -0.00, -1.00, 337.8, 256.5)">a</text><text xml:space="preserve" font-family="Palatino-Roman,Palatino" font-size="34.6" fill="#93741B" transform="matrix(1.00, 0.00, -0.00, -1.00, 355.1, 256.5)">r</text><text xml:space="preserve" font-family="Palatino-Roman,Palatino" font-size="34.6" fill="#93741B" transform="matrix(1.00, 0.00, -0.00, -1.00, 368.1, 256.5)">e</text><text xml:space="preserve" font-family="Palatino-Roman,Palatino" font-size="34.6" fill="#93741B" transform="matrix(1.00, 0.00, -0.00, -1.00, 384.7, 256.5)"> </text><text xml:space="preserve" font-family="Palatino-Roman,Palatino" font-size="34.6" fill="#93741B" transform="matrix(1.00, 0.00, -0.00, -1.00, 393.3, 256.5)">s</text><text xml:space="preserve" font-family="Palatino-Roman,Palatino" font-size="34.6" fill="#93741B" transform="matrix(1.00, 0.00, -0.00, -1.00, 408.0, 256.5)">p</text><text xml:space="preserve" font-family="Palatino-Roman,Palatino" font-size="34.6" fill="#93741B" transform="matrix(1.00, 0.00, -0.00, -1.00, 428.7, 256.5)">o</text><text xml:space="preserve" font-family="Palatino-Roman,Palatino" font-size="34.6" fill="#93741B" transform="matrix(1.00, 0.00, -0.00, -1.00, 447.6, 256.5)">n</text><text xml:space="preserve" font-family="Palatino-Roman,Palatino" font-size="34.6" fill="#93741B" transform="matrix(1.00, 0.00, -0.00, -1.00, 467.7, 256.5)">s</text><text xml:space="preserve" font-family="Palatino-Roman,Palatino" font-size="34.6" fill="#93741B" transform="matrix(1.00, 0.00, -0.00, -1.00, 482.4, 256.5)">o</text><text xml:space="preserve" font-family="Palatino-Roman,Palatino" font-size="34.6" fill="#93741B" transform="matrix(1.00, 0.00, -0.00, -1.00, 501.2, 256.5)">r</text><text xml:space="preserve" font-family="Palatino-Roman,Palatino" font-size="34.6" fill="#93741B" transform="matrix(1.00, 0.00, -0.00, -1.00, 514.3, 256.5)">e</text><text xml:space="preserve" font-family="Palatino-Roman,Palatino" font-size="34.6" fill="#93741B" transform="matrix(1.00, 0.00, -0.00, -1.00, 530.8, 256.5)">d</text><text xml:space="preserve" font-family="Palatino-Roman,Palatino" font-size="34.6" fill="#93741B" transform="matrix(1.00, 0.00, -0.00, -1.00, 551.9, 256.5)"> </text><text xml:space="preserve" font-family="Palatino-Roman,Palatino" font-size="34.6" fill="#93741B" transform="matrix(1.00, 0.00, -0.00, -1.00, 560.6, 256.5)">b</text><text xml:space="preserve" font-family="Palatino-Roman,Palatino" font-size="34.6" fill="#93741B" transform="matrix(1.00, 0.00, -0.00, -1.00, 579.7, 256.5)">y</text><text xml:space="preserve" font-family="Palatino-Roman,Palatino" font-size="34.6" fill="#93741B" transform="matrix(1.00, 0.00, -0.00, -1.00, 598.9, 256.5)"> </text><text xml:space="preserve" font-family="Palatino-Roman,Palatino" font-size="34.6" fill="#93741B" transform="matrix(1.00, 0.00, -0.00, -1.00, 607.6, 256.5)">a</text><text xml:space="preserve" font-family="Palatino-Roman,Palatino" font-size="34.6" fill="#93741B" transform="matrix(1.00, 0.00, -0.00, -1.00, 624.8, 256.5)">n</text><text xml:space="preserve" font-family="Palatino-Roman,Palatino" font-size="34.6" fill="#93741B" transform="matrix(1.00, 0.00, -0.00, -1.00, 645.0, 256.5)"> </text><text xml:space="preserve" font-family="Palatino-Roman,Palatino" font-size="34.6" fill="#93741B" transform="matrix(1.00, 0.00, -0.00, -1.00, 653.6, 256.5)">i</text><text xml:space="preserve" font-family="Palatino-Roman,Palatino" font-size="34.6" fill="#93741B" transform="matrix(1.00, 0.00, -0.00, -1.00, 663.7, 256.5)">n</text><text xml:space="preserve" font-family="Palatino-Roman,Palatino" font-size="34.6" fill="#93741B" transform="matrix(1.00, 0.00, -0.00, -1.00, 683.8, 256.5)">s</text><text xml:space="preserve" font-family="Palatino-Roman,Palatino" font-size="34.6" fill="#93741B" transform="matrix(1.00, 0.00, -0.00, -1.00, 698.4, 256.5)">t</text><text xml:space="preserve" font-family="Palatino-Roman,Palatino" font-size="34.6" fill="#93741B" transform="matrix(1.00, 0.00, -0.00, -1.00, 709.7, 256.5)">i</text><text xml:space="preserve" font-family="Palatino-Roman,Palatino" font-size="34.6" fill="#93741B" transform="matrix(1.00, 0.00, -0.00, -1.00, 719.7, 256.5)">t</text><text xml:space="preserve" font-family="Palatino-Roman,Palatino" font-size="34.6" fill="#93741B" transform="matrix(1.00, 0.00, -0.00, -1.00, 731.0, 256.5)">u</text><text xml:space="preserve" font-family="Palatino-Roman,Palatino" font-size="34.6" fill="#93741B" transform="matrix(1.00, 0.00, -0.00, -1.00, 751.9, 256.5)">t</text><text xml:space="preserve" font-family="Palatino-Roman,Palatino" font-size="34.6" fill="#93741B" transform="matrix(1.00, 0.00, -0.00, -1.00, 763.1, 256.5)">i</text><text xml:space="preserve" font-family="Palatino-Roman,Palatino" font-size="34.6" fill="#93741B" transform="matrix(1.00, 0.00, -0.00, -1.00, 773.2, 256.5)">o</text><text xml:space="preserve" font-family="Palatino-Roman,Palatino" font-size="34.6" fill="#93741B" transform="matrix(1.00, 0.00, -0.00, -1.00, 792.1, 256.5)">n</text><image xlink:href="../../EE0F35A8-E4D9-4F08-82A2-4E5256DEE888/assets/06324A8B8BF56E44D648BF26EFF2583E.png" width="84.00" height="90.00" transform="matrix(0.19, 0.00, -0.00, -0.19, 129.0, 193.9)"></image><text xml:space="preserve" font-family="Palatino-Roman,Palatino" font-size="34.6" fill="#93741B" transform="matrix(1.00, 0.00, -0.00, -1.00, 162.6, 175.9)">S</text><text xml:space="preserve" font-family="Palatino-Roman,Palatino" font-size="34.6" fill="#93741B" transform="matrix(1.00, 0.00, -0.00, -1.00, 180.7, 175.9)">o</text><text xml:space="preserve" font-family="Palatino-Roman,Palatino" font-size="34.6" fill="#93741B" transform="matrix(1.00, 0.00, -0.00, -1.00, 199.6, 175.9)">m</text><text xml:space="preserve" font-family="Palatino-Roman,Palatino" font-size="34.6" fill="#93741B" transform="matrix(1.00, 0.00, -0.00, -1.00, 230.1, 175.9)">e</text><text xml:space="preserve" font-family="Palatino-Roman,Palatino" font-size="34.6" fill="#93741B" transform="matrix(1.00, 0.00, -0.00, -1.00, 246.7, 175.9)"> </text><text xml:space="preserve" font-family="Palatino-Roman,Palatino" font-size="34.6" fill="#93741B" transform="matrix(1.00, 0.00, -0.00, -1.00, 255.3, 175.9)">t</text><text xml:space="preserve" font-family="Palatino-Roman,Palatino" font-size="34.6" fill="#93741B" transform="matrix(1.00, 0.00, -0.00, -1.00, 266.6, 175.9)">i</text><text xml:space="preserve" font-family="Palatino-Roman,Palatino" font-size="34.6" fill="#93741B" transform="matrix(1.00, 0.00, -0.00, -1.00, 276.6, 175.9)">t</text><text xml:space="preserve" font-family="Palatino-Roman,Palatino" font-size="34.6" fill="#93741B" transform="matrix(1.00, 0.00, -0.00, -1.00, 287.9, 175.9)">l</text><text xml:space="preserve" font-family="Palatino-Roman,Palatino" font-size="34.6" fill="#93741B" transform="matrix(1.00, 0.00, -0.00, -1.00, 298.0, 175.9)">e</text><text xml:space="preserve" font-family="Palatino-Roman,Palatino" font-size="34.6" fill="#93741B" transform="matrix(1.00, 0.00, -0.00, -1.00, 314.5, 175.9)">s</text><text xml:space="preserve" font-family="Palatino-Roman,Palatino" font-size="34.6" fill="#93741B" transform="matrix(1.00, 0.00, -0.00, -1.00, 329.2, 175.9)"> </text><text xml:space="preserve" font-family="Palatino-Roman,Palatino" font-size="34.6" fill="#93741B" transform="matrix(1.00, 0.00, -0.00, -1.00, 337.8, 175.9)">a</text><text xml:space="preserve" font-family="Palatino-Roman,Palatino" font-size="34.6" fill="#93741B" transform="matrix(1.00, 0.00, -0.00, -1.00, 355.1, 175.9)">r</text><text xml:space="preserve" font-family="Palatino-Roman,Palatino" font-size="34.6" fill="#93741B" transform="matrix(1.00, 0.00, -0.00, -1.00, 368.1, 175.9)">e</text><text xml:space="preserve" font-family="Palatino-Roman,Palatino" font-size="34.6" fill="#93741B" transform="matrix(1.00, 0.00, -0.00, -1.00, 384.7, 175.9)"> </text><text xml:space="preserve" font-family="Palatino-Roman,Palatino" font-size="34.6" fill="#93741B" transform="matrix(1.00, 0.00, -0.00, -1.00, 393.3, 175.9)">p</text><text xml:space="preserve" font-family="Palatino-Roman,Palatino" font-size="34.6" fill="#93741B" transform="matrix(1.00, 0.00, -0.00, -1.00, 414.1, 175.9)">a</text><text xml:space="preserve" font-family="Palatino-Roman,Palatino" font-size="34.6" fill="#93741B" transform="matrix(1.00, 0.00, -0.00, -1.00, 431.4, 175.9)">r</text><text xml:space="preserve" font-family="Palatino-Roman,Palatino" font-size="34.6" fill="#93741B" transform="matrix(1.00, 0.00, -0.00, -1.00, 445.0, 175.9)">t</text><text xml:space="preserve" font-family="Palatino-Roman,Palatino" font-size="34.6" fill="#93741B" transform="matrix(1.00, 0.00, -0.00, -1.00, 456.3, 175.9)">i</text><text xml:space="preserve" font-family="Palatino-Roman,Palatino" font-size="34.6" fill="#93741B" transform="matrix(1.00, 0.00, -0.00, -1.00, 466.4, 175.9)">a</text><text xml:space="preserve" font-family="Palatino-Roman,Palatino" font-size="34.6" fill="#93741B" transform="matrix(1.00, 0.00, -0.00, -1.00, 483.6, 175.9)">l</text><text xml:space="preserve" font-family="Palatino-Roman,Palatino" font-size="34.6" fill="#93741B" transform="matrix(1.00, 0.00, -0.00, -1.00, 493.7, 175.9)">l</text><text xml:space="preserve" font-family="Palatino-Roman,Palatino" font-size="34.6" fill="#93741B" transform="matrix(1.00, 0.00, -0.00, -1.00, 503.8, 175.9)">y</text><text xml:space="preserve" font-family="Palatino-Roman,Palatino" font-size="34.6" fill="#93741B" transform="matrix(1.00, 0.00, -0.00, -1.00, 523.0, 175.9)">-</text><text xml:space="preserve" font-family="Palatino-Roman,Palatino" font-size="34.6" fill="#93741B" transform="matrix(1.00, 0.00, -0.00, -1.00, 534.5, 175.9)">s</text><text xml:space="preserve" font-family="Palatino-Roman,Palatino" font-size="34.6" fill="#93741B" transform="matrix(1.00, 0.00, -0.00, -1.00, 549.1, 175.9)">p</text><text xml:space="preserve" font-family="Palatino-Roman,Palatino" font-size="34.6" fill="#93741B" transform="matrix(1.00, 0.00, -0.00, -1.00, 569.9, 175.9)">o</text><text xml:space="preserve" font-family="Palatino-Roman,Palatino" font-size="34.6" fill="#93741B" transform="matrix(1.00, 0.00, -0.00, -1.00, 588.8, 175.9)">n</text><text xml:space="preserve" font-family="Palatino-Roman,Palatino" font-size="34.6" fill="#93741B" transform="matrix(1.00, 0.00, -0.00, -1.00, 608.9, 175.9)">s</text><text xml:space="preserve" font-family="Palatino-Roman,Palatino" font-size="34.6" fill="#93741B" transform="matrix(1.00, 0.00, -0.00, -1.00, 623.5, 175.9)">o</text><text xml:space="preserve" font-family="Palatino-Roman,Palatino" font-size="34.6" fill="#93741B" transform="matrix(1.00, 0.00, -0.00, -1.00, 642.4, 175.9)">r</text><text xml:space="preserve" font-family="Palatino-Roman,Palatino" font-size="34.6" fill="#93741B" transform="matrix(1.00, 0.00, -0.00, -1.00, 655.4, 175.9)">e</text><text xml:space="preserve" font-family="Palatino-Roman,Palatino" font-size="34.6" fill="#93741B" transform="matrix(1.00, 0.00, -0.00, -1.00, 672.0, 175.9)">d</text><text xml:space="preserve" font-family="Palatino-Roman,Palatino" font-size="34.6" fill="#93741B" transform="matrix(1.00, 0.00, -0.00, -1.00, 693.1, 175.9)"> </text><image xlink:href="../../EE0F35A8-E4D9-4F08-82A2-4E5256DEE888/assets/06324A8B8BF56E44D648BF26EFF2583E.png" width="84.00" height="90.00" transform="matrix(0.19, 0.00, -0.00, -0.19, 129.0, 113.3)"></image><text xml:space="preserve" font-family="Palatino-Roman,Palatino" font-size="34.6" fill="#93741B" transform="matrix(1.00, 0.00, -0.00, -1.00, 162.6, 95.3)">S</text><text xml:space="preserve" font-family="Palatino-Roman,Palatino" font-size="34.6" fill="#93741B" transform="matrix(1.00, 0.00, -0.00, -1.00, 180.7, 95.3)">o</text><text xml:space="preserve" font-family="Palatino-Roman,Palatino" font-size="34.6" fill="#93741B" transform="matrix(1.00, 0.00, -0.00, -1.00, 199.6, 95.3)">m</text><text xml:space="preserve" font-family="Palatino-Roman,Palatino" font-size="34.6" fill="#93741B" transform="matrix(1.00, 0.00, -0.00, -1.00, 230.1, 95.3)">e</text><text xml:space="preserve" font-family="Palatino-Roman,Palatino" font-size="34.6" fill="#93741B" transform="matrix(1.00, 0.00, -0.00, -1.00, 246.7, 95.3)"> </text><text xml:space="preserve" font-family="Palatino-Roman,Palatino" font-size="34.6" fill="#93741B" transform="matrix(1.00, 0.00, -0.00, -1.00, 255.3, 95.3)">t</text><text xml:space="preserve" font-family="Palatino-Roman,Palatino" font-size="34.6" fill="#93741B" transform="matrix(1.00, 0.00, -0.00, -1.00, 266.6, 95.3)">i</text><text xml:space="preserve" font-family="Palatino-Roman,Palatino" font-size="34.6" fill="#93741B" transform="matrix(1.00, 0.00, -0.00, -1.00, 276.6, 95.3)">t</text><text xml:space="preserve" font-family="Palatino-Roman,Palatino" font-size="34.6" fill="#93741B" transform="matrix(1.00, 0.00, -0.00, -1.00, 287.9, 95.3)">l</text><text xml:space="preserve" font-family="Palatino-Roman,Palatino" font-size="34.6" fill="#93741B" transform="matrix(1.00, 0.00, -0.00, -1.00, 298.0, 95.3)">e</text><text xml:space="preserve" font-family="Palatino-Roman,Palatino" font-size="34.6" fill="#93741B" transform="matrix(1.00, 0.00, -0.00, -1.00, 314.5, 95.3)">s</text><text xml:space="preserve" font-family="Palatino-Roman,Palatino" font-size="34.6" fill="#93741B" transform="matrix(1.00, 0.00, -0.00, -1.00, 329.2, 95.3)"> </text><text xml:space="preserve" font-family="Palatino-Roman,Palatino" font-size="34.6" fill="#93741B" transform="matrix(1.00, 0.00, -0.00, -1.00, 337.8, 95.3)">a</text><text xml:space="preserve" font-family="Palatino-Roman,Palatino" font-size="34.6" fill="#93741B" transform="matrix(1.00, 0.00, -0.00, -1.00, 355.1, 95.3)">r</text><text xml:space="preserve" font-family="Palatino-Roman,Palatino" font-size="34.6" fill="#93741B" transform="matrix(1.00, 0.00, -0.00, -1.00, 368.1, 95.3)">e</text><text xml:space="preserve" font-family="Palatino-Roman,Palatino" font-size="34.6" fill="#93741B" transform="matrix(1.00, 0.00, -0.00, -1.00, 384.7, 95.3)"> </text><text xml:space="preserve" font-family="Palatino-Roman,Palatino" font-size="34.6" fill="#93741B" transform="matrix(1.00, 0.00, -0.00, -1.00, 393.3, 95.3)">p</text><text xml:space="preserve" font-family="Palatino-Roman,Palatino" font-size="34.6" fill="#93741B" transform="matrix(1.00, 0.00, -0.00, -1.00, 414.1, 95.3)">a</text><text xml:space="preserve" font-family="Palatino-Roman,Palatino" font-size="34.6" fill="#93741B" transform="matrix(1.00, 0.00, -0.00, -1.00, 431.4, 95.3)">i</text><text xml:space="preserve" font-family="Palatino-Roman,Palatino" font-size="34.6" fill="#93741B" transform="matrix(1.00, 0.00, -0.00, -1.00, 441.4, 95.3)">d</text><text xml:space="preserve" font-family="Palatino-Roman,Palatino" font-size="34.6" fill="#93741B" transform="matrix(1.00, 0.00, -0.00, -1.00, 462.5, 95.3)"> </text><text xml:space="preserve" font-family="Palatino-Roman,Palatino" font-size="34.6" fill="#93741B" transform="matrix(1.00, 0.00, -0.00, -1.00, 471.2, 95.3)">f</text><text xml:space="preserve" font-family="Palatino-Roman,Palatino" font-size="34.6" fill="#93741B" transform="matrix(1.00, 0.00, -0.00, -1.00, 482.7, 95.3)">o</text><text xml:space="preserve" font-family="Palatino-Roman,Palatino" font-size="34.6" fill="#93741B" transform="matrix(1.00, 0.00, -0.00, -1.00, 501.6, 95.3)">r</text><text xml:space="preserve" font-family="Palatino-Roman,Palatino" font-size="34.6" fill="#93741B" transform="matrix(1.00, 0.00, -0.00, -1.00, 515.2, 95.3)"> </text><text xml:space="preserve" font-family="Palatino-Roman,Palatino" font-size="34.6" fill="#93741B" transform="matrix(1.00, 0.00, -0.00, -1.00, 523.8, 95.3)">b</text><text xml:space="preserve" font-family="Palatino-Roman,Palatino" font-size="34.6" fill="#93741B" transform="matrix(1.00, 0.00, -0.00, -1.00, 543.0, 95.3)">y</text><text xml:space="preserve" font-family="Palatino-Roman,Palatino" font-size="34.6" fill="#93741B" transform="matrix(1.00, 0.00, -0.00, -1.00, 562.2, 95.3)"> </text><text xml:space="preserve" font-family="Palatino-Roman,Palatino" font-size="34.6" fill="#93741B" transform="matrix(1.00, 0.00, -0.00, -1.00, 570.8, 95.3)">t</text><text xml:space="preserve" font-family="Palatino-Roman,Palatino" font-size="34.6" fill="#93741B" transform="matrix(1.00, 0.00, -0.00, -1.00, 582.1, 95.3)">h</text><text xml:space="preserve" font-family="Palatino-Roman,Palatino" font-size="34.6" fill="#93741B" transform="matrix(1.00, 0.00, -0.00, -1.00, 602.2, 95.3)">e</text><text xml:space="preserve" font-family="Palatino-Roman,Palatino" font-size="34.6" fill="#93741B" transform="matrix(1.00, 0.00, -0.00, -1.00, 618.8, 95.3)"> </text><text xml:space="preserve" font-family="Palatino-Roman,Palatino" font-size="34.6" fill="#93741B" transform="matrix(1.00, 0.00, -0.00, -1.00, 627.4, 95.3)">a</text><text xml:space="preserve" font-family="Palatino-Roman,Palatino" font-size="34.6" fill="#93741B" transform="matrix(1.00, 0.00, -0.00, -1.00, 644.7, 95.3)">u</text><text xml:space="preserve" font-family="Palatino-Roman,Palatino" font-size="34.6" fill="#93741B" transform="matrix(1.00, 0.00, -0.00, -1.00, 665.5, 95.3)">t</text><text xml:space="preserve" font-family="Palatino-Roman,Palatino" font-size="34.6" fill="#93741B" transform="matrix(1.00, 0.00, -0.00, -1.00, 676.8, 95.3)">h</text><text xml:space="preserve" font-family="Palatino-Roman,Palatino" font-size="34.6" fill="#93741B" transform="matrix(1.00, 0.00, -0.00, -1.00, 696.9, 95.3)">o</text><text xml:space="preserve" font-family="Palatino-Roman,Palatino" font-size="34.6" fill="#93741B" transform="matrix(1.00, 0.00, -0.00, -1.00, 715.8, 95.3)">r</text></g></svg>