<?xml version="1.0" encoding="UTF-8" standalone="no"?><svg xmlns="http://www.w3.org/2000/svg" xmlns:xlink="http://www.w3.org/1999/xlink" clip-rule="evenodd" stroke-miterlimit="10" viewBox="0 0 1024 768"><desc>SVG generated by Keynote</desc><defs></defs><g transform="matrix(1.00, 0.00, -0.00, -1.00, 0.0, 768.0)"><g><clipPath id="clip0x6080010a64e0"><path d="M 0.0 768.0 L 1024.0 768.0 L 1024.0 0.0 L 0.0 0.0 Z M 0.0 768.0 "></path></clipPath><g clip-path="url(#clip0x6080010a64e0)"><image xlink:href="../../45DA958D-0BF7-418D-8F04-7EBED7B3F604/assets/7DDA4CC5426700CA34754E241DBFD959.jpeg" width="2048.00" height="1536.00" transform="matrix(0.50, 0.00, -0.00, -0.50, 0.0, 768.0)"></image></g></g><text xml:space="preserve" font-family="AmericanTypewriter,American Typewriter" font-size="70.0" fill="#6E5F3B" transform="matrix(1.00, 0.00, -0.00, -1.00, 198.6, 632.5)">T</text><text xml:space="preserve" font-family="AmericanTypewriter,American Typewriter" font-size="70.0" fill="#6E5F3B" transform="matrix(1.00, 0.00, -0.00, -1.00, 246.1, 632.5)">Y</text><text xml:space="preserve" font-family="AmericanTypewriter,American Typewriter" font-size="70.0" fill="#6E5F3B" transform="matrix(1.00, 0.00, -0.00, -1.00, 297.8, 632.5)">P</text><text xml:space="preserve" font-family="AmericanTypewriter,American Typewriter" font-size="70.0" fill="#6E5F3B" transform="matrix(1.00, 0.00, -0.00, -1.00, 343.1, 632.5)">E</text><text xml:space="preserve" font-family="AmericanTypewriter,American Typewriter" font-size="70.0" fill="#6E5F3B" transform="matrix(1.00, 0.00, -0.00, -1.00, 390.9, 632.5)">S</text><text xml:space="preserve" font-family="AmericanTypewriter,American Typewriter" font-size="70.0" fill="#6E5F3B" transform="matrix(1.00, 0.00, -0.00, -1.00, 434.9, 632.5)"> </text><text xml:space="preserve" font-family="AmericanTypewriter,American Typewriter" font-size="70.0" fill="#6E5F3B" transform="matrix(1.00, 0.00, -0.00, -1.00, 453.1, 632.5)">O</text><text xml:space="preserve" font-family="AmericanTypewriter,American Typewriter" font-size="70.0" fill="#6E5F3B" transform="matrix(1.00, 0.00, -0.00, -1.00, 499.7, 632.5)">F</text><text xml:space="preserve" font-family="AmericanTypewriter,American Typewriter" font-size="70.0" fill="#6E5F3B" transform="matrix(1.00, 0.00, -0.00, -1.00, 543.7, 632.5)"> </text><text xml:space="preserve" font-family="AmericanTypewriter,American Typewriter" font-size="70.0" fill="#6E5F3B" transform="matrix(1.00, 0.00, -0.00, -1.00, 561.9, 632.5)">O</text><text xml:space="preserve" font-family="AmericanTypewriter,American Typewriter" font-size="70.0" fill="#6E5F3B" transform="matrix(1.00, 0.00, -0.00, -1.00, 606.5, 632.5)">A</text><text xml:space="preserve" font-family="AmericanTypewriter,American Typewriter" font-size="70.0" fill="#6E5F3B" transform="matrix(1.00, 0.00, -0.00, -1.00, 659.4, 632.5)"> </text><text xml:space="preserve" font-family="AmericanTypewriter,American Typewriter" font-size="70.0" fill="#6E5F3B" transform="matrix(1.00, 0.00, -0.00, -1.00, 677.6, 632.5)">B</text><text xml:space="preserve" font-family="AmericanTypewriter,American Typewriter" font-size="70.0" fill="#6E5F3B" transform="matrix(1.00, 0.00, -0.00, -1.00, 726.8, 632.5)">O</text><text xml:space="preserve" font-family="AmericanTypewriter,American Typewriter" font-size="70.0" fill="#6E5F3B" transform="matrix(1.00, 0.00, -0.00, -1.00, 773.3, 632.5)">O</text><text xml:space="preserve" font-family="AmericanTypewriter,American Typewriter" font-size="70.0" fill="#6E5F3B" transform="matrix(1.00, 0.00, -0.00, -1.00, 819.9, 632.5)">K</text><image xlink:href="../../EE0F35A8-E4D9-4F08-82A2-4E5256DEE888/assets/06324A8B8BF56E44D648BF26EFF2583E.png" width="84.00" height="90.00" transform="matrix(0.20, 0.00, -0.00, -0.20, 129.0, 487.7)"></image><text xml:space="preserve" font-family="Palatino-Roman,Palatino" font-size="36.0" fill="#93741B" transform="matrix(1.00, 0.00, -0.00, -1.00, 164.0, 469.0)">M</text><text xml:space="preserve" font-family="Palatino-Roman,Palatino" font-size="36.0" fill="#93741B" transform="matrix(1.00, 0.00, -0.00, -1.00, 198.0, 469.0)">o</text><text xml:space="preserve" font-family="Palatino-Roman,Palatino" font-size="36.0" fill="#93741B" transform="matrix(1.00, 0.00, -0.00, -1.00, 217.7, 469.0)">n</text><text xml:space="preserve" font-family="Palatino-Roman,Palatino" font-size="36.0" fill="#93741B" transform="matrix(1.00, 0.00, -0.00, -1.00, 238.6, 469.0)">o</text><text xml:space="preserve" font-family="Palatino-Roman,Palatino" font-size="36.0" fill="#93741B" transform="matrix(1.00, 0.00, -0.00, -1.00, 258.3, 469.0)">g</text><text xml:space="preserve" font-family="Palatino-Roman,Palatino" font-size="36.0" fill="#93741B" transform="matrix(1.00, 0.00, -0.00, -1.00, 278.3, 469.0)">r</text><text xml:space="preserve" font-family="Palatino-Roman,Palatino" font-size="36.0" fill="#93741B" transform="matrix(1.00, 0.00, -0.00, -1.00, 292.5, 469.0)">a</text><text xml:space="preserve" font-family="Palatino-Roman,Palatino" font-size="36.0" fill="#93741B" transform="matrix(1.00, 0.00, -0.00, -1.00, 310.5, 469.0)">p</text><text xml:space="preserve" font-family="Palatino-Roman,Palatino" font-size="36.0" fill="#93741B" transform="matrix(1.00, 0.00, -0.00, -1.00, 332.2, 469.0)">h</text><text xml:space="preserve" font-family="Palatino-Roman,Palatino" font-size="36.0" fill="#93741B" transform="matrix(1.00, 0.00, -0.00, -1.00, 353.1, 469.0)">s</text><image xlink:href="../../EE0F35A8-E4D9-4F08-82A2-4E5256DEE888/assets/06324A8B8BF56E44D648BF26EFF2583E.png" width="84.00" height="90.00" transform="matrix(0.20, 0.00, -0.00, -0.20, 129.0, 403.7)"></image><text xml:space="preserve" font-family="Palatino-Roman,Palatino" font-size="36.0" fill="#93741B" transform="matrix(1.00, 0.00, -0.00, -1.00, 164.0, 385.0)">E</text><text xml:space="preserve" font-family="Palatino-Roman,Palatino" font-size="36.0" fill="#93741B" transform="matrix(1.00, 0.00, -0.00, -1.00, 186.0, 385.0)">d</text><text xml:space="preserve" font-family="Palatino-Roman,Palatino" font-size="36.0" fill="#93741B" transform="matrix(1.00, 0.00, -0.00, -1.00, 208.0, 385.0)">i</text><text xml:space="preserve" font-family="Palatino-Roman,Palatino" font-size="36.0" fill="#93741B" transform="matrix(1.00, 0.00, -0.00, -1.00, 218.4, 385.0)">t</text><text xml:space="preserve" font-family="Palatino-Roman,Palatino" font-size="36.0" fill="#93741B" transform="matrix(1.00, 0.00, -0.00, -1.00, 230.2, 385.0)">e</text><text xml:space="preserve" font-family="Palatino-Roman,Palatino" font-size="36.0" fill="#93741B" transform="matrix(1.00, 0.00, -0.00, -1.00, 247.4, 385.0)">d</text><text xml:space="preserve" font-family="Palatino-Roman,Palatino" font-size="36.0" fill="#93741B" transform="matrix(1.00, 0.00, -0.00, -1.00, 269.4, 385.0)"> </text><text xml:space="preserve" font-family="Palatino-Roman,Palatino" font-size="36.0" fill="#93741B" transform="matrix(1.00, 0.00, -0.00, -1.00, 278.4, 385.0)">c</text><text xml:space="preserve" font-family="Palatino-Roman,Palatino" font-size="36.0" fill="#93741B" transform="matrix(1.00, 0.00, -0.00, -1.00, 294.4, 385.0)">o</text><text xml:space="preserve" font-family="Palatino-Roman,Palatino" font-size="36.0" fill="#93741B" transform="matrix(1.00, 0.00, -0.00, -1.00, 314.0, 385.0)">l</text><text xml:space="preserve" font-family="Palatino-Roman,Palatino" font-size="36.0" fill="#93741B" transform="matrix(1.00, 0.00, -0.00, -1.00, 324.5, 385.0)">l</text><text xml:space="preserve" font-family="Palatino-Roman,Palatino" font-size="36.0" fill="#93741B" transform="matrix(1.00, 0.00, -0.00, -1.00, 335.0, 385.0)">e</text><text xml:space="preserve" font-family="Palatino-Roman,Palatino" font-size="36.0" fill="#93741B" transform="matrix(1.00, 0.00, -0.00, -1.00, 352.2, 385.0)">c</text><text xml:space="preserve" font-family="Palatino-Roman,Palatino" font-size="36.0" fill="#93741B" transform="matrix(1.00, 0.00, -0.00, -1.00, 368.2, 385.0)">t</text><text xml:space="preserve" font-family="Palatino-Roman,Palatino" font-size="36.0" fill="#93741B" transform="matrix(1.00, 0.00, -0.00, -1.00, 380.0, 385.0)">i</text><text xml:space="preserve" font-family="Palatino-Roman,Palatino" font-size="36.0" fill="#93741B" transform="matrix(1.00, 0.00, -0.00, -1.00, 390.4, 385.0)">o</text><text xml:space="preserve" font-family="Palatino-Roman,Palatino" font-size="36.0" fill="#93741B" transform="matrix(1.00, 0.00, -0.00, -1.00, 410.1, 385.0)">n</text><text xml:space="preserve" font-family="Palatino-Roman,Palatino" font-size="36.0" fill="#93741B" transform="matrix(1.00, 0.00, -0.00, -1.00, 431.0, 385.0)">s</text><image xlink:href="../../EE0F35A8-E4D9-4F08-82A2-4E5256DEE888/assets/06324A8B8BF56E44D648BF26EFF2583E.png" width="84.00" height="90.00" transform="matrix(0.20, 0.00, -0.00, -0.20, 129.0, 319.7)"></image><text xml:space="preserve" font-family="Palatino-Roman,Palatino" font-size="36.0" fill="#93741B" transform="matrix(1.00, 0.00, -0.00, -1.00, 164.0, 301.0)">B</text><text xml:space="preserve" font-family="Palatino-Roman,Palatino" font-size="36.0" fill="#93741B" transform="matrix(1.00, 0.00, -0.00, -1.00, 186.0, 301.0)">r</text><text xml:space="preserve" font-family="Palatino-Roman,Palatino" font-size="36.0" fill="#93741B" transform="matrix(1.00, 0.00, -0.00, -1.00, 200.2, 301.0)">i</text><text xml:space="preserve" font-family="Palatino-Roman,Palatino" font-size="36.0" fill="#93741B" transform="matrix(1.00, 0.00, -0.00, -1.00, 210.7, 301.0)">e</text><text xml:space="preserve" font-family="Palatino-Roman,Palatino" font-size="36.0" fill="#93741B" transform="matrix(1.00, 0.00, -0.00, -1.00, 227.9, 301.0)">f</text><text xml:space="preserve" font-family="Palatino-Roman,Palatino" font-size="36.0" fill="#93741B" transform="matrix(1.00, 0.00, -0.00, -1.00, 239.9, 301.0)"> </text><text xml:space="preserve" font-family="Palatino-Roman,Palatino" font-size="36.0" fill="#93741B" transform="matrix(1.00, 0.00, -0.00, -1.00, 248.9, 301.0)">w</text><text xml:space="preserve" font-family="Palatino-Roman,Palatino" font-size="36.0" fill="#93741B" transform="matrix(1.00, 0.00, -0.00, -1.00, 278.9, 301.0)">o</text><text xml:space="preserve" font-family="Palatino-Roman,Palatino" font-size="36.0" fill="#93741B" transform="matrix(1.00, 0.00, -0.00, -1.00, 298.6, 301.0)">r</text><text xml:space="preserve" font-family="Palatino-Roman,Palatino" font-size="36.0" fill="#93741B" transform="matrix(1.00, 0.00, -0.00, -1.00, 312.8, 301.0)">k</text><text xml:space="preserve" font-family="Palatino-Roman,Palatino" font-size="36.0" fill="#93741B" transform="matrix(1.00, 0.00, -0.00, -1.00, 332.8, 301.0)">s</text><text xml:space="preserve" font-family="Palatino-Roman,Palatino" font-size="36.0" fill="#93741B" transform="matrix(1.00, 0.00, -0.00, -1.00, 348.1, 301.0)"> </text><text xml:space="preserve" font-family="Palatino-Roman,Palatino" font-size="36.0" fill="#93741B" transform="matrix(1.00, 0.00, -0.00, -1.00, 357.1, 301.0)">(</text><text xml:space="preserve" font-family="Palatino-Roman,Palatino" font-size="36.0" fill="#93741B" transform="matrix(1.00, 0.00, -0.00, -1.00, 369.1, 301.0)">n</text><text xml:space="preserve" font-family="Palatino-Roman,Palatino" font-size="36.0" fill="#93741B" transform="matrix(1.00, 0.00, -0.00, -1.00, 390.0, 301.0)">e</text><text xml:space="preserve" font-family="Palatino-Roman,Palatino" font-size="36.0" fill="#93741B" transform="matrix(1.00, 0.00, -0.00, -1.00, 407.3, 301.0)">w</text><text xml:space="preserve" font-family="Palatino-Roman,Palatino" font-size="36.0" fill="#93741B" transform="matrix(1.00, 0.00, -0.00, -1.00, 437.3, 301.0)"> </text><text xml:space="preserve" font-family="Palatino-Roman,Palatino" font-size="36.0" fill="#93741B" transform="matrix(1.00, 0.00, -0.00, -1.00, 446.3, 301.0)">p</text><text xml:space="preserve" font-family="Palatino-Roman,Palatino" font-size="36.0" fill="#93741B" transform="matrix(1.00, 0.00, -0.00, -1.00, 467.9, 301.0)">u</text><text xml:space="preserve" font-family="Palatino-Roman,Palatino" font-size="36.0" fill="#93741B" transform="matrix(1.00, 0.00, -0.00, -1.00, 489.6, 301.0)">b</text><text xml:space="preserve" font-family="Palatino-Roman,Palatino" font-size="36.0" fill="#93741B" transform="matrix(1.00, 0.00, -0.00, -1.00, 509.6, 301.0)">l</text><text xml:space="preserve" font-family="Palatino-Roman,Palatino" font-size="36.0" fill="#93741B" transform="matrix(1.00, 0.00, -0.00, -1.00, 520.0, 301.0)">i</text><text xml:space="preserve" font-family="Palatino-Roman,Palatino" font-size="36.0" fill="#93741B" transform="matrix(1.00, 0.00, -0.00, -1.00, 530.5, 301.0)">c</text><text xml:space="preserve" font-family="Palatino-Roman,Palatino" font-size="36.0" fill="#93741B" transform="matrix(1.00, 0.00, -0.00, -1.00, 546.5, 301.0)">a</text><text xml:space="preserve" font-family="Palatino-Roman,Palatino" font-size="36.0" fill="#93741B" transform="matrix(1.00, 0.00, -0.00, -1.00, 564.5, 301.0)">t</text><text xml:space="preserve" font-family="Palatino-Roman,Palatino" font-size="36.0" fill="#93741B" transform="matrix(1.00, 0.00, -0.00, -1.00, 576.2, 301.0)">i</text><text xml:space="preserve" font-family="Palatino-Roman,Palatino" font-size="36.0" fill="#93741B" transform="matrix(1.00, 0.00, -0.00, -1.00, 586.7, 301.0)">o</text><text xml:space="preserve" font-family="Palatino-Roman,Palatino" font-size="36.0" fill="#93741B" transform="matrix(1.00, 0.00, -0.00, -1.00, 606.4, 301.0)">n</text><text xml:space="preserve" font-family="Palatino-Roman,Palatino" font-size="36.0" fill="#93741B" transform="matrix(1.00, 0.00, -0.00, -1.00, 627.3, 301.0)"> </text><text xml:space="preserve" font-family="Palatino-Roman,Palatino" font-size="36.0" fill="#93741B" transform="matrix(1.00, 0.00, -0.00, -1.00, 636.3, 301.0)">t</text><text xml:space="preserve" font-family="Palatino-Roman,Palatino" font-size="36.0" fill="#93741B" transform="matrix(1.00, 0.00, -0.00, -1.00, 648.1, 301.0)">y</text><text xml:space="preserve" font-family="Palatino-Roman,Palatino" font-size="36.0" fill="#93741B" transform="matrix(1.00, 0.00, -0.00, -1.00, 668.1, 301.0)">p</text><text xml:space="preserve" font-family="Palatino-Roman,Palatino" font-size="36.0" fill="#93741B" transform="matrix(1.00, 0.00, -0.00, -1.00, 689.7, 301.0)">e</text><text xml:space="preserve" font-family="Palatino-Roman,Palatino" font-size="36.0" fill="#93741B" transform="matrix(1.00, 0.00, -0.00, -1.00, 707.0, 301.0)">)</text><image xlink:href="../../EE0F35A8-E4D9-4F08-82A2-4E5256DEE888/assets/06324A8B8BF56E44D648BF26EFF2583E.png" width="84.00" height="90.00" transform="matrix(0.20, 0.00, -0.00, -0.20, 129.0, 235.7)"></image><text xml:space="preserve" font-family="Palatino-Roman,Palatino" font-size="36.0" fill="#93741B" transform="matrix(1.00, 0.00, -0.00, -1.00, 164.0, 217.0)">P</text><text xml:space="preserve" font-family="Palatino-Roman,Palatino" font-size="36.0" fill="#93741B" transform="matrix(1.00, 0.00, -0.00, -1.00, 185.7, 217.0)">r</text><text xml:space="preserve" font-family="Palatino-Roman,Palatino" font-size="36.0" fill="#93741B" transform="matrix(1.00, 0.00, -0.00, -1.00, 199.3, 217.0)">o</text><text xml:space="preserve" font-family="Palatino-Roman,Palatino" font-size="36.0" fill="#93741B" transform="matrix(1.00, 0.00, -0.00, -1.00, 219.0, 217.0)">c</text><text xml:space="preserve" font-family="Palatino-Roman,Palatino" font-size="36.0" fill="#93741B" transform="matrix(1.00, 0.00, -0.00, -1.00, 235.0, 217.0)">e</text><text xml:space="preserve" font-family="Palatino-Roman,Palatino" font-size="36.0" fill="#93741B" transform="matrix(1.00, 0.00, -0.00, -1.00, 252.2, 217.0)">e</text><text xml:space="preserve" font-family="Palatino-Roman,Palatino" font-size="36.0" fill="#93741B" transform="matrix(1.00, 0.00, -0.00, -1.00, 269.4, 217.0)">d</text><text xml:space="preserve" font-family="Palatino-Roman,Palatino" font-size="36.0" fill="#93741B" transform="matrix(1.00, 0.00, -0.00, -1.00, 291.4, 217.0)">i</text><text xml:space="preserve" font-family="Palatino-Roman,Palatino" font-size="36.0" fill="#93741B" transform="matrix(1.00, 0.00, -0.00, -1.00, 301.9, 217.0)">n</text><text xml:space="preserve" font-family="Palatino-Roman,Palatino" font-size="36.0" fill="#93741B" transform="matrix(1.00, 0.00, -0.00, -1.00, 322.9, 217.0)">g</text><text xml:space="preserve" font-family="Palatino-Roman,Palatino" font-size="36.0" fill="#93741B" transform="matrix(1.00, 0.00, -0.00, -1.00, 342.9, 217.0)">s</text><image xlink:href="../../EE0F35A8-E4D9-4F08-82A2-4E5256DEE888/assets/06324A8B8BF56E44D648BF26EFF2583E.png" width="84.00" height="90.00" transform="matrix(0.20, 0.00, -0.00, -0.20, 129.0, 151.7)"></image><text xml:space="preserve" font-family="Palatino-Roman,Palatino" font-size="36.0" fill="#93741B" transform="matrix(1.00, 0.00, -0.00, -1.00, 164.0, 133.0)">T</text><text xml:space="preserve" font-family="Palatino-Roman,Palatino" font-size="36.0" fill="#93741B" transform="matrix(1.00, 0.00, -0.00, -1.00, 182.7, 133.0)">e</text><text xml:space="preserve" font-family="Palatino-Roman,Palatino" font-size="36.0" fill="#93741B" transform="matrix(1.00, 0.00, -0.00, -1.00, 200.0, 133.0)">x</text><text xml:space="preserve" font-family="Palatino-Roman,Palatino" font-size="36.0" fill="#93741B" transform="matrix(1.00, 0.00, -0.00, -1.00, 218.6, 133.0)">t</text><text xml:space="preserve" font-family="Palatino-Roman,Palatino" font-size="36.0" fill="#93741B" transform="matrix(1.00, 0.00, -0.00, -1.00, 230.3, 133.0)">b</text><text xml:space="preserve" font-family="Palatino-Roman,Palatino" font-size="36.0" fill="#93741B" transform="matrix(1.00, 0.00, -0.00, -1.00, 250.2, 133.0)">o</text><text xml:space="preserve" font-family="Palatino-Roman,Palatino" font-size="36.0" fill="#93741B" transform="matrix(1.00, 0.00, -0.00, -1.00, 269.9, 133.0)">o</text><text xml:space="preserve" font-family="Palatino-Roman,Palatino" font-size="36.0" fill="#93741B" transform="matrix(1.00, 0.00, -0.00, -1.00, 289.5, 133.0)">k</text><text xml:space="preserve" font-family="Palatino-Roman,Palatino" font-size="36.0" fill="#93741B" transform="matrix(1.00, 0.00, -0.00, -1.00, 309.6, 133.0)">s</text></g></svg>