<?xml version="1.0" encoding="UTF-8" standalone="no"?><svg xmlns="http://www.w3.org/2000/svg" xmlns:xlink="http://www.w3.org/1999/xlink" clip-rule="evenodd" stroke-miterlimit="10" viewBox="0 0 1024 768"><desc>SVG generated by Keynote</desc><defs></defs><g transform="matrix(1.00, 0.00, -0.00, -1.00, 0.0, 768.0)"><g><clipPath id="clip0x6080012aab60"><path d="M 0.0 768.0 L 1024.0 768.0 L 1024.0 0.0 L 0.0 0.0 Z M 0.0 768.0 "></path></clipPath><g clip-path="url(#clip0x6080012aab60)"><image xlink:href="../../45DA958D-0BF7-418D-8F04-7EBED7B3F604/assets/7DDA4CC5426700CA34754E241DBFD959.jpeg" width="2048.00" height="1536.00" transform="matrix(0.50, 0.00, -0.00, -0.50, 0.0, 768.0)"></image></g></g><text xml:space="preserve" font-family="AmericanTypewriter,American Typewriter" font-size="70.0" fill="#6E5F3B" transform="matrix(1.00, 0.00, -0.00, -1.00, 163.9, 478.5)">B</text><text xml:space="preserve" font-family="AmericanTypewriter,American Typewriter" font-size="70.0" fill="#6E5F3B" transform="matrix(1.00, 0.00, -0.00, -1.00, 213.0, 478.5)">u</text><text xml:space="preserve" font-family="AmericanTypewriter,American Typewriter" font-size="70.0" fill="#6E5F3B" transform="matrix(1.00, 0.00, -0.00, -1.00, 257.0, 478.5)">t</text><text xml:space="preserve" font-family="AmericanTypewriter,American Typewriter" font-size="70.0" fill="#6E5F3B" transform="matrix(1.00, 0.00, -0.00, -1.00, 285.7, 478.5)"> </text><text xml:space="preserve" font-family="AmericanTypewriter,American Typewriter" font-size="70.0" fill="#6E5F3B" transform="matrix(1.00, 0.00, -0.00, -1.00, 303.9, 478.5)">i</text><text xml:space="preserve" font-family="AmericanTypewriter,American Typewriter" font-size="70.0" fill="#6E5F3B" transform="matrix(1.00, 0.00, -0.00, -1.00, 326.3, 478.5)">t</text><text xml:space="preserve" font-family="AmericanTypewriter,American Typewriter" font-size="70.0" fill="#6E5F3B" transform="matrix(1.00, 0.00, -0.00, -1.00, 355.0, 478.5)"> </text><text xml:space="preserve" font-family="AmericanTypewriter,American Typewriter" font-size="70.0" fill="#6E5F3B" transform="matrix(1.00, 0.00, -0.00, -1.00, 373.2, 478.5)">i</text><text xml:space="preserve" font-family="AmericanTypewriter,American Typewriter" font-size="70.0" fill="#6E5F3B" transform="matrix(1.00, 0.00, -0.00, -1.00, 395.6, 478.5)">s</text><text xml:space="preserve" font-family="AmericanTypewriter,American Typewriter" font-size="70.0" fill="#6E5F3B" transform="matrix(1.00, 0.00, -0.00, -1.00, 430.8, 478.5)"> </text><text xml:space="preserve" font-family="AmericanTypewriter,American Typewriter" font-size="70.0" fill="#6E5F3B" transform="matrix(1.00, 0.00, -0.00, -1.00, 449.0, 478.5)">u</text><text xml:space="preserve" font-family="AmericanTypewriter,American Typewriter" font-size="70.0" fill="#6E5F3B" transform="matrix(1.00, 0.00, -0.00, -1.00, 493.0, 478.5)">s</text><text xml:space="preserve" font-family="AmericanTypewriter,American Typewriter" font-size="70.0" fill="#6E5F3B" transform="matrix(1.00, 0.00, -0.00, -1.00, 528.1, 478.5)">u</text><text xml:space="preserve" font-family="AmericanTypewriter,American Typewriter" font-size="70.0" fill="#6E5F3B" transform="matrix(1.00, 0.00, -0.00, -1.00, 572.2, 478.5)">a</text><text xml:space="preserve" font-family="AmericanTypewriter,American Typewriter" font-size="70.0" fill="#6E5F3B" transform="matrix(1.00, 0.00, -0.00, -1.00, 612.4, 478.5)">l</text><text xml:space="preserve" font-family="AmericanTypewriter,American Typewriter" font-size="70.0" fill="#6E5F3B" transform="matrix(1.00, 0.00, -0.00, -1.00, 634.7, 478.5)">l</text><text xml:space="preserve" font-family="AmericanTypewriter,American Typewriter" font-size="70.0" fill="#6E5F3B" transform="matrix(1.00, 0.00, -0.00, -1.00, 655.5, 478.5)">y</text><text xml:space="preserve" font-family="AmericanTypewriter,American Typewriter" font-size="70.0" fill="#6E5F3B" transform="matrix(1.00, 0.00, -0.00, -1.00, 698.2, 478.5)"> </text><text xml:space="preserve" font-family="AmericanTypewriter,American Typewriter" font-size="70.0" fill="#6E5F3B" transform="matrix(1.00, 0.00, -0.00, -1.00, 716.4, 478.5)">o</text><text xml:space="preserve" font-family="AmericanTypewriter,American Typewriter" font-size="70.0" fill="#6E5F3B" transform="matrix(1.00, 0.00, -0.00, -1.00, 755.4, 478.5)">f</text><text xml:space="preserve" font-family="AmericanTypewriter,American Typewriter" font-size="70.0" fill="#6E5F3B" transform="matrix(1.00, 0.00, -0.00, -1.00, 780.3, 478.5)"> </text><text xml:space="preserve" font-family="AmericanTypewriter,American Typewriter" font-size="70.0" fill="#6E5F3B" transform="matrix(1.00, 0.00, -0.00, -1.00, 798.5, 478.5)">t</text><text xml:space="preserve" font-family="AmericanTypewriter,American Typewriter" font-size="70.0" fill="#6E5F3B" transform="matrix(1.00, 0.00, -0.00, -1.00, 827.2, 478.5)">h</text><text xml:space="preserve" font-family="AmericanTypewriter,American Typewriter" font-size="70.0" fill="#6E5F3B" transform="matrix(1.00, 0.00, -0.00, -1.00, 872.5, 478.5)">e</text><text xml:space="preserve" font-family="AmericanTypewriter,American Typewriter" font-size="70.0" fill="#6E5F3B" transform="matrix(1.00, 0.00, -0.00, -1.00, 910.1, 478.5)"> </text><text xml:space="preserve" font-family="AmericanTypewriter,American Typewriter" font-size="70.0" fill="#6E5F3B" transform="matrix(1.00, 0.00, -0.00, -1.00, 248.6, 397.5)">o</text><text xml:space="preserve" font-family="AmericanTypewriter,American Typewriter" font-size="70.0" fill="#6E5F3B" transform="matrix(1.00, 0.00, -0.00, -1.00, 287.6, 397.5)">r</text><text xml:space="preserve" font-family="AmericanTypewriter,American Typewriter" font-size="70.0" fill="#6E5F3B" transform="matrix(1.00, 0.00, -0.00, -1.00, 322.6, 397.5)">d</text><text xml:space="preserve" font-family="AmericanTypewriter,American Typewriter" font-size="70.0" fill="#6E5F3B" transform="matrix(1.00, 0.00, -0.00, -1.00, 365.3, 397.5)">e</text><text xml:space="preserve" font-family="AmericanTypewriter,American Typewriter" font-size="70.0" fill="#6E5F3B" transform="matrix(1.00, 0.00, -0.00, -1.00, 403.0, 397.5)">r</text><text xml:space="preserve" font-family="AmericanTypewriter,American Typewriter" font-size="70.0" fill="#6E5F3B" transform="matrix(1.00, 0.00, -0.00, -1.00, 438.1, 397.5)"> </text><text xml:space="preserve" font-family="AmericanTypewriter,American Typewriter" font-size="70.0" fill="#6E5F3B" transform="matrix(1.00, 0.00, -0.00, -1.00, 456.3, 397.5)">o</text><text xml:space="preserve" font-family="AmericanTypewriter,American Typewriter" font-size="70.0" fill="#6E5F3B" transform="matrix(1.00, 0.00, -0.00, -1.00, 495.2, 397.5)">f</text><text xml:space="preserve" font-family="AmericanTypewriter,American Typewriter" font-size="70.0" fill="#6E5F3B" transform="matrix(1.00, 0.00, -0.00, -1.00, 520.1, 397.5)"> </text><text xml:space="preserve" font-family="AmericanTypewriter,American Typewriter" font-size="70.0" fill="#6E5F3B" transform="matrix(1.00, 0.00, -0.00, -1.00, 538.3, 397.5)">$</text><text xml:space="preserve" font-family="AmericanTypewriter,American Typewriter" font-size="70.0" fill="#6E5F3B" transform="matrix(1.00, 0.00, -0.00, -1.00, 583.6, 397.5)">1</text><text xml:space="preserve" font-family="AmericanTypewriter,American Typewriter" font-size="70.0" fill="#6E5F3B" transform="matrix(1.00, 0.00, -0.00, -1.00, 623.1, 397.5)">0</text><text xml:space="preserve" font-family="AmericanTypewriter,American Typewriter" font-size="70.0" fill="#6E5F3B" transform="matrix(1.00, 0.00, -0.00, -1.00, 668.4, 397.5)">-</text><text xml:space="preserve" font-family="AmericanTypewriter,American Typewriter" font-size="70.0" fill="#6E5F3B" transform="matrix(1.00, 0.00, -0.00, -1.00, 690.8, 397.5)">2</text><text xml:space="preserve" font-family="AmericanTypewriter,American Typewriter" font-size="70.0" fill="#6E5F3B" transform="matrix(1.00, 0.00, -0.00, -1.00, 736.0, 397.5)">0</text><text xml:space="preserve" font-family="AmericanTypewriter,American Typewriter" font-size="70.0" fill="#6E5F3B" transform="matrix(1.00, 0.00, -0.00, -1.00, 781.3, 397.5)">k</text><text xml:space="preserve" font-family="LucidaGrande,Lucida Grande" font-size="70.0" fill="#6E5F3B" transform="matrix(1.00, 0.00, -0.00, -1.00, 825.4, 397.5)"> </text><text xml:space="preserve" font-family="AmericanTypewriter,American Typewriter" font-size="41.0" fill="#6E5F3B" transform="matrix(1.00, 0.00, -0.00, -1.00, 198.1, 343.2)">(</text><text xml:space="preserve" font-family="AmericanTypewriter,American Typewriter" font-size="41.0" fill="#6E5F3B" transform="matrix(1.00, 0.00, -0.00, -1.00, 217.2, 343.2)">l</text><text xml:space="preserve" font-family="AmericanTypewriter,American Typewriter" font-size="41.0" fill="#6E5F3B" transform="matrix(1.00, 0.00, -0.00, -1.00, 230.3, 343.2)">e</text><text xml:space="preserve" font-family="AmericanTypewriter,American Typewriter" font-size="41.0" fill="#6E5F3B" transform="matrix(1.00, 0.00, -0.00, -1.00, 252.3, 343.2)">s</text><text xml:space="preserve" font-family="AmericanTypewriter,American Typewriter" font-size="41.0" fill="#6E5F3B" transform="matrix(1.00, 0.00, -0.00, -1.00, 272.9, 343.2)">s</text><text xml:space="preserve" font-family="AmericanTypewriter,American Typewriter" font-size="41.0" fill="#6E5F3B" transform="matrix(1.00, 0.00, -0.00, -1.00, 293.5, 343.2)"> </text><text xml:space="preserve" font-family="AmericanTypewriter,American Typewriter" font-size="41.0" fill="#6E5F3B" transform="matrix(1.00, 0.00, -0.00, -1.00, 304.2, 343.2)">f</text><text xml:space="preserve" font-family="AmericanTypewriter,American Typewriter" font-size="41.0" fill="#6E5F3B" transform="matrix(1.00, 0.00, -0.00, -1.00, 317.8, 343.2)">o</text><text xml:space="preserve" font-family="AmericanTypewriter,American Typewriter" font-size="41.0" fill="#6E5F3B" transform="matrix(1.00, 0.00, -0.00, -1.00, 340.6, 343.2)">r</text><text xml:space="preserve" font-family="AmericanTypewriter,American Typewriter" font-size="41.0" fill="#6E5F3B" transform="matrix(1.00, 0.00, -0.00, -1.00, 361.2, 343.2)"> </text><text xml:space="preserve" font-family="AmericanTypewriter,American Typewriter" font-size="41.0" fill="#6E5F3B" transform="matrix(1.00, 0.00, -0.00, -1.00, 371.8, 343.2)">c</text><text xml:space="preserve" font-family="AmericanTypewriter,American Typewriter" font-size="41.0" fill="#6E5F3B" transform="matrix(1.00, 0.00, -0.00, -1.00, 392.6, 343.2)">h</text><text xml:space="preserve" font-family="AmericanTypewriter,American Typewriter" font-size="41.0" fill="#6E5F3B" transform="matrix(1.00, 0.00, -0.00, -1.00, 419.1, 343.2)">a</text><text xml:space="preserve" font-family="AmericanTypewriter,American Typewriter" font-size="41.0" fill="#6E5F3B" transform="matrix(1.00, 0.00, -0.00, -1.00, 442.7, 343.2)">p</text><text xml:space="preserve" font-family="AmericanTypewriter,American Typewriter" font-size="41.0" fill="#6E5F3B" transform="matrix(1.00, 0.00, -0.00, -1.00, 467.7, 343.2)">t</text><text xml:space="preserve" font-family="AmericanTypewriter,American Typewriter" font-size="41.0" fill="#6E5F3B" transform="matrix(1.00, 0.00, -0.00, -1.00, 484.5, 343.2)">e</text><text xml:space="preserve" font-family="AmericanTypewriter,American Typewriter" font-size="41.0" fill="#6E5F3B" transform="matrix(1.00, 0.00, -0.00, -1.00, 506.5, 343.2)">r</text><text xml:space="preserve" font-family="AmericanTypewriter,American Typewriter" font-size="41.0" fill="#6E5F3B" transform="matrix(1.00, 0.00, -0.00, -1.00, 527.1, 343.2)">s</text><text xml:space="preserve" font-family="AmericanTypewriter,American Typewriter" font-size="41.0" fill="#6E5F3B" transform="matrix(1.00, 0.00, -0.00, -1.00, 547.7, 343.2)">,</text><text xml:space="preserve" font-family="AmericanTypewriter,American Typewriter" font-size="41.0" fill="#6E5F3B" transform="matrix(1.00, 0.00, -0.00, -1.00, 559.3, 343.2)"> </text><text xml:space="preserve" font-family="AmericanTypewriter,American Typewriter" font-size="41.0" fill="#6E5F3B" transform="matrix(1.00, 0.00, -0.00, -1.00, 569.9, 343.2)">l</text><text xml:space="preserve" font-family="AmericanTypewriter,American Typewriter" font-size="41.0" fill="#6E5F3B" transform="matrix(1.00, 0.00, -0.00, -1.00, 583.0, 343.2)">e</text><text xml:space="preserve" font-family="AmericanTypewriter,American Typewriter" font-size="41.0" fill="#6E5F3B" transform="matrix(1.00, 0.00, -0.00, -1.00, 605.1, 343.2)">s</text><text xml:space="preserve" font-family="AmericanTypewriter,American Typewriter" font-size="41.0" fill="#6E5F3B" transform="matrix(1.00, 0.00, -0.00, -1.00, 625.6, 343.2)">s</text><text xml:space="preserve" font-family="AmericanTypewriter,American Typewriter" font-size="41.0" fill="#6E5F3B" transform="matrix(1.00, 0.00, -0.00, -1.00, 646.2, 343.2)"> </text><text xml:space="preserve" font-family="AmericanTypewriter,American Typewriter" font-size="41.0" fill="#6E5F3B" transform="matrix(1.00, 0.00, -0.00, -1.00, 656.9, 343.2)">f</text><text xml:space="preserve" font-family="AmericanTypewriter,American Typewriter" font-size="41.0" fill="#6E5F3B" transform="matrix(1.00, 0.00, -0.00, -1.00, 670.5, 343.2)">o</text><text xml:space="preserve" font-family="AmericanTypewriter,American Typewriter" font-size="41.0" fill="#6E5F3B" transform="matrix(1.00, 0.00, -0.00, -1.00, 693.3, 343.2)">r</text><text xml:space="preserve" font-family="AmericanTypewriter,American Typewriter" font-size="41.0" fill="#6E5F3B" transform="matrix(1.00, 0.00, -0.00, -1.00, 713.9, 343.2)"> </text><text xml:space="preserve" font-family="AmericanTypewriter,American Typewriter" font-size="41.0" fill="#6E5F3B" transform="matrix(1.00, 0.00, -0.00, -1.00, 724.5, 343.2)">s</text><text xml:space="preserve" font-family="AmericanTypewriter,American Typewriter" font-size="41.0" fill="#6E5F3B" transform="matrix(1.00, 0.00, -0.00, -1.00, 745.1, 343.2)">m</text><text xml:space="preserve" font-family="AmericanTypewriter,American Typewriter" font-size="41.0" fill="#6E5F3B" transform="matrix(1.00, 0.00, -0.00, -1.00, 783.6, 343.2)">a</text><text xml:space="preserve" font-family="AmericanTypewriter,American Typewriter" font-size="41.0" fill="#6E5F3B" transform="matrix(1.00, 0.00, -0.00, -1.00, 807.1, 343.2)">l</text><text xml:space="preserve" font-family="AmericanTypewriter,American Typewriter" font-size="41.0" fill="#6E5F3B" transform="matrix(1.00, 0.00, -0.00, -1.00, 820.2, 343.2)">l</text><text xml:space="preserve" font-family="AmericanTypewriter,American Typewriter" font-size="41.0" fill="#6E5F3B" transform="matrix(1.00, 0.00, -0.00, -1.00, 833.3, 343.2)">e</text><text xml:space="preserve" font-family="AmericanTypewriter,American Typewriter" font-size="41.0" fill="#6E5F3B" transform="matrix(1.00, 0.00, -0.00, -1.00, 855.3, 343.2)">r</text><text xml:space="preserve" font-family="AmericanTypewriter,American Typewriter" font-size="41.0" fill="#6E5F3B" transform="matrix(1.00, 0.00, -0.00, -1.00, 875.9, 343.2)"> </text><text xml:space="preserve" font-family="AmericanTypewriter,American Typewriter" font-size="41.0" fill="#6E5F3B" transform="matrix(1.00, 0.00, -0.00, -1.00, 245.8, 296.2)">b</text><text xml:space="preserve" font-family="AmericanTypewriter,American Typewriter" font-size="41.0" fill="#6E5F3B" transform="matrix(1.00, 0.00, -0.00, -1.00, 269.4, 296.2)">o</text><text xml:space="preserve" font-family="AmericanTypewriter,American Typewriter" font-size="41.0" fill="#6E5F3B" transform="matrix(1.00, 0.00, -0.00, -1.00, 292.2, 296.2)">o</text><text xml:space="preserve" font-family="AmericanTypewriter,American Typewriter" font-size="41.0" fill="#6E5F3B" transform="matrix(1.00, 0.00, -0.00, -1.00, 315.0, 296.2)">k</text><text xml:space="preserve" font-family="AmericanTypewriter,American Typewriter" font-size="41.0" fill="#6E5F3B" transform="matrix(1.00, 0.00, -0.00, -1.00, 341.3, 296.2)">s</text><text xml:space="preserve" font-family="AmericanTypewriter,American Typewriter" font-size="41.0" fill="#6E5F3B" transform="matrix(1.00, 0.00, -0.00, -1.00, 361.9, 296.2)">,</text><text xml:space="preserve" font-family="AmericanTypewriter,American Typewriter" font-size="41.0" fill="#6E5F3B" transform="matrix(1.00, 0.00, -0.00, -1.00, 373.5, 296.2)"> </text><text xml:space="preserve" font-family="AmericanTypewriter,American Typewriter" font-size="41.0" fill="#6E5F3B" transform="matrix(1.00, 0.00, -0.00, -1.00, 384.1, 296.2)">l</text><text xml:space="preserve" font-family="AmericanTypewriter,American Typewriter" font-size="41.0" fill="#6E5F3B" transform="matrix(1.00, 0.00, -0.00, -1.00, 397.2, 296.2)">e</text><text xml:space="preserve" font-family="AmericanTypewriter,American Typewriter" font-size="41.0" fill="#6E5F3B" transform="matrix(1.00, 0.00, -0.00, -1.00, 419.3, 296.2)">s</text><text xml:space="preserve" font-family="AmericanTypewriter,American Typewriter" font-size="41.0" fill="#6E5F3B" transform="matrix(1.00, 0.00, -0.00, -1.00, 439.9, 296.2)">s</text><text xml:space="preserve" font-family="AmericanTypewriter,American Typewriter" font-size="41.0" fill="#6E5F3B" transform="matrix(1.00, 0.00, -0.00, -1.00, 460.4, 296.2)"> </text><text xml:space="preserve" font-family="AmericanTypewriter,American Typewriter" font-size="41.0" fill="#6E5F3B" transform="matrix(1.00, 0.00, -0.00, -1.00, 471.1, 296.2)">f</text><text xml:space="preserve" font-family="AmericanTypewriter,American Typewriter" font-size="41.0" fill="#6E5F3B" transform="matrix(1.00, 0.00, -0.00, -1.00, 484.7, 296.2)">o</text><text xml:space="preserve" font-family="AmericanTypewriter,American Typewriter" font-size="41.0" fill="#6E5F3B" transform="matrix(1.00, 0.00, -0.00, -1.00, 507.5, 296.2)">r</text><text xml:space="preserve" font-family="AmericanTypewriter,American Typewriter" font-size="41.0" fill="#6E5F3B" transform="matrix(1.00, 0.00, -0.00, -1.00, 528.1, 296.2)"> </text><text xml:space="preserve" font-family="AmericanTypewriter,American Typewriter" font-size="41.0" fill="#6E5F3B" transform="matrix(1.00, 0.00, -0.00, -1.00, 538.7, 296.2)">‘</text><text xml:space="preserve" font-family="AmericanTypewriter,American Typewriter" font-size="41.0" fill="#6E5F3B" transform="matrix(1.00, 0.00, -0.00, -1.00, 549.6, 296.2)">e</text><text xml:space="preserve" font-family="AmericanTypewriter,American Typewriter" font-size="41.0" fill="#6E5F3B" transform="matrix(1.00, 0.00, -0.00, -1.00, 571.7, 296.2)">a</text><text xml:space="preserve" font-family="AmericanTypewriter,American Typewriter" font-size="41.0" fill="#6E5F3B" transform="matrix(1.00, 0.00, -0.00, -1.00, 595.2, 296.2)">s</text><text xml:space="preserve" font-family="AmericanTypewriter,American Typewriter" font-size="41.0" fill="#6E5F3B" transform="matrix(1.00, 0.00, -0.00, -1.00, 615.8, 296.2)">i</text><text xml:space="preserve" font-family="AmericanTypewriter,American Typewriter" font-size="41.0" fill="#6E5F3B" transform="matrix(1.00, 0.00, -0.00, -1.00, 628.9, 296.2)">e</text><text xml:space="preserve" font-family="AmericanTypewriter,American Typewriter" font-size="41.0" fill="#6E5F3B" transform="matrix(1.00, 0.00, -0.00, -1.00, 651.0, 296.2)">r</text><text xml:space="preserve" font-family="AmericanTypewriter,American Typewriter" font-size="41.0" fill="#6E5F3B" transform="matrix(1.00, 0.00, -0.00, -1.00, 671.5, 296.2)">’</text><text xml:space="preserve" font-family="AmericanTypewriter,American Typewriter" font-size="41.0" fill="#6E5F3B" transform="matrix(1.00, 0.00, -0.00, -1.00, 682.4, 296.2)"> </text><text xml:space="preserve" font-family="AmericanTypewriter,American Typewriter" font-size="41.0" fill="#6E5F3B" transform="matrix(1.00, 0.00, -0.00, -1.00, 693.1, 296.2)">b</text><text xml:space="preserve" font-family="AmericanTypewriter,American Typewriter" font-size="41.0" fill="#6E5F3B" transform="matrix(1.00, 0.00, -0.00, -1.00, 716.6, 296.2)">o</text><text xml:space="preserve" font-family="AmericanTypewriter,American Typewriter" font-size="41.0" fill="#6E5F3B" transform="matrix(1.00, 0.00, -0.00, -1.00, 739.4, 296.2)">o</text><text xml:space="preserve" font-family="AmericanTypewriter,American Typewriter" font-size="41.0" fill="#6E5F3B" transform="matrix(1.00, 0.00, -0.00, -1.00, 762.2, 296.2)">k</text><text xml:space="preserve" font-family="AmericanTypewriter,American Typewriter" font-size="41.0" fill="#6E5F3B" transform="matrix(1.00, 0.00, -0.00, -1.00, 788.5, 296.2)">s</text><text xml:space="preserve" font-family="AmericanTypewriter,American Typewriter" font-size="41.0" fill="#6E5F3B" transform="matrix(1.00, 0.00, -0.00, -1.00, 809.1, 296.2)">)</text></g></svg>