<?xml version="1.0" encoding="UTF-8" standalone="no"?><svg xmlns="http://www.w3.org/2000/svg" xmlns:xlink="http://www.w3.org/1999/xlink" clip-rule="evenodd" stroke-miterlimit="10" viewBox="0 0 1024 768"><desc>SVG generated by Keynote</desc><defs></defs><g transform="matrix(1.00, 0.00, -0.00, -1.00, 0.0, 768.0)"><g><clipPath id="clip0x6080012bbd80"><path d="M 0.0 768.0 L 1024.0 768.0 L 1024.0 0.0 L 0.0 0.0 Z M 0.0 768.0 "></path></clipPath><g clip-path="url(#clip0x6080012bbd80)"><image xlink:href="../../45DA958D-0BF7-418D-8F04-7EBED7B3F604/assets/7DDA4CC5426700CA34754E241DBFD959.jpeg" width="2048.00" height="1536.00" transform="matrix(0.50, 0.00, -0.00, -0.50, 0.0, 768.0)"></image></g></g><text xml:space="preserve" font-family="AmericanTypewriter,American Typewriter" font-size="70.0" fill="#6E5F3B" transform="matrix(1.00, 0.00, -0.00, -1.00, 187.9, 401.5)">W</text><text xml:space="preserve" font-family="AmericanTypewriter,American Typewriter" font-size="70.0" fill="#6E5F3B" transform="matrix(1.00, 0.00, -0.00, -1.00, 253.6, 401.5)">h</text><text xml:space="preserve" font-family="AmericanTypewriter,American Typewriter" font-size="70.0" fill="#6E5F3B" transform="matrix(1.00, 0.00, -0.00, -1.00, 298.9, 401.5)">a</text><text xml:space="preserve" font-family="AmericanTypewriter,American Typewriter" font-size="70.0" fill="#6E5F3B" transform="matrix(1.00, 0.00, -0.00, -1.00, 339.1, 401.5)">t</text><text xml:space="preserve" font-family="AmericanTypewriter,American Typewriter" font-size="70.0" fill="#6E5F3B" transform="matrix(1.00, 0.00, -0.00, -1.00, 367.8, 401.5)">’</text><text xml:space="preserve" font-family="AmericanTypewriter,American Typewriter" font-size="70.0" fill="#6E5F3B" transform="matrix(1.00, 0.00, -0.00, -1.00, 386.4, 401.5)">s</text><text xml:space="preserve" font-family="AmericanTypewriter,American Typewriter" font-size="70.0" fill="#6E5F3B" transform="matrix(1.00, 0.00, -0.00, -1.00, 421.5, 401.5)"> </text><text xml:space="preserve" font-family="AmericanTypewriter,American Typewriter" font-size="70.0" fill="#6E5F3B" transform="matrix(1.00, 0.00, -0.00, -1.00, 439.7, 401.5)">h</text><text xml:space="preserve" font-family="AmericanTypewriter,American Typewriter" font-size="70.0" fill="#6E5F3B" transform="matrix(1.00, 0.00, -0.00, -1.00, 485.0, 401.5)">a</text><text xml:space="preserve" font-family="AmericanTypewriter,American Typewriter" font-size="70.0" fill="#6E5F3B" transform="matrix(1.00, 0.00, -0.00, -1.00, 525.2, 401.5)">p</text><text xml:space="preserve" font-family="AmericanTypewriter,American Typewriter" font-size="70.0" fill="#6E5F3B" transform="matrix(1.00, 0.00, -0.00, -1.00, 567.9, 401.5)">p</text><text xml:space="preserve" font-family="AmericanTypewriter,American Typewriter" font-size="70.0" fill="#6E5F3B" transform="matrix(1.00, 0.00, -0.00, -1.00, 610.6, 401.5)">e</text><text xml:space="preserve" font-family="AmericanTypewriter,American Typewriter" font-size="70.0" fill="#6E5F3B" transform="matrix(1.00, 0.00, -0.00, -1.00, 648.3, 401.5)">n</text><text xml:space="preserve" font-family="AmericanTypewriter,American Typewriter" font-size="70.0" fill="#6E5F3B" transform="matrix(1.00, 0.00, -0.00, -1.00, 693.6, 401.5)">i</text><text xml:space="preserve" font-family="AmericanTypewriter,American Typewriter" font-size="70.0" fill="#6E5F3B" transform="matrix(1.00, 0.00, -0.00, -1.00, 716.0, 401.5)">n</text><text xml:space="preserve" font-family="AmericanTypewriter,American Typewriter" font-size="70.0" fill="#6E5F3B" transform="matrix(1.00, 0.00, -0.00, -1.00, 761.2, 401.5)">g</text><text xml:space="preserve" font-family="AmericanTypewriter,American Typewriter" font-size="70.0" fill="#6E5F3B" transform="matrix(1.00, 0.00, -0.00, -1.00, 800.2, 401.5)"> </text><text xml:space="preserve" font-family="AmericanTypewriter,American Typewriter" font-size="70.0" fill="#6E5F3B" transform="matrix(1.00, 0.00, -0.00, -1.00, 818.4, 401.5)">i</text><text xml:space="preserve" font-family="AmericanTypewriter,American Typewriter" font-size="70.0" fill="#6E5F3B" transform="matrix(1.00, 0.00, -0.00, -1.00, 840.8, 401.5)">n</text><text xml:space="preserve" font-family="AmericanTypewriter,American Typewriter" font-size="70.0" fill="#6E5F3B" transform="matrix(1.00, 0.00, -0.00, -1.00, 886.1, 401.5)"> </text><text xml:space="preserve" font-family="AmericanTypewriter,American Typewriter" font-size="70.0" fill="#6E5F3B" transform="matrix(1.00, 0.00, -0.00, -1.00, 420.3, 320.5)">Q</text><text xml:space="preserve" font-family="AmericanTypewriter,American Typewriter" font-size="70.0" fill="#6E5F3B" transform="matrix(1.00, 0.00, -0.00, -1.00, 466.9, 320.5)">a</text><text xml:space="preserve" font-family="AmericanTypewriter,American Typewriter" font-size="70.0" fill="#6E5F3B" transform="matrix(1.00, 0.00, -0.00, -1.00, 507.0, 320.5)">t</text><text xml:space="preserve" font-family="AmericanTypewriter,American Typewriter" font-size="70.0" fill="#6E5F3B" transform="matrix(1.00, 0.00, -0.00, -1.00, 535.7, 320.5)">a</text><text xml:space="preserve" font-family="AmericanTypewriter,American Typewriter" font-size="70.0" fill="#6E5F3B" transform="matrix(1.00, 0.00, -0.00, -1.00, 575.9, 320.5)">r</text><text xml:space="preserve" font-family="AmericanTypewriter,American Typewriter" font-size="70.0" fill="#6E5F3B" transform="matrix(1.00, 0.00, -0.00, -1.00, 611.0, 320.5)">?</text></g></svg>