<?xml version="1.0" encoding="UTF-8" standalone="no"?><svg xmlns="http://www.w3.org/2000/svg" xmlns:xlink="http://www.w3.org/1999/xlink" clip-rule="evenodd" stroke-miterlimit="10" viewBox="0 0 1024 768"><desc>SVG generated by Keynote</desc><defs></defs><g transform="matrix(1.00, 0.00, -0.00, -1.00, 0.0, 768.0)"><g><clipPath id="clip0x600000cb18e0"><path d="M 0.0 768.0 L 1024.0 768.0 L 1024.0 0.0 L 0.0 0.0 Z M 0.0 768.0 "></path></clipPath><g clip-path="url(#clip0x600000cb18e0)"><image xlink:href="../../45DA958D-0BF7-418D-8F04-7EBED7B3F604/assets/7DDA4CC5426700CA34754E241DBFD959.jpeg" width="2048.00" height="1536.00" transform="matrix(0.50, 0.00, -0.00, -0.50, 0.0, 768.0)"></image></g></g><text xml:space="preserve" font-family="AmericanTypewriter,American Typewriter" font-size="70.0" fill="#6E5F3B" transform="matrix(1.00, 0.00, -0.00, -1.00, 146.9, 361.5)">F</text><text xml:space="preserve" font-family="AmericanTypewriter,American Typewriter" font-size="70.0" fill="#6E5F3B" transform="matrix(1.00, 0.00, -0.00, -1.00, 190.9, 361.5)">I</text><text xml:space="preserve" font-family="AmericanTypewriter,American Typewriter" font-size="70.0" fill="#6E5F3B" transform="matrix(1.00, 0.00, -0.00, -1.00, 218.3, 361.5)">N</text><text xml:space="preserve" font-family="AmericanTypewriter,American Typewriter" font-size="70.0" fill="#6E5F3B" transform="matrix(1.00, 0.00, -0.00, -1.00, 270.9, 361.5)">A</text><text xml:space="preserve" font-family="AmericanTypewriter,American Typewriter" font-size="70.0" fill="#6E5F3B" transform="matrix(1.00, 0.00, -0.00, -1.00, 323.8, 361.5)">N</text><text xml:space="preserve" font-family="AmericanTypewriter,American Typewriter" font-size="70.0" fill="#6E5F3B" transform="matrix(1.00, 0.00, -0.00, -1.00, 376.0, 361.5)">C</text><text xml:space="preserve" font-family="AmericanTypewriter,American Typewriter" font-size="70.0" fill="#6E5F3B" transform="matrix(1.00, 0.00, -0.00, -1.00, 421.3, 361.5)">I</text><text xml:space="preserve" font-family="AmericanTypewriter,American Typewriter" font-size="70.0" fill="#6E5F3B" transform="matrix(1.00, 0.00, -0.00, -1.00, 448.8, 361.5)">N</text><text xml:space="preserve" font-family="AmericanTypewriter,American Typewriter" font-size="70.0" fill="#6E5F3B" transform="matrix(1.00, 0.00, -0.00, -1.00, 501.1, 361.5)">G</text><text xml:space="preserve" font-family="AmericanTypewriter,American Typewriter" font-size="70.0" fill="#6E5F3B" transform="matrix(1.00, 0.00, -0.00, -1.00, 551.5, 361.5)"> </text><text xml:space="preserve" font-family="AmericanTypewriter,American Typewriter" font-size="70.0" fill="#6E5F3B" transform="matrix(1.00, 0.00, -0.00, -1.00, 569.7, 361.5)">O</text><text xml:space="preserve" font-family="AmericanTypewriter,American Typewriter" font-size="70.0" fill="#6E5F3B" transform="matrix(1.00, 0.00, -0.00, -1.00, 614.2, 361.5)">A</text><text xml:space="preserve" font-family="AmericanTypewriter,American Typewriter" font-size="70.0" fill="#6E5F3B" transform="matrix(1.00, 0.00, -0.00, -1.00, 667.2, 361.5)"> </text><text xml:space="preserve" font-family="AmericanTypewriter,American Typewriter" font-size="70.0" fill="#6E5F3B" transform="matrix(1.00, 0.00, -0.00, -1.00, 685.4, 361.5)">B</text><text xml:space="preserve" font-family="AmericanTypewriter,American Typewriter" font-size="70.0" fill="#6E5F3B" transform="matrix(1.00, 0.00, -0.00, -1.00, 734.5, 361.5)">O</text><text xml:space="preserve" font-family="AmericanTypewriter,American Typewriter" font-size="70.0" fill="#6E5F3B" transform="matrix(1.00, 0.00, -0.00, -1.00, 781.1, 361.5)">O</text><text xml:space="preserve" font-family="AmericanTypewriter,American Typewriter" font-size="70.0" fill="#6E5F3B" transform="matrix(1.00, 0.00, -0.00, -1.00, 827.6, 361.5)">K</text><text xml:space="preserve" font-family="AmericanTypewriter,American Typewriter" font-size="70.0" fill="#6E5F3B" transform="matrix(1.00, 0.00, -0.00, -1.00, 883.1, 361.5)">S</text></g></svg>