<?xml version="1.0" encoding="UTF-8" standalone="no"?><svg xmlns="http://www.w3.org/2000/svg" xmlns:xlink="http://www.w3.org/1999/xlink" clip-rule="evenodd" stroke-miterlimit="10" viewBox="0 0 1024 768"><desc>SVG generated by Keynote</desc><defs></defs><g transform="matrix(1.00, 0.00, -0.00, -1.00, 0.0, 768.0)"><g><clipPath id="clip0x600000cb36e0"><path d="M 0.0 768.0 L 1024.0 768.0 L 1024.0 0.0 L 0.0 0.0 Z M 0.0 768.0 "></path></clipPath><g clip-path="url(#clip0x600000cb36e0)"><image xlink:href="../../45DA958D-0BF7-418D-8F04-7EBED7B3F604/assets/7DDA4CC5426700CA34754E241DBFD959.jpeg" width="2048.00" height="1536.00" transform="matrix(0.50, 0.00, -0.00, -0.50, 0.0, 768.0)"></image></g></g><text xml:space="preserve" font-family="AmericanTypewriter,American Typewriter" font-size="46.0" fill="#6E5F3B" transform="matrix(1.00, 0.00, -0.00, -1.00, 184.0, 687.1)">J</text><text xml:space="preserve" font-family="AmericanTypewriter,American Typewriter" font-size="46.0" fill="#6E5F3B" transform="matrix(1.00, 0.00, -0.00, -1.00, 212.9, 687.1)">o</text><text xml:space="preserve" font-family="AmericanTypewriter,American Typewriter" font-size="46.0" fill="#6E5F3B" transform="matrix(1.00, 0.00, -0.00, -1.00, 238.5, 687.1)">u</text><text xml:space="preserve" font-family="AmericanTypewriter,American Typewriter" font-size="46.0" fill="#6E5F3B" transform="matrix(1.00, 0.00, -0.00, -1.00, 267.4, 687.1)">r</text><text xml:space="preserve" font-family="AmericanTypewriter,American Typewriter" font-size="46.0" fill="#6E5F3B" transform="matrix(1.00, 0.00, -0.00, -1.00, 291.1, 687.1)">n</text><text xml:space="preserve" font-family="AmericanTypewriter,American Typewriter" font-size="46.0" fill="#6E5F3B" transform="matrix(1.00, 0.00, -0.00, -1.00, 320.9, 687.1)">a</text><text xml:space="preserve" font-family="AmericanTypewriter,American Typewriter" font-size="46.0" fill="#6E5F3B" transform="matrix(1.00, 0.00, -0.00, -1.00, 347.3, 687.1)">l</text><text xml:space="preserve" font-family="AmericanTypewriter,American Typewriter" font-size="46.0" fill="#6E5F3B" transform="matrix(1.00, 0.00, -0.00, -1.00, 361.9, 687.1)">s</text><text xml:space="preserve" font-family="AmericanTypewriter,American Typewriter" font-size="46.0" fill="#6E5F3B" transform="matrix(1.00, 0.00, -0.00, -1.00, 385.0, 687.1)"> </text><text xml:space="preserve" font-family="AmericanTypewriter,American Typewriter" font-size="46.0" fill="#6E5F3B" transform="matrix(1.00, 0.00, -0.00, -1.00, 397.0, 687.1)">C</text><text xml:space="preserve" font-family="AmericanTypewriter,American Typewriter" font-size="46.0" fill="#6E5F3B" transform="matrix(1.00, 0.00, -0.00, -1.00, 426.8, 687.1)">r</text><text xml:space="preserve" font-family="AmericanTypewriter,American Typewriter" font-size="46.0" fill="#6E5F3B" transform="matrix(1.00, 0.00, -0.00, -1.00, 449.8, 687.1)">i</text><text xml:space="preserve" font-family="AmericanTypewriter,American Typewriter" font-size="46.0" fill="#6E5F3B" transform="matrix(1.00, 0.00, -0.00, -1.00, 464.5, 687.1)">s</text><text xml:space="preserve" font-family="AmericanTypewriter,American Typewriter" font-size="46.0" fill="#6E5F3B" transform="matrix(1.00, 0.00, -0.00, -1.00, 487.6, 687.1)">i</text><text xml:space="preserve" font-family="AmericanTypewriter,American Typewriter" font-size="46.0" fill="#6E5F3B" transform="matrix(1.00, 0.00, -0.00, -1.00, 502.3, 687.1)">s</text><text xml:space="preserve" font-family="AmericanTypewriter,American Typewriter" font-size="46.0" fill="#6E5F3B" transform="matrix(1.00, 0.00, -0.00, -1.00, 525.4, 687.1)"> </text><text xml:space="preserve" font-family="AmericanTypewriter,American Typewriter" font-size="46.0" fill="#6E5F3B" transform="matrix(1.00, 0.00, -0.00, -1.00, 537.4, 687.1)">v</text><text xml:space="preserve" font-family="AmericanTypewriter,American Typewriter" font-size="46.0" fill="#6E5F3B" transform="matrix(1.00, 0.00, -0.00, -1.00, 565.5, 687.1)">s</text><text xml:space="preserve" font-family="AmericanTypewriter,American Typewriter" font-size="46.0" fill="#6E5F3B" transform="matrix(1.00, 0.00, -0.00, -1.00, 588.6, 687.1)">.</text><text xml:space="preserve" font-family="AmericanTypewriter,American Typewriter" font-size="46.0" fill="#6E5F3B" transform="matrix(1.00, 0.00, -0.00, -1.00, 601.6, 687.1)"> </text><text xml:space="preserve" font-family="AmericanTypewriter,American Typewriter" font-size="46.0" fill="#6E5F3B" transform="matrix(1.00, 0.00, -0.00, -1.00, 613.6, 687.1)">B</text><text xml:space="preserve" font-family="AmericanTypewriter,American Typewriter" font-size="46.0" fill="#6E5F3B" transform="matrix(1.00, 0.00, -0.00, -1.00, 645.9, 687.1)">o</text><text xml:space="preserve" font-family="AmericanTypewriter,American Typewriter" font-size="46.0" fill="#6E5F3B" transform="matrix(1.00, 0.00, -0.00, -1.00, 671.4, 687.1)">o</text><text xml:space="preserve" font-family="AmericanTypewriter,American Typewriter" font-size="46.0" fill="#6E5F3B" transform="matrix(1.00, 0.00, -0.00, -1.00, 697.0, 687.1)">k</text><text xml:space="preserve" font-family="AmericanTypewriter,American Typewriter" font-size="46.0" fill="#6E5F3B" transform="matrix(1.00, 0.00, -0.00, -1.00, 726.5, 687.1)">s</text><text xml:space="preserve" font-family="AmericanTypewriter,American Typewriter" font-size="46.0" fill="#6E5F3B" transform="matrix(1.00, 0.00, -0.00, -1.00, 749.6, 687.1)"> </text><text xml:space="preserve" font-family="AmericanTypewriter,American Typewriter" font-size="46.0" fill="#6E5F3B" transform="matrix(1.00, 0.00, -0.00, -1.00, 761.6, 687.1)">C</text><text xml:space="preserve" font-family="AmericanTypewriter,American Typewriter" font-size="46.0" fill="#6E5F3B" transform="matrix(1.00, 0.00, -0.00, -1.00, 791.4, 687.1)">r</text><text xml:space="preserve" font-family="AmericanTypewriter,American Typewriter" font-size="46.0" fill="#6E5F3B" transform="matrix(1.00, 0.00, -0.00, -1.00, 814.4, 687.1)">i</text><text xml:space="preserve" font-family="AmericanTypewriter,American Typewriter" font-size="46.0" fill="#6E5F3B" transform="matrix(1.00, 0.00, -0.00, -1.00, 829.1, 687.1)">s</text><text xml:space="preserve" font-family="AmericanTypewriter,American Typewriter" font-size="46.0" fill="#6E5F3B" transform="matrix(1.00, 0.00, -0.00, -1.00, 852.2, 687.1)">i</text><text xml:space="preserve" font-family="AmericanTypewriter,American Typewriter" font-size="46.0" fill="#6E5F3B" transform="matrix(1.00, 0.00, -0.00, -1.00, 866.9, 687.1)">s</text><image xlink:href="../../54E9F1C8-BA8B-494C-8E62-02214B1657B2/assets/E3D5BBAA0BCFF86FEB1A235A0E0AB357.png" width="935.00" height="711.00" transform="matrix(0.78, 0.00, -0.00, -0.78, 173.0, 629.0)"></image></g></svg>