<?xml version="1.0" encoding="UTF-8" standalone="no"?><svg xmlns="http://www.w3.org/2000/svg" xmlns:xlink="http://www.w3.org/1999/xlink" clip-rule="evenodd" stroke-miterlimit="10" viewBox="0 0 1024 768"><desc>SVG generated by Keynote</desc><defs></defs><g transform="matrix(1.00, 0.00, -0.00, -1.00, 0.0, 768.0)"><g><clipPath id="clip0x600000eb67a0"><path d="M 0.0 768.0 L 1024.0 768.0 L 1024.0 0.0 L 0.0 0.0 Z M 0.0 768.0 "></path></clipPath><g clip-path="url(#clip0x600000eb67a0)"><image xlink:href="../../45DA958D-0BF7-418D-8F04-7EBED7B3F604/assets/7DDA4CC5426700CA34754E241DBFD959.jpeg" width="2048.00" height="1536.00" transform="matrix(0.50, 0.00, -0.00, -0.50, 0.0, 768.0)"></image></g></g><text xml:space="preserve" font-family="AmericanTypewriter,American Typewriter" font-size="70.0" fill="#6E5F3B" transform="matrix(1.00, 0.00, -0.00, -1.00, 213.4, 401.5)">S</text><text xml:space="preserve" font-family="AmericanTypewriter,American Typewriter" font-size="70.0" fill="#6E5F3B" transform="matrix(1.00, 0.00, -0.00, -1.00, 257.4, 401.5)">o</text><text xml:space="preserve" font-family="AmericanTypewriter,American Typewriter" font-size="70.0" fill="#6E5F3B" transform="matrix(1.00, 0.00, -0.00, -1.00, 296.3, 401.5)"> </text><text xml:space="preserve" font-family="AmericanTypewriter,American Typewriter" font-size="70.0" fill="#6E5F3B" transform="matrix(1.00, 0.00, -0.00, -1.00, 314.5, 401.5)">w</text><text xml:space="preserve" font-family="AmericanTypewriter,American Typewriter" font-size="70.0" fill="#6E5F3B" transform="matrix(1.00, 0.00, -0.00, -1.00, 371.3, 401.5)">h</text><text xml:space="preserve" font-family="AmericanTypewriter,American Typewriter" font-size="70.0" fill="#6E5F3B" transform="matrix(1.00, 0.00, -0.00, -1.00, 416.6, 401.5)">e</text><text xml:space="preserve" font-family="AmericanTypewriter,American Typewriter" font-size="70.0" fill="#6E5F3B" transform="matrix(1.00, 0.00, -0.00, -1.00, 454.2, 401.5)">r</text><text xml:space="preserve" font-family="AmericanTypewriter,American Typewriter" font-size="70.0" fill="#6E5F3B" transform="matrix(1.00, 0.00, -0.00, -1.00, 489.3, 401.5)">e</text><text xml:space="preserve" font-family="AmericanTypewriter,American Typewriter" font-size="70.0" fill="#6E5F3B" transform="matrix(1.00, 0.00, -0.00, -1.00, 527.0, 401.5)"> </text><text xml:space="preserve" font-family="AmericanTypewriter,American Typewriter" font-size="70.0" fill="#6E5F3B" transform="matrix(1.00, 0.00, -0.00, -1.00, 545.2, 401.5)">d</text><text xml:space="preserve" font-family="AmericanTypewriter,American Typewriter" font-size="70.0" fill="#6E5F3B" transform="matrix(1.00, 0.00, -0.00, -1.00, 587.9, 401.5)">o</text><text xml:space="preserve" font-family="AmericanTypewriter,American Typewriter" font-size="70.0" fill="#6E5F3B" transform="matrix(1.00, 0.00, -0.00, -1.00, 626.8, 401.5)">e</text><text xml:space="preserve" font-family="AmericanTypewriter,American Typewriter" font-size="70.0" fill="#6E5F3B" transform="matrix(1.00, 0.00, -0.00, -1.00, 664.4, 401.5)">s</text><text xml:space="preserve" font-family="AmericanTypewriter,American Typewriter" font-size="70.0" fill="#6E5F3B" transform="matrix(1.00, 0.00, -0.00, -1.00, 699.6, 401.5)"> </text><text xml:space="preserve" font-family="AmericanTypewriter,American Typewriter" font-size="70.0" fill="#6E5F3B" transform="matrix(1.00, 0.00, -0.00, -1.00, 717.8, 401.5)">t</text><text xml:space="preserve" font-family="AmericanTypewriter,American Typewriter" font-size="70.0" fill="#6E5F3B" transform="matrix(1.00, 0.00, -0.00, -1.00, 746.5, 401.5)">h</text><text xml:space="preserve" font-family="AmericanTypewriter,American Typewriter" font-size="70.0" fill="#6E5F3B" transform="matrix(1.00, 0.00, -0.00, -1.00, 791.8, 401.5)">a</text><text xml:space="preserve" font-family="AmericanTypewriter,American Typewriter" font-size="70.0" fill="#6E5F3B" transform="matrix(1.00, 0.00, -0.00, -1.00, 831.9, 401.5)">t</text><text xml:space="preserve" font-family="AmericanTypewriter,American Typewriter" font-size="70.0" fill="#6E5F3B" transform="matrix(1.00, 0.00, -0.00, -1.00, 860.6, 401.5)"> </text><text xml:space="preserve" font-family="AmericanTypewriter,American Typewriter" font-size="70.0" fill="#6E5F3B" transform="matrix(1.00, 0.00, -0.00, -1.00, 210.7, 320.5)">m</text><text xml:space="preserve" font-family="AmericanTypewriter,American Typewriter" font-size="70.0" fill="#6E5F3B" transform="matrix(1.00, 0.00, -0.00, -1.00, 276.4, 320.5)">o</text><text xml:space="preserve" font-family="AmericanTypewriter,American Typewriter" font-size="70.0" fill="#6E5F3B" transform="matrix(1.00, 0.00, -0.00, -1.00, 315.3, 320.5)">n</text><text xml:space="preserve" font-family="AmericanTypewriter,American Typewriter" font-size="70.0" fill="#6E5F3B" transform="matrix(1.00, 0.00, -0.00, -1.00, 360.6, 320.5)">e</text><text xml:space="preserve" font-family="AmericanTypewriter,American Typewriter" font-size="70.0" fill="#6E5F3B" transform="matrix(1.00, 0.00, -0.00, -1.00, 398.2, 320.5)">y</text><text xml:space="preserve" font-family="AmericanTypewriter,American Typewriter" font-size="70.0" fill="#6E5F3B" transform="matrix(1.00, 0.00, -0.00, -1.00, 441.0, 320.5)"> </text><text xml:space="preserve" font-family="AmericanTypewriter,American Typewriter" font-size="70.0" fill="#6E5F3B" transform="matrix(1.00, 0.00, -0.00, -1.00, 459.2, 320.5)">c</text><text xml:space="preserve" font-family="AmericanTypewriter,American Typewriter" font-size="70.0" fill="#6E5F3B" transform="matrix(1.00, 0.00, -0.00, -1.00, 495.6, 320.5)">o</text><text xml:space="preserve" font-family="AmericanTypewriter,American Typewriter" font-size="70.0" fill="#6E5F3B" transform="matrix(1.00, 0.00, -0.00, -1.00, 534.5, 320.5)">m</text><text xml:space="preserve" font-family="AmericanTypewriter,American Typewriter" font-size="70.0" fill="#6E5F3B" transform="matrix(1.00, 0.00, -0.00, -1.00, 600.2, 320.5)">e</text><text xml:space="preserve" font-family="AmericanTypewriter,American Typewriter" font-size="70.0" fill="#6E5F3B" transform="matrix(1.00, 0.00, -0.00, -1.00, 637.8, 320.5)"> </text><text xml:space="preserve" font-family="AmericanTypewriter,American Typewriter" font-size="70.0" fill="#6E5F3B" transform="matrix(1.00, 0.00, -0.00, -1.00, 656.0, 320.5)">f</text><text xml:space="preserve" font-family="AmericanTypewriter,American Typewriter" font-size="70.0" fill="#6E5F3B" transform="matrix(1.00, 0.00, -0.00, -1.00, 681.0, 320.5)">r</text><text xml:space="preserve" font-family="AmericanTypewriter,American Typewriter" font-size="70.0" fill="#6E5F3B" transform="matrix(1.00, 0.00, -0.00, -1.00, 716.0, 320.5)">o</text><text xml:space="preserve" font-family="AmericanTypewriter,American Typewriter" font-size="70.0" fill="#6E5F3B" transform="matrix(1.00, 0.00, -0.00, -1.00, 754.9, 320.5)">m</text><text xml:space="preserve" font-family="AmericanTypewriter,American Typewriter" font-size="70.0" fill="#6E5F3B" transform="matrix(1.00, 0.00, -0.00, -1.00, 820.6, 320.5)">?</text></g></svg>