<?xml version="1.0" encoding="UTF-8" standalone="no"?><svg xmlns="http://www.w3.org/2000/svg" xmlns:xlink="http://www.w3.org/1999/xlink" clip-rule="evenodd" stroke-miterlimit="10" viewBox="0 0 1024 768"><desc>SVG generated by Keynote</desc><defs></defs><g transform="matrix(1.00, 0.00, -0.00, -1.00, 0.0, 768.0)"><g><clipPath id="clip0x600000ab9320"><path d="M 0.0 768.0 L 1024.0 768.0 L 1024.0 0.0 L 0.0 0.0 Z M 0.0 768.0 "></path></clipPath><g clip-path="url(#clip0x600000ab9320)"><image xlink:href="../../45DA958D-0BF7-418D-8F04-7EBED7B3F604/assets/7DDA4CC5426700CA34754E241DBFD959.jpeg" width="2048.00" height="1536.00" transform="matrix(0.50, 0.00, -0.00, -0.50, 0.0, 768.0)"></image></g></g><g><clipPath id="clip0x6080010abca0"><path d="M 617.0 603.0 L 936.0 603.0 L 936.0 168.0 L 617.0 168.0 Z M 617.0 602.5 "></path></clipPath><g clip-path="url(#clip0x6080010abca0)"><g><clipPath id="clip0x6080010aa9e0"><path d="M 609.2 157.0 L 935.7 151.3 L 943.8 613.0 L 617.3 618.7 Z M 609.2 157.0 "></path></clipPath><g clip-path="url(#clip0x6080010aa9e0)"><g><clipPath id="clip0x608000eb8ae0"><path d="M 609.2 157.0 L 935.6 151.3 L 943.6 612.5 L 617.3 618.2 Z M 609.2 157.0 "></path></clipPath><g clip-path="url(#clip0x608000eb8ae0)"><g><g><clipPath id="clip0x608000ebad00"><path d="M 609.2 157.0 L 935.6 151.3 L 943.6 612.5 L 617.3 618.2 Z M 609.2 157.0 "></path></clipPath><g clip-path="url(#clip0x608000ebad00)"><g><clipPath id="clip0x608000caab00"><path d="M 609.2 157.0 L 935.6 151.3 L 943.6 612.5 L 617.3 618.2 Z M 609.2 157.0 "></path></clipPath><g clip-path="url(#clip0x608000caab00)"><g><clipPath id="clip0x6080010b0980"><path d="M 617.0 168.0 L 936.0 168.0 L 936.0 603.0 L 617.0 603.0 Z M 617.0 168.0 "></path></clipPath><g clip-path="url(#clip0x6080010b0980)"><image xlink:href="23056EBADFB6302074C8107F2BCFF702.jpeg" width="1585.00" height="2239.00" transform="matrix(0.21, -0.00, -0.00, -0.21, 616.7, 619.2)"></image></g></g></g></g></g></g><g><clipPath id="clip0x6000008a2f40"><path d="M 609.2 157.0 L 935.6 151.3 L 943.6 612.5 L 617.3 618.2 Z M 609.2 157.0 "></path></clipPath><g clip-path="url(#clip0x6000008a2f40)"><g><clipPath id="clip0x600000abc740"><path d="M 609.2 157.0 L 935.6 151.3 L 943.6 612.5 L 617.3 618.2 Z M 609.2 157.0 "></path></clipPath><g clip-path="url(#clip0x600000abc740)"><g><clipPath id="clip0x600000ca81c0"><path d="M 617.0 168.0 L 936.0 168.0 L 936.0 603.0 L 617.0 603.0 Z M 617.0 168.0 "></path></clipPath><g clip-path="url(#clip0x600000ca81c0)"><g opacity="0.80"><g><clipPath id="clip0x600000ab9260"><path d="M 637.0 332.1 L 914.5 327.2 L 916.7 455.0 L 639.2 459.8 Z M 637.0 332.1 "></path></clipPath><g clip-path="url(#clip0x600000ab9260)"><g><clipPath id="clip0x6000008a1b60"><path d="M 636.6 331.7 L 914.8 326.8 L 917.1 455.4 L 638.9 460.3 Z M 636.6 331.7 "></path></clipPath><g clip-path="url(#clip0x6000008a1b60)"><g><clipPath id="clip0x6000008a9960"><path d="M 636.0 327.0 L 917.0 327.0 L 917.0 460.0 L 636.0 460.0 Z M 636.0 327.0 "></path></clipPath><g clip-path="url(#clip0x6000008a9960)"><path d="M 637.2 332.2 L 914.3 327.4 L 916.5 454.9 L 639.4 459.7 Z M 637.2 332.2 " fill="#24406E"></path></g></g></g></g></g></g></g><path d="M 855.2 596.2 L 854.9 577.7 L 877.9 577.3 C 877.7 577.4 877.6 577.6 877.4 577.7 C 876.1 579.0 876.1 580.5 876.1 581.8 L 876.2 589.7 L 880.5 589.6 L 880.3 581.4 C 880.3 580.8 880.3 580.2 880.8 579.8 C 881.1 579.4 881.7 579.3 882.2 579.3 C 882.8 579.3 883.3 579.5 883.5 579.7 C 884.0 580.2 884.0 580.8 884.1 581.3 L 884.2 589.5 L 888.5 589.4 L 888.4 582.5 C 888.3 580.9 888.3 579.0 886.7 577.6 C 886.5 577.4 886.4 577.3 886.2 577.2 L 892.6 577.0 C 890.7 578.4 889.9 580.6 889.9 582.8 C 890.0 586.3 892.5 589.9 897.0 589.8 C 899.0 589.8 901.0 589.0 902.3 587.6 C 902.9 587.0 903.2 586.5 903.4 586.0 L 899.9 584.3 C 899.5 585.1 898.9 586.5 897.1 586.6 C 896.2 586.6 895.6 586.2 895.3 585.9 C 894.3 585.0 894.2 583.5 894.2 582.9 C 894.2 581.0 894.9 579.1 897.0 579.1 C 899.0 579.1 899.6 580.8 899.8 581.2 L 903.3 579.4 C 903.0 578.8 902.7 578.2 902.0 577.6 C 901.7 577.3 901.4 577.1 901.1 576.9 L 905.0 576.8 L 905.2 589.2 L 909.5 589.1 L 909.3 579.4 L 914.8 579.3 L 914.7 576.7 L 918.6 576.6 L 919.0 595.1 Z M 855.2 596.2 " fill="#FFFEFE"></path><path d="M 874.0 587.0 C 874.0 587.0 871.8 587.5 871.8 587.5 C 871.8 587.5 869.6 587.1 869.6 587.1 C 869.6 587.1 869.6 587.1 869.6 587.1 L 869.6 586.9 L 869.6 586.9 L 869.6 586.9 C 869.6 586.9 869.6 586.9 869.7 586.9 L 869.7 586.7 C 869.7 586.7 869.7 586.7 869.7 586.7 L 869.8 586.7 L 873.8 586.6 L 873.9 586.6 C 873.9 586.6 873.9 586.7 873.9 586.7 L 873.9 586.8 C 873.9 586.9 874.0 586.9 874.0 586.9 L 874.0 586.9 L 874.0 586.9 L 874.0 587.0 C 874.0 587.0 874.0 587.0 874.0 587.0 " fill="#1A1918"></path><path d="M 873.8 586.6 C 873.8 586.6 873.8 586.6 873.8 586.6 L 873.8 586.6 C 873.8 586.7 873.8 586.7 873.8 586.7 L 873.4 586.7 C 873.4 586.7 873.4 586.7 873.4 586.7 L 873.4 586.6 C 873.4 586.6 873.4 586.6 873.4 586.6 L 873.4 586.6 C 873.5 586.6 873.5 586.6 873.5 586.6 C 873.5 586.6 873.5 586.5 873.5 586.5 C 873.5 586.5 873.5 586.5 873.5 586.5 L 873.5 586.5 C 873.5 586.5 873.5 586.5 873.5 586.5 C 873.5 586.5 873.5 586.5 873.5 586.5 L 873.5 586.4 C 873.5 586.4 873.5 586.4 873.5 586.4 L 873.5 586.4 C 873.5 586.4 873.5 586.4 873.5 586.4 L 873.5 586.4 L 873.5 585.2 C 873.5 585.2 873.4 585.2 873.4 585.2 C 873.4 585.2 873.4 585.2 873.4 585.2 L 873.4 585.2 C 873.4 585.2 873.4 585.2 873.4 585.2 C 873.4 585.1 873.4 585.1 873.4 585.1 L 873.4 585.1 C 873.4 585.1 873.4 585.1 873.4 585.1 L 873.4 585.1 L 873.7 585.1 L 873.7 585.1 C 873.7 585.1 873.7 585.1 873.7 585.1 L 873.7 585.1 C 873.7 585.1 873.7 585.1 873.7 585.1 C 873.7 585.1 873.7 585.1 873.7 585.2 L 873.7 585.2 C 873.7 585.2 873.7 585.2 873.7 585.2 C 873.7 585.2 873.7 585.2 873.7 585.2 L 873.7 586.4 L 873.7 586.4 C 873.7 586.4 873.7 586.4 873.7 586.4 L 873.7 586.4 C 873.7 586.4 873.7 586.4 873.7 586.4 L 873.7 586.5 C 873.7 586.5 873.7 586.5 873.7 586.5 C 873.7 586.5 873.7 586.5 873.7 586.5 L 873.7 586.5 C 873.7 586.5 873.7 586.5 873.7 586.5 C 873.7 586.5 873.7 586.6 873.7 586.6 C 873.8 586.6 873.7 586.6 873.8 586.6 Z M 873.8 586.6 " fill="#1A1918"></path><path d="M 873.0 586.6 C 873.0 586.6 873.1 586.6 873.1 586.6 L 873.1 586.7 C 873.1 586.7 873.0 586.7 873.0 586.7 L 872.7 586.7 C 872.7 586.7 872.7 586.7 872.7 586.7 L 872.7 586.6 C 872.7 586.6 872.7 586.6 872.7 586.6 L 872.7 586.6 C 872.7 586.6 872.7 586.6 872.7 586.6 C 872.7 586.6 872.7 586.5 872.8 586.5 C 872.8 586.5 872.8 586.5 872.8 586.5 L 872.7 586.5 C 872.7 586.5 872.7 586.5 872.7 586.5 C 872.7 586.5 872.7 586.5 872.7 586.5 L 872.7 586.4 C 872.7 586.4 872.7 586.4 872.7 586.4 L 872.8 586.4 C 872.8 586.4 872.8 586.4 872.8 586.4 C 872.8 586.4 872.8 586.4 872.8 586.4 L 872.7 585.2 C 872.7 585.2 872.7 585.2 872.7 585.2 C 872.7 585.2 872.7 585.2 872.7 585.2 L 872.7 585.2 C 872.7 585.2 872.7 585.2 872.7 585.2 C 872.7 585.2 872.7 585.2 872.7 585.2 L 872.7 585.2 C 872.7 585.2 872.7 585.2 872.7 585.2 L 872.7 585.1 L 873.0 585.1 L 873.0 585.2 C 873.0 585.2 873.0 585.2 873.0 585.2 L 873.0 585.2 C 873.0 585.2 873.0 585.2 873.0 585.2 C 873.0 585.2 873.0 585.2 873.0 585.2 L 873.0 585.2 C 873.0 585.2 873.0 585.2 873.0 585.2 C 873.0 585.2 873.0 585.2 873.0 585.2 L 873.0 586.4 L 873.0 586.4 C 873.0 586.4 873.0 586.4 873.0 586.4 L 873.0 586.4 C 873.0 586.4 873.0 586.4 873.0 586.4 L 873.0 586.5 C 873.0 586.5 873.0 586.5 873.0 586.5 C 873.0 586.5 873.0 586.5 873.0 586.5 L 873.0 586.5 C 873.0 586.5 873.0 586.5 873.0 586.5 C 873.0 586.5 873.0 586.6 873.0 586.6 C 873.0 586.6 873.0 586.6 873.0 586.6 Z M 873.0 586.6 " fill="#1A1918"></path><path d="M 872.3 586.6 C 872.3 586.6 872.3 586.6 872.3 586.6 L 872.3 586.7 C 872.3 586.7 872.3 586.7 872.3 586.7 L 872.0 586.7 C 872.0 586.7 872.0 586.7 872.0 586.7 L 872.0 586.6 C 872.0 586.6 872.0 586.6 872.0 586.6 L 872.0 586.6 C 872.0 586.6 872.0 586.6 872.0 586.6 C 872.0 586.6 872.0 586.6 872.0 586.5 C 872.0 586.5 872.0 586.5 872.0 586.5 L 872.0 586.5 C 872.0 586.5 872.0 586.5 872.0 586.5 C 872.0 586.5 872.0 586.5 872.0 586.5 L 872.0 586.5 C 872.0 586.5 872.0 586.4 872.0 586.4 L 872.0 586.4 C 872.0 586.4 872.0 586.4 872.0 586.4 C 872.0 586.4 872.0 586.4 872.0 586.4 L 872.0 585.2 C 872.0 585.2 872.0 585.2 872.0 585.2 C 872.0 585.2 872.0 585.2 872.0 585.2 L 872.0 585.2 C 872.0 585.2 872.0 585.2 872.0 585.2 C 872.0 585.2 872.0 585.2 872.0 585.2 L 872.0 585.2 C 872.0 585.2 872.0 585.2 872.0 585.2 L 872.0 585.1 L 872.3 585.1 L 872.3 585.2 C 872.3 585.2 872.3 585.2 872.3 585.2 L 872.3 585.2 C 872.3 585.2 872.3 585.2 872.3 585.2 C 872.3 585.2 872.3 585.2 872.3 585.2 L 872.3 585.2 C 872.3 585.2 872.3 585.2 872.3 585.2 C 872.3 585.2 872.2 585.2 872.2 585.2 L 872.3 586.4 C 872.3 586.4 872.3 586.4 872.3 586.4 C 872.3 586.4 872.3 586.4 872.3 586.4 L 872.3 586.4 C 872.3 586.4 872.3 586.4 872.3 586.5 L 872.3 586.5 C 872.3 586.5 872.3 586.5 872.3 586.5 C 872.3 586.5 872.3 586.5 872.3 586.5 L 872.3 586.5 C 872.3 586.5 872.3 586.5 872.3 586.5 C 872.3 586.6 872.3 586.6 872.3 586.6 C 872.3 586.6 872.3 586.6 872.3 586.6 Z M 872.3 586.6 " fill="#1A1918"></path><path d="M 871.6 586.6 C 871.6 586.6 871.6 586.6 871.6 586.6 L 871.6 586.7 C 871.6 586.7 871.6 586.7 871.6 586.7 L 871.3 586.7 C 871.3 586.7 871.3 586.7 871.3 586.7 L 871.3 586.6 C 871.3 586.6 871.3 586.6 871.3 586.6 L 871.3 586.6 C 871.3 586.6 871.3 586.6 871.3 586.6 C 871.3 586.6 871.3 586.6 871.3 586.5 C 871.3 586.5 871.3 586.5 871.3 586.5 L 871.3 586.5 C 871.3 586.5 871.3 586.5 871.3 586.5 C 871.3 586.5 871.3 586.5 871.3 586.5 L 871.3 586.5 C 871.3 586.5 871.3 586.5 871.3 586.5 L 871.3 586.5 C 871.3 586.5 871.3 586.5 871.3 586.5 L 871.3 586.5 L 871.3 585.2 C 871.3 585.2 871.3 585.2 871.3 585.2 C 871.3 585.2 871.3 585.2 871.3 585.2 L 871.3 585.2 C 871.3 585.2 871.3 585.2 871.3 585.2 C 871.3 585.2 871.3 585.2 871.3 585.2 L 871.2 585.2 C 871.2 585.2 871.2 585.2 871.2 585.2 L 871.2 585.1 L 871.6 585.1 L 871.6 585.2 C 871.6 585.2 871.6 585.2 871.6 585.2 L 871.5 585.2 C 871.5 585.2 871.5 585.2 871.5 585.2 C 871.5 585.2 871.5 585.2 871.5 585.2 L 871.5 585.2 C 871.5 585.2 871.5 585.2 871.5 585.2 C 871.5 585.2 871.5 585.2 871.5 585.2 L 871.5 586.4 C 871.5 586.4 871.5 586.4 871.5 586.5 C 871.5 586.5 871.5 586.5 871.5 586.5 L 871.5 586.5 C 871.6 586.5 871.6 586.5 871.6 586.5 L 871.6 586.5 C 871.6 586.5 871.6 586.5 871.6 586.5 C 871.6 586.5 871.6 586.5 871.6 586.5 L 871.5 586.5 C 871.5 586.5 871.5 586.5 871.5 586.5 C 871.6 586.6 871.6 586.6 871.6 586.6 C 871.6 586.6 871.6 586.6 871.6 586.6 Z M 871.6 586.6 " fill="#1A1918"></path><path d="M 870.9 586.6 C 870.9 586.6 870.9 586.6 870.9 586.6 L 870.9 586.7 C 870.9 586.7 870.9 586.7 870.9 586.7 L 870.5 586.7 C 870.5 586.7 870.5 586.7 870.5 586.7 L 870.5 586.7 C 870.5 586.6 870.5 586.6 870.5 586.6 L 870.5 586.6 C 870.6 586.6 870.6 586.6 870.5 586.6 C 870.5 586.6 870.6 586.6 870.6 586.6 C 870.6 586.6 870.6 586.5 870.6 586.5 L 870.6 586.5 C 870.6 586.5 870.6 586.5 870.6 586.5 C 870.6 586.5 870.6 586.5 870.6 586.5 L 870.6 586.5 C 870.6 586.5 870.6 586.5 870.6 586.5 L 870.6 586.5 C 870.6 586.5 870.6 586.5 870.6 586.5 L 870.6 586.5 L 870.6 585.2 C 870.6 585.2 870.5 585.2 870.5 585.2 C 870.5 585.2 870.5 585.2 870.5 585.2 L 870.5 585.2 C 870.5 585.2 870.5 585.2 870.5 585.2 C 870.5 585.2 870.5 585.2 870.5 585.2 L 870.5 585.2 C 870.5 585.2 870.5 585.2 870.5 585.2 L 870.5 585.2 L 870.8 585.2 L 870.8 585.2 C 870.8 585.2 870.8 585.2 870.8 585.2 L 870.8 585.2 C 870.8 585.2 870.8 585.2 870.8 585.2 C 870.8 585.2 870.8 585.2 870.8 585.2 L 870.8 585.2 C 870.8 585.2 870.8 585.2 870.8 585.2 C 870.8 585.2 870.8 585.2 870.8 585.2 L 870.8 586.5 C 870.8 586.5 870.8 586.5 870.8 586.5 C 870.8 586.5 870.8 586.5 870.8 586.5 L 870.8 586.5 C 870.8 586.5 870.8 586.5 870.8 586.5 L 870.8 586.5 C 870.8 586.5 870.8 586.5 870.8 586.5 C 870.8 586.5 870.8 586.5 870.8 586.5 L 870.8 586.5 C 870.8 586.5 870.8 586.5 870.8 586.6 C 870.8 586.6 870.8 586.6 870.8 586.6 C 870.8 586.6 870.8 586.6 870.9 586.6 Z M 870.9 586.6 " fill="#1A1918"></path><path d="M 870.1 586.7 C 870.1 586.7 870.1 586.7 870.1 586.7 L 870.1 586.7 C 870.1 586.7 870.1 586.7 870.1 586.7 L 869.8 586.7 C 869.8 586.7 869.8 586.7 869.8 586.7 L 869.8 586.7 C 869.8 586.7 869.8 586.7 869.8 586.7 L 869.8 586.7 C 869.8 586.7 869.8 586.7 869.8 586.6 C 869.8 586.6 869.8 586.6 869.9 586.6 C 869.9 586.6 869.9 586.6 869.8 586.6 L 869.8 586.6 C 869.8 586.6 869.8 586.5 869.8 586.5 C 869.8 586.5 869.8 586.5 869.8 586.5 L 869.8 586.5 C 869.8 586.5 869.8 586.5 869.8 586.5 L 869.8 586.5 C 869.8 586.5 869.8 586.5 869.8 586.5 L 869.8 586.5 L 869.8 585.3 C 869.8 585.3 869.8 585.2 869.8 585.2 C 869.8 585.2 869.8 585.2 869.8 585.2 L 869.8 585.2 C 869.8 585.2 869.8 585.2 869.8 585.2 C 869.8 585.2 869.8 585.2 869.8 585.2 L 869.8 585.2 C 869.8 585.2 869.8 585.2 869.8 585.2 L 869.8 585.2 L 870.1 585.2 L 870.1 585.2 C 870.1 585.2 870.1 585.2 870.1 585.2 L 870.1 585.2 C 870.1 585.2 870.1 585.2 870.1 585.2 C 870.1 585.2 870.1 585.2 870.1 585.2 L 870.1 585.2 C 870.1 585.2 870.1 585.2 870.1 585.2 C 870.1 585.2 870.1 585.3 870.1 585.3 L 870.1 586.5 L 870.1 586.5 C 870.1 586.5 870.1 586.5 870.1 586.5 L 870.1 586.5 C 870.1 586.5 870.1 586.5 870.1 586.5 L 870.1 586.5 C 870.1 586.5 870.1 586.5 870.1 586.5 C 870.1 586.5 870.1 586.5 870.1 586.5 L 870.1 586.5 C 870.1 586.5 870.1 586.6 870.1 586.6 C 870.1 586.6 870.1 586.6 870.1 586.6 C 870.1 586.6 870.1 586.7 870.1 586.7 Z M 870.1 586.7 " fill="#1A1918"></path><path d="M 872.8 587.9 L 872.8 587.9 C 872.8 587.9 872.8 587.9 872.8 587.9 L 872.8 587.9 C 872.8 587.9 872.8 587.9 872.8 587.9 L 872.8 588.0 C 872.7 588.0 872.7 588.0 872.7 588.0 L 872.7 588.0 C 872.7 588.0 872.7 588.0 872.7 588.0 L 872.7 588.0 C 872.7 588.0 872.7 588.0 872.7 588.0 C 872.7 588.1 872.7 588.4 872.6 588.6 C 872.4 588.8 872.2 588.9 872.1 589.0 C 872.1 589.0 872.1 589.1 872.0 589.1 C 872.0 589.1 872.0 589.1 872.0 589.1 C 872.0 589.1 872.0 589.1 872.0 589.1 C 872.0 589.1 872.0 589.1 872.0 589.1 C 872.0 589.1 872.0 589.1 872.0 589.1 L 872.0 589.2 C 872.0 589.2 872.0 589.2 872.0 589.2 L 872.0 589.2 C 872.0 589.2 872.0 589.2 872.0 589.2 L 872.0 589.2 C 872.0 589.2 872.0 589.2 872.0 589.2 L 872.0 589.5 C 872.0 589.5 872.0 589.5 872.0 589.5 L 872.0 589.5 L 872.0 589.5 C 872.0 589.5 872.0 589.5 872.0 589.5 L 872.0 589.5 C 872.0 589.5 872.0 589.5 872.0 589.5 L 872.0 589.5 C 872.0 589.5 872.0 589.5 872.0 589.5 C 872.0 589.5 872.0 589.6 872.0 589.6 L 872.0 589.6 C 872.0 589.6 872.0 589.6 872.0 589.6 L 872.0 589.6 C 872.0 589.6 872.0 589.6 872.0 589.6 L 872.0 589.6 C 872.0 589.6 872.0 589.6 872.0 589.6 C 871.9 589.6 871.9 589.7 871.9 589.7 C 871.9 589.7 871.9 589.7 871.9 589.7 C 871.9 589.7 871.9 589.7 871.9 589.7 C 871.9 589.7 871.9 589.7 871.9 589.7 C 871.9 589.7 871.9 589.7 871.9 589.7 L 871.9 589.7 C 871.9 589.8 871.8 589.8 871.8 589.8 L 871.8 589.8 C 871.8 589.8 871.8 589.8 871.8 589.7 L 871.8 589.7 C 871.8 589.7 871.8 589.7 871.8 589.7 C 871.8 589.7 871.8 589.7 871.8 589.7 C 871.8 589.7 871.8 589.7 871.8 589.7 C 871.8 589.7 871.8 589.7 871.8 589.7 C 871.8 589.7 871.8 589.6 871.7 589.6 C 871.7 589.6 871.7 589.6 871.7 589.6 L 871.7 589.6 C 871.7 589.6 871.7 589.6 871.7 589.6 L 871.7 589.6 C 871.7 589.6 871.7 589.6 871.7 589.6 L 871.7 589.6 C 871.7 589.6 871.7 589.6 871.7 589.5 C 871.7 589.5 871.7 589.5 871.7 589.5 L 871.7 589.5 C 871.7 589.5 871.7 589.5 871.7 589.5 L 871.7 589.5 C 871.7 589.5 871.7 589.5 871.7 589.5 L 871.7 589.5 L 871.7 589.5 C 871.7 589.5 871.7 589.5 871.7 589.5 L 871.7 589.2 C 871.7 589.2 871.7 589.2 871.7 589.2 L 871.7 589.2 C 871.7 589.2 871.7 589.2 871.7 589.2 L 871.6 589.2 C 871.6 589.2 871.6 589.2 871.6 589.2 L 871.6 589.1 C 871.6 589.1 871.6 589.1 871.6 589.1 C 871.6 589.1 871.7 589.1 871.7 589.1 C 871.7 589.1 871.7 589.1 871.7 589.1 C 871.7 589.1 871.6 589.1 871.6 589.1 C 871.6 589.1 871.5 589.0 871.5 589.0 C 871.4 589.0 871.2 588.9 871.1 588.7 C 870.9 588.4 870.9 588.1 870.9 588.0 C 870.9 588.0 870.9 588.0 870.9 588.0 L 870.9 588.0 C 870.9 588.0 870.9 588.0 870.9 588.0 L 870.9 588.0 C 870.9 588.0 870.9 588.0 870.9 588.0 L 870.8 588.0 C 870.8 588.0 870.8 588.0 870.8 588.0 L 870.8 587.9 C 870.8 587.9 870.8 587.9 870.8 587.9 L 870.8 587.9 C 870.8 587.9 870.8 587.9 870.8 587.9 L 870.8 587.9 C 870.8 587.9 870.8 587.9 870.8 587.9 C 870.8 587.9 870.8 587.9 870.8 587.8 C 870.8 587.8 870.8 587.8 870.8 587.8 L 870.8 587.7 C 870.8 587.6 870.8 587.6 870.8 587.6 C 870.8 587.6 870.8 587.6 870.8 587.6 L 870.8 587.5 L 871.8 587.7 L 871.8 587.7 L 872.8 587.4 L 872.8 587.6 C 872.8 587.6 872.8 587.6 872.8 587.6 C 872.8 587.6 872.8 587.6 872.8 587.6 L 872.8 587.8 C 872.8 587.8 872.8 587.8 872.8 587.8 C 872.8 587.8 872.8 587.8 872.8 587.8 C 872.8 587.8 872.8 587.8 872.8 587.8 L 872.9 587.9 C 872.9 587.9 872.8 587.9 872.8 587.9 " fill="#1A1918"></path><path d="M 873.9 584.7 L 873.9 585.0 L 873.7 585.0 L 873.7 585.1 L 869.8 585.2 L 869.8 585.1 L 869.6 585.1 L 869.6 584.8 L 869.4 584.8 L 869.4 584.5 L 874.1 584.4 L 874.1 584.7 Z M 873.9 584.7 " fill="#1A1918"></path><path d="M 855.8 572.6 L 855.7 570.0 C 855.7 569.4 855.7 569.2 855.8 569.0 C 856.0 568.6 856.4 568.6 856.7 568.6 C 857.6 568.5 857.6 569.1 857.6 569.9 L 857.7 572.5 L 858.7 572.5 L 858.6 570.0 C 858.6 569.2 858.6 568.7 858.3 568.4 C 857.9 567.8 857.2 567.7 856.7 567.7 C 854.7 567.8 854.7 569.0 854.8 570.1 L 854.8 572.6 Z M 855.8 572.6 " fill="#FFFEFE"></path><path d="M 863.6 569.1 C 863.5 568.8 863.2 567.6 861.6 567.6 C 860.3 567.7 859.4 568.6 859.5 570.1 C 859.5 571.4 860.2 572.6 861.8 572.6 C 862.0 572.5 862.7 572.5 863.2 572.0 C 863.5 571.7 863.6 571.5 863.7 571.1 L 862.7 570.9 C 862.6 571.4 862.2 571.7 861.7 571.7 C 860.5 571.8 860.5 570.5 860.5 570.1 C 860.5 569.7 860.5 569.3 860.7 569.0 C 860.9 568.7 861.2 568.5 861.6 568.5 C 862.3 568.5 862.6 568.9 862.7 569.5 Z M 863.6 569.1 " fill="#FFFEFE"></path><path d="M 864.5 572.4 L 865.5 572.4 L 865.4 568.5 L 867.9 568.4 L 867.9 567.6 L 864.5 567.7 Z M 864.5 572.4 " fill="#FFFEFE"></path><path d="M 874.7 567.0 C 874.4 567.1 874.2 567.3 873.8 567.5 C 873.8 567.6 873.7 567.6 873.7 567.6 C 873.5 567.6 873.1 567.4 872.6 567.5 C 870.9 567.5 870.3 568.7 870.3 570.0 C 870.3 571.4 871.2 572.4 872.7 572.4 C 874.2 572.3 875.0 571.3 875.0 569.9 C 874.9 568.8 874.5 568.3 874.3 568.1 C 874.4 568.0 874.7 567.9 875.1 567.7 Z M 872.6 569.2 C 873.0 569.0 873.3 568.8 873.6 568.7 C 873.7 568.8 873.9 569.1 874.0 569.9 C 874.0 570.6 873.8 571.5 872.6 571.5 C 871.4 571.6 871.3 570.3 871.3 569.9 C 871.3 568.5 872.1 568.3 872.6 568.3 C 872.8 568.3 872.9 568.3 873.0 568.3 C 872.9 568.4 872.6 568.5 872.4 568.6 Z M 872.6 569.2 " fill="#FFFEFE"></path><path d="M 879.0 567.4 L 878.6 568.5 L 876.7 568.5 L 876.3 567.5 L 875.2 567.5 L 877.2 572.2 L 878.2 572.2 L 880.1 567.4 Z M 878.3 569.3 L 877.7 571.1 L 877.0 569.3 Z M 878.3 569.3 " fill="#FFFEFE"></path><path d="M 881.7 571.3 L 880.3 571.3 L 880.3 572.1 L 884.1 572.1 L 884.1 571.3 L 882.7 571.3 L 882.6 567.4 L 881.7 567.4 Z M 881.7 571.3 " fill="#FFFEFE"></path><path d="M 888.0 567.3 L 887.6 568.3 L 885.7 568.4 L 885.2 567.3 L 884.2 567.3 L 886.2 572.0 L 887.2 572.0 L 889.1 567.2 Z M 887.3 569.2 L 886.7 570.9 L 886.0 569.2 Z M 887.3 569.2 " fill="#FFFEFE"></path><path d="M 889.7 572.0 L 891.7 572.0 C 892.4 571.9 892.7 571.9 892.8 571.8 C 893.4 571.6 893.6 571.0 893.6 570.6 C 893.6 570.1 893.3 569.6 892.8 569.4 C 892.7 569.4 892.5 569.3 892.3 569.3 L 892.3 569.3 C 892.7 569.0 892.9 568.9 893.3 568.1 L 893.9 567.2 L 892.7 567.2 L 892.1 568.2 C 891.5 569.1 891.4 569.2 890.8 569.2 L 890.6 569.2 L 890.5 567.2 L 889.6 567.2 Z M 890.6 570.0 L 891.3 569.9 C 891.6 569.9 892.0 569.9 892.2 570.0 C 892.5 570.1 892.6 570.4 892.6 570.5 C 892.6 570.7 892.5 570.9 892.3 571.0 C 892.2 571.1 892.0 571.1 891.4 571.2 L 890.6 571.2 Z M 890.6 570.0 " fill="#FFFEFE"></path><path d="M 893.9 565.2 C 893.1 565.0 892.5 564.8 892.2 564.7 C 892.0 564.6 892.0 564.5 891.9 564.5 C 891.9 564.4 891.9 564.4 891.9 564.3 C 891.9 564.2 891.9 564.1 892.0 564.0 C 892.5 563.6 892.8 563.3 892.9 563.1 C 893.0 563.0 893.1 562.8 893.1 562.7 C 893.1 562.6 893.0 562.6 892.9 562.5 C 892.7 562.4 892.4 562.4 892.1 562.4 L 891.9 562.4 C 891.7 562.4 891.7 562.3 891.7 562.2 C 891.7 562.1 891.7 562.0 891.9 562.0 L 892.0 562.0 C 892.6 562.0 892.9 562.1 893.1 562.2 C 893.2 562.4 893.3 562.6 893.3 562.9 C 893.3 563.2 893.0 563.6 892.5 564.0 L 892.6 564.1 L 892.1 564.3 L 892.1 564.3 C 892.5 564.5 892.8 564.6 893.1 564.7 C 893.3 564.8 893.5 564.8 893.6 564.9 C 893.7 565.0 893.8 565.1 893.9 565.2 Z M 890.6 562.4 C 890.4 562.4 890.3 562.3 890.3 562.2 C 890.3 562.1 890.4 562.0 890.6 562.0 L 890.6 562.0 C 890.9 562.0 891.1 562.1 891.2 562.3 L 891.2 562.3 C 891.3 562.1 891.5 562.0 891.8 562.0 L 891.9 562.0 L 891.9 562.4 L 891.9 562.4 C 891.5 562.4 891.4 562.6 891.4 562.7 C 891.4 563.7 891.4 564.4 891.4 565.1 L 891.4 565.1 L 891.1 564.9 L 891.1 564.7 C 891.1 564.0 891.2 563.5 891.1 562.8 C 891.1 562.6 891.1 562.5 891.0 562.5 C 890.9 562.4 890.8 562.4 890.6 562.4 Z M 889.2 562.4 C 889.0 562.4 888.9 562.3 888.9 562.2 C 888.9 562.1 889.0 562.0 889.2 562.0 L 889.2 562.0 C 889.5 562.0 889.7 562.1 889.8 562.3 L 889.9 562.3 C 890.0 562.1 890.2 562.0 890.5 562.0 L 890.6 562.0 L 890.6 562.4 L 890.5 562.4 C 890.3 562.4 890.2 562.4 890.1 562.5 C 890.1 562.6 890.0 562.7 890.0 562.8 C 890.0 562.8 890.1 563.0 890.1 563.1 L 890.1 563.1 L 889.9 563.0 L 889.8 562.7 C 889.7 562.5 889.5 562.4 889.2 562.4 Z M 890.4 561.1 C 890.3 561.2 890.2 561.3 890.0 561.4 C 890.0 561.4 889.9 561.3 889.8 561.1 C 889.9 561.0 890.0 560.9 890.2 560.8 C 890.2 560.9 890.3 561.0 890.4 561.1 M 889.8 561.1 C 889.7 561.2 889.6 561.3 889.4 561.4 C 889.4 561.3 889.3 561.2 889.2 561.1 C 889.3 561.0 889.4 560.9 889.6 560.8 C 889.6 560.9 889.7 560.9 889.8 561.1 M 888.3 564.9 C 888.2 565.0 888.1 565.1 887.9 565.2 C 887.9 565.2 887.8 565.1 887.7 564.9 C 887.8 564.8 887.9 564.7 888.1 564.6 C 888.1 564.7 888.2 564.8 888.3 564.9 M 888.9 564.9 C 888.8 565.1 888.7 565.2 888.5 565.3 C 888.5 565.2 888.4 565.1 888.3 565.0 C 888.4 564.9 888.5 564.8 888.7 564.7 C 888.7 564.7 888.8 564.8 888.9 564.9 M 888.4 562.8 C 888.2 562.7 888.1 562.7 887.9 562.7 C 887.7 562.7 887.5 562.8 887.6 562.9 C 887.6 563.0 887.8 563.3 888.4 563.5 Z M 888.5 562.5 C 888.6 562.1 888.8 562.0 889.1 562.0 L 889.2 562.0 L 889.2 562.4 L 889.1 562.4 C 888.9 562.4 888.8 562.4 888.8 562.5 C 888.7 562.6 888.6 562.7 888.7 562.9 C 888.7 563.4 888.7 563.9 888.7 564.4 L 888.6 564.4 C 888.5 564.3 888.5 564.2 888.4 564.1 L 888.4 563.9 C 887.8 563.6 887.5 563.3 887.4 563.1 C 887.3 562.9 887.3 562.8 887.3 562.7 C 887.3 562.5 887.5 562.3 887.8 562.3 C 888.1 562.3 888.3 562.4 888.5 562.5 M 884.6 562.5 C 884.4 562.5 884.3 562.4 884.3 562.3 C 884.3 562.2 884.4 562.1 884.5 562.1 L 884.6 562.1 C 884.7 562.1 884.9 562.1 885.0 562.2 C 885.1 562.3 885.2 562.4 885.3 562.5 C 885.4 562.7 885.4 563.0 885.4 563.3 C 885.4 563.6 885.4 564.0 885.4 564.4 C 885.5 564.4 885.5 564.5 885.6 564.5 C 885.4 564.8 885.3 565.0 885.3 565.2 L 885.3 565.2 C 885.3 565.2 885.2 565.1 885.2 565.1 C 885.1 565.0 885.1 564.9 885.1 564.9 C 885.1 564.7 885.1 564.6 885.1 564.5 C 885.1 563.9 885.1 563.4 885.1 562.9 C 885.1 562.7 885.1 562.6 885.0 562.6 C 884.8 562.5 884.7 562.5 884.6 562.5 Z M 883.2 562.5 C 883.0 562.5 882.9 562.4 882.9 562.3 C 882.9 562.2 883.0 562.1 883.1 562.1 L 883.2 562.1 C 883.5 562.1 883.7 562.2 883.8 562.4 L 883.8 562.4 C 883.9 562.2 884.2 562.1 884.5 562.1 L 884.5 562.1 L 884.6 562.5 L 884.5 562.5 C 884.3 562.5 884.2 562.5 884.1 562.6 C 884.0 562.7 884.0 562.8 884.0 562.9 C 884.0 562.9 884.0 563.1 884.1 563.2 L 884.1 563.3 L 883.9 563.1 L 883.8 562.8 C 883.7 562.6 883.5 562.5 883.2 562.5 Z M 883.5 564.0 C 883.7 563.9 883.8 563.8 883.9 563.7 C 884.0 563.8 884.1 563.9 884.2 564.0 C 884.0 564.1 883.9 564.3 883.8 564.3 C 883.7 564.3 883.6 564.1 883.5 564.0 M 883.2 562.5 L 883.1 562.5 C 882.9 562.5 882.7 562.7 882.6 563.0 C 882.5 563.4 882.5 563.9 882.3 564.3 L 882.3 564.4 C 882.2 564.3 882.2 564.2 882.1 564.1 C 882.2 563.5 882.3 563.1 882.3 562.9 C 882.3 562.8 882.2 562.7 882.1 562.7 C 882.0 562.6 881.8 562.5 881.6 562.5 C 881.3 562.5 881.2 562.7 881.2 563.0 L 881.1 563.0 C 881.1 562.9 881.1 562.8 881.1 562.7 C 881.1 562.4 881.2 562.2 881.6 562.2 C 881.8 562.1 882.0 562.2 882.2 562.3 C 882.4 562.4 882.4 562.5 882.4 562.6 L 882.5 562.6 C 882.6 562.2 882.8 562.1 883.1 562.1 L 883.1 562.1 Z M 879.1 564.6 C 879.2 564.5 879.3 564.4 879.5 564.3 C 879.6 564.4 879.7 564.5 879.7 564.6 C 879.6 564.7 879.5 564.8 879.4 564.9 C 879.3 564.9 879.2 564.7 879.1 564.6 M 880.2 563.9 C 880.1 563.8 880.0 563.7 879.9 563.6 C 880.0 563.4 880.1 563.2 880.2 563.0 C 880.2 562.8 880.3 562.6 880.3 562.4 C 880.3 562.4 880.2 562.3 880.0 562.2 C 879.8 562.0 879.5 561.9 879.3 561.9 C 879.0 561.9 878.8 562.0 878.7 562.1 C 878.6 562.2 878.5 562.4 878.5 562.7 C 878.5 562.8 878.6 563.0 878.7 563.2 L 878.6 563.3 C 878.4 563.1 878.3 562.8 878.3 562.4 C 878.3 561.9 878.6 561.5 879.2 561.5 C 879.6 561.5 880.0 561.6 880.3 561.9 C 880.4 562.0 880.5 562.4 880.5 562.7 C 880.5 563.2 880.4 563.5 880.2 563.9 Z M 876.1 562.2 C 876.3 562.4 876.4 562.5 876.4 562.7 C 876.4 562.8 876.4 563.0 876.4 563.2 C 876.5 563.9 876.5 564.6 876.4 565.3 L 876.4 565.3 C 876.3 565.2 876.1 565.1 876.1 565.0 C 876.1 564.5 876.2 563.7 876.1 563.1 L 876.1 562.8 C 876.1 562.6 876.1 562.4 876.1 562.2 Z M 874.6 562.7 C 874.4 562.7 874.3 562.6 874.3 562.5 C 874.3 562.4 874.4 562.3 874.6 562.3 L 874.6 562.3 C 874.7 562.3 874.9 562.3 875.0 562.4 C 875.1 562.4 875.2 562.6 875.3 562.7 C 875.4 562.9 875.4 563.1 875.4 563.5 C 875.4 563.8 875.4 564.2 875.4 564.5 C 875.5 564.6 875.5 564.6 875.6 564.7 C 875.4 564.9 875.3 565.2 875.4 565.4 L 875.3 565.4 C 875.3 565.3 875.2 565.3 875.2 565.2 C 875.1 565.2 875.1 565.1 875.1 565.0 C 875.1 564.9 875.1 564.8 875.1 564.7 C 875.1 564.1 875.2 563.6 875.1 563.1 C 875.1 562.9 875.1 562.8 875.0 562.7 C 874.8 562.7 874.7 562.7 874.6 562.7 Z M 872.6 561.5 C 872.7 561.4 872.8 561.3 872.9 561.2 C 873.1 561.3 873.1 561.4 873.2 561.5 C 873.1 561.6 873.0 561.8 872.8 561.8 C 872.8 561.8 872.7 561.6 872.6 561.5 M 873.8 563.0 C 873.8 562.9 873.8 562.8 873.8 562.8 C 873.8 562.4 874.1 562.3 874.5 562.3 L 874.6 562.3 L 874.6 562.7 L 874.5 562.7 C 874.2 562.7 873.9 562.8 873.9 563.0 L 873.9 563.0 Z M 873.6 563.2 C 872.9 562.9 872.4 562.7 871.9 562.7 L 871.7 562.7 C 871.6 562.7 871.5 562.6 871.5 562.5 C 871.5 562.4 871.5 562.3 871.7 562.3 L 871.9 562.3 C 872.4 562.3 872.8 562.4 873.2 562.7 L 873.7 563.0 C 873.9 563.1 874.0 563.1 874.3 563.1 L 874.5 563.4 L 874.5 563.5 L 874.2 563.5 C 874.0 563.5 873.8 563.5 873.7 563.6 C 873.2 563.8 872.9 563.8 872.7 563.8 C 872.3 563.9 872.0 563.6 872.0 563.3 L 872.1 562.9 L 872.1 562.9 L 872.2 563.2 L 872.2 563.3 C 872.3 563.4 872.4 563.5 872.6 563.5 C 872.9 563.5 873.2 563.4 873.6 563.2 Z M 871.7 562.7 L 871.7 562.7 C 871.6 562.7 871.6 562.7 871.5 562.8 C 871.4 562.8 871.2 562.9 871.2 563.1 L 871.3 563.3 C 871.3 564.0 871.3 564.8 871.2 565.5 L 871.2 565.5 C 871.1 565.4 871.0 565.3 870.9 565.2 C 871.0 564.6 871.0 563.9 871.0 563.4 C 871.0 562.9 871.0 562.7 871.1 562.5 C 871.3 562.4 871.4 562.3 871.7 562.3 L 871.7 562.3 Z M 869.2 563.2 C 869.3 563.4 869.5 563.5 869.7 563.5 C 869.9 563.5 870.1 563.3 870.1 562.8 C 870.1 562.8 870.1 562.8 870.0 562.8 C 869.9 562.8 869.8 562.8 869.7 562.9 C 869.5 563.0 869.3 563.1 869.2 563.2 M 868.5 562.8 C 868.3 562.8 868.3 562.7 868.3 562.6 C 868.3 562.5 868.3 562.4 868.5 562.4 L 868.6 562.4 C 868.8 562.4 869.0 562.5 869.1 562.8 L 869.1 562.8 C 869.4 562.5 869.7 562.4 870.0 562.4 C 870.2 562.4 870.3 562.5 870.4 562.8 C 870.3 563.3 870.1 563.8 869.7 563.8 C 869.6 563.8 869.5 563.8 869.3 563.7 C 869.2 563.5 869.1 563.4 869.1 563.3 C 869.0 562.9 868.8 562.8 868.6 562.8 Z M 867.4 563.1 C 867.3 563.2 867.2 563.3 867.1 563.4 C 867.0 563.5 866.9 563.5 866.9 563.6 L 866.9 563.6 C 867.1 563.6 867.3 563.6 867.5 563.6 C 867.7 563.6 867.9 563.6 868.0 563.5 L 868.0 563.5 C 867.8 563.4 867.6 563.2 867.4 563.1 Z M 866.2 562.8 C 866.0 562.8 866.0 562.7 866.0 562.6 C 866.0 562.5 866.0 562.4 866.2 562.4 L 866.3 562.4 C 866.6 562.4 867.0 562.5 867.4 562.8 L 867.4 562.8 C 867.7 562.5 868.1 562.4 868.4 562.4 L 868.5 562.4 L 868.5 562.8 L 868.4 562.8 C 868.1 562.8 867.9 562.8 867.7 563.0 L 867.7 563.0 L 868.2 563.4 L 868.3 563.8 C 868.1 563.9 867.8 563.9 867.4 563.9 C 867.1 564.0 866.9 563.9 866.6 563.9 L 866.5 563.9 L 866.4 563.5 L 866.4 563.5 L 866.5 563.5 C 866.5 563.5 866.6 563.4 866.7 563.4 C 866.8 563.2 867.0 563.1 867.1 563.0 L 867.1 562.9 C 866.8 562.8 866.6 562.8 866.3 562.8 Z M 864.8 562.8 C 864.6 562.8 864.6 562.7 864.6 562.7 C 864.6 562.6 864.6 562.4 864.8 562.4 L 864.8 562.4 C 865.1 562.4 865.3 562.5 865.5 562.7 L 865.5 562.7 C 865.6 562.5 865.8 562.4 866.1 562.4 L 866.2 562.4 L 866.2 562.8 L 866.1 562.8 C 866.0 562.8 865.8 562.9 865.7 562.9 C 865.7 563.0 865.6 563.1 865.6 563.2 C 865.6 563.3 865.7 563.4 865.7 563.5 L 865.7 563.6 L 865.5 563.4 L 865.4 563.1 C 865.3 562.9 865.1 562.8 864.8 562.8 Z M 866.0 561.5 C 865.9 561.7 865.8 561.8 865.7 561.9 C 865.6 561.8 865.5 561.7 865.4 561.6 C 865.5 561.5 865.7 561.4 865.8 561.2 C 865.9 561.3 865.9 561.4 866.0 561.5 M 865.4 561.5 C 865.3 561.6 865.2 561.7 865.1 561.8 C 865.0 561.8 864.9 561.7 864.8 561.5 C 864.9 561.4 865.0 561.3 865.2 561.2 C 865.3 561.3 865.3 561.4 865.4 561.5 M 863.9 565.3 C 863.8 565.5 863.7 565.6 863.6 565.7 C 863.5 565.6 863.4 565.5 863.3 565.4 C 863.4 565.3 863.6 565.2 863.7 565.0 C 863.8 565.1 863.8 565.2 863.9 565.3 M 864.5 565.4 C 864.4 565.5 864.3 565.6 864.2 565.7 C 864.1 565.6 864.0 565.5 863.9 565.4 C 864.0 565.3 864.2 565.2 864.3 565.1 C 864.4 565.2 864.4 565.2 864.5 565.4 M 864.0 563.2 C 863.8 563.2 863.7 563.1 863.6 563.1 C 863.4 563.1 863.2 563.2 863.2 563.3 C 863.2 563.5 863.5 563.7 864.0 564.0 Z M 864.1 562.9 C 864.2 562.5 864.4 562.5 864.7 562.4 L 864.8 562.4 L 864.8 562.8 L 864.7 562.8 C 864.6 562.8 864.5 562.9 864.4 562.9 C 864.3 563.0 864.3 563.1 864.3 563.4 C 864.3 563.8 864.3 564.3 864.3 564.8 L 864.2 564.8 C 864.2 564.7 864.1 564.6 864.0 564.5 L 864.0 564.3 C 863.5 564.0 863.1 563.7 863.0 563.5 C 862.9 563.3 862.9 563.2 862.9 563.1 C 862.9 562.9 863.1 562.8 863.5 562.8 C 863.7 562.8 863.9 562.8 864.1 562.9 M 860.8 563.6 C 860.4 563.6 859.9 563.7 859.9 564.0 C 860.0 564.1 860.1 564.2 860.3 564.2 C 860.6 564.2 860.8 563.9 860.8 563.6 M 859.6 562.9 C 859.4 562.9 859.4 562.8 859.4 562.7 C 859.4 562.7 859.4 562.5 859.6 562.5 L 859.8 562.5 C 860.4 562.5 860.7 562.6 860.9 562.8 C 861.1 562.9 861.1 563.1 861.1 563.3 C 861.1 563.6 861.1 563.8 861.0 564.0 C 860.9 564.4 860.7 564.6 860.4 564.6 C 860.3 564.6 860.1 564.6 860.0 564.4 C 859.8 564.3 859.8 564.1 859.8 563.8 C 859.8 563.8 859.8 563.7 859.8 563.6 C 859.9 563.4 860.2 563.3 860.5 563.3 C 860.6 563.3 860.8 563.3 860.9 563.3 C 860.9 563.3 860.9 563.2 860.9 563.2 C 860.9 563.1 860.7 563.0 860.5 563.0 C 860.3 562.9 860.1 562.9 859.8 562.9 Z M 860.2 565.2 C 860.1 565.3 860.0 565.4 859.9 565.5 C 859.8 565.5 859.7 565.4 859.6 565.3 C 859.7 565.2 859.9 565.1 860.0 564.9 C 860.1 565.0 860.1 565.1 860.2 565.2 M 860.8 565.2 C 860.7 565.4 860.6 565.5 860.5 565.6 C 860.4 565.5 860.3 565.4 860.2 565.3 C 860.3 565.2 860.5 565.1 860.6 565.0 C 860.7 565.0 860.7 565.1 860.8 565.2 M 857.1 563.0 C 857.6 563.5 858.0 563.8 858.4 563.7 C 858.8 563.7 859.1 563.5 859.0 563.2 C 858.9 563.0 858.2 563.0 857.4 563.0 Z M 856.7 563.0 C 856.5 563.0 856.4 562.9 856.4 562.8 C 856.4 562.7 856.5 562.6 856.7 562.6 L 856.9 562.6 C 857.5 562.6 858.1 562.6 858.5 562.7 C 858.8 562.6 859.1 562.5 859.5 562.5 L 859.6 562.5 L 859.6 562.9 L 859.5 562.9 C 859.3 562.9 859.2 562.9 859.1 562.9 C 859.2 563.1 859.3 563.2 859.3 563.4 C 859.3 563.8 859.0 564.2 858.6 564.2 C 858.4 564.2 858.2 564.1 858.0 564.0 C 857.8 563.9 857.6 563.7 857.3 563.5 L 857.3 563.5 C 857.4 563.6 857.4 563.8 857.4 564.1 C 857.4 564.4 857.4 564.7 857.4 565.1 L 857.6 565.2 C 857.5 565.5 857.4 565.7 857.4 565.9 L 857.4 565.9 C 857.2 565.8 857.1 565.7 857.1 565.6 C 857.1 565.5 857.1 565.4 857.1 565.3 C 857.2 564.9 857.2 564.3 857.2 563.9 C 857.2 563.5 857.2 563.4 857.1 563.2 L 856.9 563.0 Z M 855.9 563.6 C 855.8 563.5 855.8 563.4 855.7 563.3 C 855.8 563.1 855.9 563.0 856.0 562.8 C 856.0 562.8 856.0 562.7 856.1 562.7 C 856.0 562.2 855.4 561.8 855.0 561.8 C 854.9 561.8 854.7 561.8 854.7 561.9 L 854.6 561.8 C 854.9 561.6 855.1 561.5 855.4 561.5 C 855.6 561.5 855.9 561.7 856.1 562.1 C 856.2 562.3 856.3 562.4 856.3 562.6 C 856.3 562.6 856.3 562.7 856.3 562.7 L 856.3 562.7 C 856.4 562.6 856.5 562.6 856.6 562.6 L 856.7 562.6 L 856.7 563.0 L 856.6 563.0 C 856.2 563.0 856.1 563.2 855.9 563.6 Z M 855.9 563.6 " fill="#FFFEFE"></path></g></g></g></g></g></g><g><clipPath id="clip0x6080010a03c0"><path d="M 609.2 157.0 L 935.6 151.3 L 943.6 612.5 L 617.3 618.2 Z M 609.2 157.0 "></path></clipPath><g clip-path="url(#clip0x6080010a03c0)"><g><clipPath id="clip0x6080010a0780"><path d="M 609.2 157.0 L 935.6 151.3 L 943.6 612.5 L 617.3 618.2 Z M 609.2 157.0 "></path></clipPath><g clip-path="url(#clip0x6080010a0780)"><g><clipPath id="clip0x608000cb5d80"><path d="M 617.0 168.0 L 936.0 168.0 L 936.0 603.0 L 617.0 603.0 Z M 617.0 168.0 "></path></clipPath><g clip-path="url(#clip0x608000cb5d80)"><g opacity="0.80"><g><clipPath id="clip0x6080010a2b80"><path d="M 634.4 186.2 L 911.9 181.3 L 912.5 213.1 L 635.0 218.0 Z M 634.4 186.2 "></path></clipPath><g clip-path="url(#clip0x6080010a2b80)"><g><clipPath id="clip0x6080010b11c0"><path d="M 634.1 185.9 L 912.3 181.1 L 912.9 213.5 L 634.6 218.3 Z M 634.1 185.9 "></path></clipPath><g clip-path="url(#clip0x6080010b11c0)"><g><clipPath id="clip0x6080010a97e0"><path d="M 634.0 181.0 L 913.0 181.0 L 913.0 218.0 L 634.0 218.0 Z M 634.0 181.0 "></path></clipPath><g clip-path="url(#clip0x6080010a97e0)"><path d="M 634.6 186.5 L 911.8 181.7 L 912.3 212.9 L 635.2 217.8 Z M 634.6 186.5 " fill="#24406E"></path></g></g></g></g></g></g></g><text xml:space="preserve" font-family="Helvetica,Helvetica" font-size="57.0" fill="#FFFEFE" transform="matrix(0.55, -0.01, -0.01, -0.55, 650.1, 425.2)">C</text><text xml:space="preserve" font-family="Helvetica,Helvetica" font-size="57.0" fill="#FFFEFE" transform="matrix(0.55, -0.01, -0.01, -0.55, 672.6, 424.8)">r</text><text xml:space="preserve" font-family="Helvetica,Helvetica" font-size="57.0" fill="#FFFEFE" transform="matrix(0.55, -0.01, -0.01, -0.55, 683.1, 424.7)">a</text><text xml:space="preserve" font-family="Helvetica,Helvetica" font-size="57.0" fill="#FFFEFE" transform="matrix(0.55, -0.01, -0.01, -0.55, 700.4, 424.4)">f</text><text xml:space="preserve" font-family="Helvetica,Helvetica" font-size="57.0" fill="#FFFEFE" transform="matrix(0.55, -0.01, -0.01, -0.55, 709.1, 424.2)">t</text><text xml:space="preserve" font-family="Helvetica,Helvetica" font-size="57.0" fill="#FFFEFE" transform="matrix(0.55, -0.01, -0.01, -0.55, 717.8, 424.1)"> </text><text xml:space="preserve" font-family="Helvetica,Helvetica" font-size="57.0" fill="#FFFEFE" transform="matrix(0.55, -0.01, -0.01, -0.55, 726.5, 423.9)">a</text><text xml:space="preserve" font-family="Helvetica,Helvetica" font-size="57.0" fill="#FFFEFE" transform="matrix(0.55, -0.01, -0.01, -0.55, 743.9, 423.6)">n</text><text xml:space="preserve" font-family="Helvetica,Helvetica" font-size="57.0" fill="#FFFEFE" transform="matrix(0.55, -0.01, -0.01, -0.55, 761.3, 423.3)">d</text><text xml:space="preserve" font-family="Helvetica,Helvetica" font-size="57.0" fill="#FFFEFE" transform="matrix(0.55, -0.01, -0.01, -0.55, 778.7, 423.0)"> </text><text xml:space="preserve" font-family="Helvetica,Helvetica" font-size="57.0" fill="#FFFEFE" transform="matrix(0.55, -0.01, -0.01, -0.55, 787.3, 422.8)">s</text><text xml:space="preserve" font-family="Helvetica,Helvetica" font-size="57.0" fill="#FFFEFE" transform="matrix(0.55, -0.01, -0.01, -0.55, 803.0, 422.6)">c</text><text xml:space="preserve" font-family="Helvetica,Helvetica" font-size="57.0" fill="#FFFEFE" transform="matrix(0.55, -0.01, -0.01, -0.55, 818.6, 422.3)">i</text><text xml:space="preserve" font-family="Helvetica,Helvetica" font-size="57.0" fill="#FFFEFE" transform="matrix(0.55, -0.01, -0.01, -0.55, 825.6, 422.2)">e</text><text xml:space="preserve" font-family="Helvetica,Helvetica" font-size="57.0" fill="#FFFEFE" transform="matrix(0.55, -0.01, -0.01, -0.55, 842.9, 421.9)">n</text><text xml:space="preserve" font-family="Helvetica,Helvetica" font-size="57.0" fill="#FFFEFE" transform="matrix(0.55, -0.01, -0.01, -0.55, 860.3, 421.6)">c</text><text xml:space="preserve" font-family="Helvetica,Helvetica" font-size="57.0" fill="#FFFEFE" transform="matrix(0.55, -0.01, -0.01, -0.55, 876.0, 421.3)">e</text><text xml:space="preserve" font-family="Helvetica,Helvetica" font-size="35.0" fill="#FDFBFB" transform="matrix(0.55, -0.01, -0.01, -0.55, 647.0, 399.2)">I</text><text xml:space="preserve" font-family="Helvetica,Helvetica" font-size="35.0" fill="#FDFBFB" transform="matrix(0.55, -0.01, -0.01, -0.55, 652.3, 399.1)">n</text><text xml:space="preserve" font-family="Helvetica,Helvetica" font-size="35.0" fill="#FDFBFB" transform="matrix(0.55, -0.01, -0.01, -0.55, 663.0, 398.9)">t</text><text xml:space="preserve" font-family="Helvetica,Helvetica" font-size="35.0" fill="#FDFBFB" transform="matrix(0.55, -0.01, -0.01, -0.55, 668.4, 398.8)">e</text><text xml:space="preserve" font-family="Helvetica,Helvetica" font-size="35.0" fill="#FDFBFB" transform="matrix(0.55, -0.01, -0.01, -0.55, 679.0, 398.6)">r</text><text xml:space="preserve" font-family="Helvetica,Helvetica" font-size="35.0" fill="#FDFBFB" transform="matrix(0.55, -0.01, -0.01, -0.55, 685.4, 398.5)">n</text><text xml:space="preserve" font-family="Helvetica,Helvetica" font-size="35.0" fill="#FDFBFB" transform="matrix(0.55, -0.01, -0.01, -0.55, 696.1, 398.3)">a</text><text xml:space="preserve" font-family="Helvetica,Helvetica" font-size="35.0" fill="#FDFBFB" transform="matrix(0.55, -0.01, -0.01, -0.55, 706.8, 398.2)">t</text><text xml:space="preserve" font-family="Helvetica,Helvetica" font-size="35.0" fill="#FDFBFB" transform="matrix(0.55, -0.01, -0.01, -0.55, 712.1, 398.1)">i</text><text xml:space="preserve" font-family="Helvetica,Helvetica" font-size="35.0" fill="#FDFBFB" transform="matrix(0.55, -0.01, -0.01, -0.55, 716.4, 398.0)">o</text><text xml:space="preserve" font-family="Helvetica,Helvetica" font-size="35.0" fill="#FDFBFB" transform="matrix(0.55, -0.01, -0.01, -0.55, 727.1, 397.8)">n</text><text xml:space="preserve" font-family="Helvetica,Helvetica" font-size="35.0" fill="#FDFBFB" transform="matrix(0.55, -0.01, -0.01, -0.55, 737.7, 397.6)">a</text><text xml:space="preserve" font-family="Helvetica,Helvetica" font-size="35.0" fill="#FDFBFB" transform="matrix(0.55, -0.01, -0.01, -0.55, 748.4, 397.4)">l</text><text xml:space="preserve" font-family="Helvetica,Helvetica" font-size="35.0" fill="#FDFBFB" transform="matrix(0.55, -0.01, -0.01, -0.55, 752.7, 397.3)"> </text><text xml:space="preserve" font-family="Helvetica,Helvetica" font-size="35.0" fill="#FDFBFB" transform="matrix(0.55, -0.01, -0.01, -0.55, 758.0, 397.3)">p</text><text xml:space="preserve" font-family="Helvetica,Helvetica" font-size="35.0" fill="#FDFBFB" transform="matrix(0.55, -0.01, -0.01, -0.55, 768.7, 397.1)">e</text><text xml:space="preserve" font-family="Helvetica,Helvetica" font-size="35.0" fill="#FDFBFB" transform="matrix(0.55, -0.01, -0.01, -0.55, 779.4, 396.9)">r</text><text xml:space="preserve" font-family="Helvetica,Helvetica" font-size="35.0" fill="#FDFBFB" transform="matrix(0.55, -0.01, -0.01, -0.55, 785.7, 396.8)">s</text><text xml:space="preserve" font-family="Helvetica,Helvetica" font-size="35.0" fill="#FDFBFB" transform="matrix(0.55, -0.01, -0.01, -0.55, 795.3, 396.6)">p</text><text xml:space="preserve" font-family="Helvetica,Helvetica" font-size="35.0" fill="#FDFBFB" transform="matrix(0.55, -0.01, -0.01, -0.55, 806.0, 396.4)">e</text><text xml:space="preserve" font-family="Helvetica,Helvetica" font-size="35.0" fill="#FDFBFB" transform="matrix(0.55, -0.01, -0.01, -0.55, 816.7, 396.2)">c</text><text xml:space="preserve" font-family="Helvetica,Helvetica" font-size="35.0" fill="#FDFBFB" transform="matrix(0.55, -0.01, -0.01, -0.55, 826.3, 396.1)">t</text><text xml:space="preserve" font-family="Helvetica,Helvetica" font-size="35.0" fill="#FDFBFB" transform="matrix(0.55, -0.01, -0.01, -0.55, 831.6, 396.0)">i</text><text xml:space="preserve" font-family="Helvetica,Helvetica" font-size="35.0" fill="#FDFBFB" transform="matrix(0.55, -0.01, -0.01, -0.55, 835.9, 395.9)">v</text><text xml:space="preserve" font-family="Helvetica,Helvetica" font-size="35.0" fill="#FDFBFB" transform="matrix(0.55, -0.01, -0.01, -0.55, 845.5, 395.7)">e</text><text xml:space="preserve" font-family="Helvetica,Helvetica" font-size="35.0" fill="#FDFBFB" transform="matrix(0.55, -0.01, -0.01, -0.55, 856.2, 395.5)">s</text><text xml:space="preserve" font-family="Helvetica,Helvetica" font-size="35.0" fill="#FDFBFB" transform="matrix(0.55, -0.01, -0.01, -0.55, 865.8, 395.4)"> </text><text xml:space="preserve" font-family="Helvetica,Helvetica" font-size="35.0" fill="#FDFBFB" transform="matrix(0.55, -0.01, -0.01, -0.55, 871.1, 395.3)">o</text><text xml:space="preserve" font-family="Helvetica,Helvetica" font-size="35.0" fill="#FDFBFB" transform="matrix(0.55, -0.01, -0.01, -0.55, 881.8, 395.1)">n</text><text xml:space="preserve" font-family="Helvetica,Helvetica" font-size="43.5" fill="#FFFEFE" transform="matrix(0.55, -0.01, -0.01, -0.55, 646.4, 372.9)">a</text><text xml:space="preserve" font-family="Helvetica,Helvetica" font-size="43.5" fill="#FFFEFE" transform="matrix(0.55, -0.01, -0.01, -0.55, 659.7, 372.6)">r</text><text xml:space="preserve" font-family="Helvetica,Helvetica" font-size="43.5" fill="#FFFEFE" transform="matrix(0.55, -0.01, -0.01, -0.55, 667.6, 372.5)">c</text><text xml:space="preserve" font-family="Helvetica,Helvetica" font-size="43.5" fill="#FFFEFE" transform="matrix(0.55, -0.01, -0.01, -0.55, 679.5, 372.3)">h</text><text xml:space="preserve" font-family="Helvetica,Helvetica" font-size="43.5" fill="#FFFEFE" transform="matrix(0.55, -0.01, -0.01, -0.55, 692.8, 372.1)">a</text><text xml:space="preserve" font-family="Helvetica,Helvetica" font-size="43.5" fill="#FFFEFE" transform="matrix(0.55, -0.01, -0.01, -0.55, 706.1, 371.8)">e</text><text xml:space="preserve" font-family="Helvetica,Helvetica" font-size="43.5" fill="#FFFEFE" transform="matrix(0.55, -0.01, -0.01, -0.55, 719.4, 371.6)">o</text><text xml:space="preserve" font-family="Helvetica,Helvetica" font-size="43.5" fill="#FFFEFE" transform="matrix(0.55, -0.01, -0.01, -0.55, 732.6, 371.4)">l</text><text xml:space="preserve" font-family="Helvetica,Helvetica" font-size="43.5" fill="#FFFEFE" transform="matrix(0.55, -0.01, -0.01, -0.55, 737.9, 371.3)">o</text><text xml:space="preserve" font-family="Helvetica,Helvetica" font-size="43.5" fill="#FFFEFE" transform="matrix(0.55, -0.01, -0.01, -0.55, 751.2, 371.0)">g</text><text xml:space="preserve" font-family="Helvetica,Helvetica" font-size="43.5" fill="#FFFEFE" transform="matrix(0.55, -0.01, -0.01, -0.55, 764.5, 370.8)">i</text><text xml:space="preserve" font-family="Helvetica,Helvetica" font-size="43.5" fill="#FFFEFE" transform="matrix(0.55, -0.01, -0.01, -0.55, 769.8, 370.7)">c</text><text xml:space="preserve" font-family="Helvetica,Helvetica" font-size="43.5" fill="#FFFEFE" transform="matrix(0.55, -0.01, -0.01, -0.55, 781.7, 370.5)">a</text><text xml:space="preserve" font-family="Helvetica,Helvetica" font-size="43.5" fill="#FFFEFE" transform="matrix(0.55, -0.01, -0.01, -0.55, 795.0, 370.3)">l</text><text xml:space="preserve" font-family="Helvetica,Helvetica" font-size="43.5" fill="#FFFEFE" transform="matrix(0.55, -0.01, -0.01, -0.55, 800.3, 370.2)"> </text><text xml:space="preserve" font-family="Helvetica,Helvetica" font-size="43.5" fill="#FFFEFE" transform="matrix(0.55, -0.01, -0.01, -0.55, 806.9, 370.1)">c</text><text xml:space="preserve" font-family="Helvetica,Helvetica" font-size="43.5" fill="#FFFEFE" transform="matrix(0.55, -0.01, -0.01, -0.55, 818.8, 369.9)">e</text><text xml:space="preserve" font-family="Helvetica,Helvetica" font-size="43.5" fill="#FFFEFE" transform="matrix(0.55, -0.01, -0.01, -0.55, 832.1, 369.6)">r</text><text xml:space="preserve" font-family="Helvetica,Helvetica" font-size="43.5" fill="#FFFEFE" transform="matrix(0.55, -0.01, -0.01, -0.55, 840.0, 369.5)">a</text><text xml:space="preserve" font-family="Helvetica,Helvetica" font-size="43.5" fill="#FFFEFE" transform="matrix(0.55, -0.01, -0.01, -0.55, 853.3, 369.3)">m</text><text xml:space="preserve" font-family="Helvetica,Helvetica" font-size="43.5" fill="#FFFEFE" transform="matrix(0.55, -0.01, -0.01, -0.55, 873.2, 368.9)">i</text><text xml:space="preserve" font-family="Helvetica,Helvetica" font-size="43.5" fill="#FFFEFE" transform="matrix(0.55, -0.01, -0.01, -0.55, 878.5, 368.8)">c</text><text xml:space="preserve" font-family="Helvetica,Helvetica" font-size="43.5" fill="#FFFEFE" transform="matrix(0.55, -0.01, -0.01, -0.55, 890.4, 368.6)">s</text><text xml:space="preserve" font-family="Helvetica,Helvetica" font-size="24.0" fill="#FFFEFE" transform="matrix(0.55, -0.01, -0.01, -0.55, 646.0, 345.1)">E</text><text xml:space="preserve" font-family="Helvetica,Helvetica" font-size="24.0" fill="#FFFEFE" transform="matrix(0.55, -0.01, -0.01, -0.55, 654.8, 345.0)">d</text><text xml:space="preserve" font-family="Helvetica,Helvetica" font-size="24.0" fill="#FFFEFE" transform="matrix(0.55, -0.01, -0.01, -0.55, 662.1, 344.8)">i</text><text xml:space="preserve" font-family="Helvetica,Helvetica" font-size="24.0" fill="#FFFEFE" transform="matrix(0.55, -0.01, -0.01, -0.55, 665.0, 344.8)">t</text><text xml:space="preserve" font-family="Helvetica,Helvetica" font-size="24.0" fill="#FFFEFE" transform="matrix(0.55, -0.01, -0.01, -0.55, 668.7, 344.7)">e</text><text xml:space="preserve" font-family="Helvetica,Helvetica" font-size="24.0" fill="#FFFEFE" transform="matrix(0.55, -0.01, -0.01, -0.55, 676.0, 344.6)">d</text><text xml:space="preserve" font-family="Helvetica,Helvetica" font-size="24.0" fill="#FFFEFE" transform="matrix(0.55, -0.01, -0.01, -0.55, 683.3, 344.5)"> </text><text xml:space="preserve" font-family="Helvetica,Helvetica" font-size="24.0" fill="#FFFEFE" transform="matrix(0.55, -0.01, -0.01, -0.55, 687.0, 344.4)">b</text><text xml:space="preserve" font-family="Helvetica,Helvetica" font-size="24.0" fill="#FFFEFE" transform="matrix(0.55, -0.01, -0.01, -0.55, 694.3, 344.3)">y</text><text xml:space="preserve" font-family="Helvetica,Helvetica" font-size="24.0" fill="#FFFEFE" transform="matrix(0.55, -0.01, -0.01, -0.55, 700.9, 344.2)"> </text><text xml:space="preserve" font-family="Helvetica,Helvetica" font-size="24.0" fill="#FFFEFE" transform="matrix(0.55, -0.01, -0.01, -0.55, 704.5, 344.1)">M</text><text xml:space="preserve" font-family="Helvetica,Helvetica" font-size="24.0" fill="#FFFEFE" transform="matrix(0.55, -0.01, -0.01, -0.55, 715.5, 343.9)">a</text><text xml:space="preserve" font-family="Helvetica,Helvetica" font-size="24.0" fill="#FFFEFE" transform="matrix(0.55, -0.01, -0.01, -0.55, 722.8, 343.8)">r</text><text xml:space="preserve" font-family="Helvetica,Helvetica" font-size="24.0" fill="#FFFEFE" transform="matrix(0.55, -0.01, -0.01, -0.55, 727.2, 343.7)">c</text><text xml:space="preserve" font-family="Helvetica,Helvetica" font-size="24.0" fill="#FFFEFE" transform="matrix(0.55, -0.01, -0.01, -0.55, 733.8, 343.6)">o</text><text xml:space="preserve" font-family="Helvetica,Helvetica" font-size="24.0" fill="#FFFEFE" transform="matrix(0.55, -0.01, -0.01, -0.55, 741.1, 343.5)">s</text><text xml:space="preserve" font-family="Helvetica,Helvetica" font-size="24.0" fill="#FFFEFE" transform="matrix(0.55, -0.01, -0.01, -0.55, 747.7, 343.3)"> </text><text xml:space="preserve" font-family="Helvetica,Helvetica" font-size="24.0" fill="#FFFEFE" transform="matrix(0.55, -0.01, -0.01, -0.55, 751.3, 343.3)">M</text><text xml:space="preserve" font-family="Helvetica,Helvetica" font-size="24.0" fill="#FFFEFE" transform="matrix(0.55, -0.01, -0.01, -0.55, 762.3, 343.1)">a</text><text xml:space="preserve" font-family="Helvetica,Helvetica" font-size="24.0" fill="#FFFEFE" transform="matrix(0.55, -0.01, -0.01, -0.55, 769.6, 343.0)">r</text><text xml:space="preserve" font-family="Helvetica,Helvetica" font-size="24.0" fill="#FFFEFE" transform="matrix(0.55, -0.01, -0.01, -0.55, 774.0, 342.9)">t</text><text xml:space="preserve" font-family="Helvetica,Helvetica" font-size="24.0" fill="#FFFEFE" transform="matrix(0.55, -0.01, -0.01, -0.55, 777.7, 342.8)">i</text><text xml:space="preserve" font-family="Helvetica,Helvetica" font-size="24.0" fill="#FFFEFE" transform="matrix(0.55, -0.01, -0.01, -0.55, 780.6, 342.8)">n</text><text xml:space="preserve" font-family="Helvetica,Helvetica" font-size="24.0" fill="#FFFEFE" transform="matrix(0.55, -0.01, -0.01, -0.55, 787.9, 342.6)">รณ</text><text xml:space="preserve" font-family="Helvetica,Helvetica" font-size="24.0" fill="#FFFEFE" transform="matrix(0.55, -0.01, -0.01, -0.55, 795.2, 342.5)">n</text><text xml:space="preserve" font-family="Helvetica,Helvetica" font-size="24.0" fill="#FFFEFE" transform="matrix(0.55, -0.01, -0.01, -0.55, 802.5, 342.4)">-</text><text xml:space="preserve" font-family="Helvetica,Helvetica" font-size="24.0" fill="#FFFEFE" transform="matrix(0.55, -0.01, -0.01, -0.55, 806.9, 342.3)">T</text><text xml:space="preserve" font-family="Helvetica,Helvetica" font-size="24.0" fill="#FFFEFE" transform="matrix(0.55, -0.01, -0.01, -0.55, 815.0, 342.2)">o</text><text xml:space="preserve" font-family="Helvetica,Helvetica" font-size="24.0" fill="#FFFEFE" transform="matrix(0.55, -0.01, -0.01, -0.55, 822.3, 342.0)">r</text><text xml:space="preserve" font-family="Helvetica,Helvetica" font-size="24.0" fill="#FFFEFE" transform="matrix(0.55, -0.01, -0.01, -0.55, 826.7, 342.0)">r</text><text xml:space="preserve" font-family="Helvetica,Helvetica" font-size="24.0" fill="#FFFEFE" transform="matrix(0.55, -0.01, -0.01, -0.55, 831.1, 341.9)">e</text><text xml:space="preserve" font-family="Helvetica,Helvetica" font-size="24.0" fill="#FFFEFE" transform="matrix(0.55, -0.01, -0.01, -0.55, 838.4, 341.8)">s</text><text xml:space="preserve" font-family="AdobeArabic-Regular,Adobe Arabic" font-size="80.0" fill="#FFFEFE" transform="matrix(0.55, -0.01, -0.01, -0.55, 903.6, 421.4)">:</text><text xml:space="preserve" font-family="Helvetica,Helvetica" font-size="14.0" fill="#FFFEFE" transform="matrix(0.55, -0.01, -0.01, -0.55, 650.8, 205.2)">U</text><text xml:space="preserve" font-family="Helvetica,Helvetica" font-size="14.0" fill="#FFFEFE" transform="matrix(0.55, -0.01, -0.01, -0.55, 656.3, 205.1)">C</text><text xml:space="preserve" font-family="Helvetica,Helvetica" font-size="14.0" fill="#FFFEFE" transform="matrix(0.55, -0.01, -0.01, -0.55, 661.9, 205.0)">L</text><text xml:space="preserve" font-family="Helvetica,Helvetica" font-size="14.0" fill="#FFFEFE" transform="matrix(0.55, -0.01, -0.01, -0.55, 666.1, 205.0)"> </text><text xml:space="preserve" font-family="Helvetica,Helvetica" font-size="14.0" fill="#FFFEFE" transform="matrix(0.55, -0.01, -0.01, -0.55, 668.3, 204.9)">Q</text><text xml:space="preserve" font-family="Helvetica,Helvetica" font-size="14.0" fill="#FFFEFE" transform="matrix(0.55, -0.01, -0.01, -0.55, 674.2, 204.8)">a</text><text xml:space="preserve" font-family="Helvetica,Helvetica" font-size="14.0" fill="#FFFEFE" transform="matrix(0.55, -0.01, -0.01, -0.55, 678.5, 204.7)">t</text><text xml:space="preserve" font-family="Helvetica,Helvetica" font-size="14.0" fill="#FFFEFE" transform="matrix(0.55, -0.01, -0.01, -0.55, 680.6, 204.7)">a</text><text xml:space="preserve" font-family="Helvetica,Helvetica" font-size="14.0" fill="#FFFEFE" transform="matrix(0.55, -0.01, -0.01, -0.55, 684.9, 204.6)">r</text><text xml:space="preserve" font-family="Helvetica,Helvetica" font-size="14.0" fill="#FFFEFE" transform="matrix(0.55, -0.01, -0.01, -0.55, 687.5, 204.6)"> </text><text xml:space="preserve" font-family="Helvetica,Helvetica" font-size="14.0" fill="#FFFEFE" transform="matrix(0.55, -0.01, -0.01, -0.55, 689.6, 204.6)">S</text><text xml:space="preserve" font-family="Helvetica,Helvetica" font-size="14.0" fill="#FFFEFE" transform="matrix(0.55, -0.01, -0.01, -0.55, 694.7, 204.5)">e</text><text xml:space="preserve" font-family="Helvetica,Helvetica" font-size="14.0" fill="#FFFEFE" transform="matrix(0.55, -0.01, -0.01, -0.55, 699.0, 204.4)">r</text><text xml:space="preserve" font-family="Helvetica,Helvetica" font-size="14.0" fill="#FFFEFE" transform="matrix(0.55, -0.01, -0.01, -0.55, 701.6, 204.3)">i</text><text xml:space="preserve" font-family="Helvetica,Helvetica" font-size="14.0" fill="#FFFEFE" transform="matrix(0.55, -0.01, -0.01, -0.55, 703.3, 204.3)">e</text><text xml:space="preserve" font-family="Helvetica,Helvetica" font-size="14.0" fill="#FFFEFE" transform="matrix(0.55, -0.01, -0.01, -0.55, 707.5, 204.2)">s</text><text xml:space="preserve" font-family="Helvetica,Helvetica" font-size="14.0" fill="#FFFEFE" transform="matrix(0.55, -0.01, -0.01, -0.55, 711.4, 204.2)"> </text><text xml:space="preserve" font-family="Helvetica,Helvetica" font-size="14.0" fill="#FFFEFE" transform="matrix(0.55, -0.01, -0.01, -0.55, 713.5, 204.1)">i</text><text xml:space="preserve" font-family="Helvetica,Helvetica" font-size="14.0" fill="#FFFEFE" transform="matrix(0.55, -0.01, -0.01, -0.55, 715.2, 204.1)">n</text><text xml:space="preserve" font-family="Helvetica,Helvetica" font-size="14.0" fill="#FFFEFE" transform="matrix(0.55, -0.01, -0.01, -0.55, 719.5, 204.0)"> </text><text xml:space="preserve" font-family="Helvetica,Helvetica" font-size="14.0" fill="#FFFEFE" transform="matrix(0.55, -0.01, -0.01, -0.55, 721.6, 204.0)">A</text><text xml:space="preserve" font-family="Helvetica,Helvetica" font-size="14.0" fill="#FFFEFE" transform="matrix(0.55, -0.01, -0.01, -0.55, 726.7, 203.9)">r</text><text xml:space="preserve" font-family="Helvetica,Helvetica" font-size="14.0" fill="#FFFEFE" transform="matrix(0.55, -0.01, -0.01, -0.55, 729.3, 203.9)">c</text><text xml:space="preserve" font-family="Helvetica,Helvetica" font-size="14.0" fill="#FFFEFE" transform="matrix(0.55, -0.01, -0.01, -0.55, 733.1, 203.8)">h</text><text xml:space="preserve" font-family="Helvetica,Helvetica" font-size="14.0" fill="#FFFEFE" transform="matrix(0.55, -0.01, -0.01, -0.55, 737.4, 203.7)">a</text><text xml:space="preserve" font-family="Helvetica,Helvetica" font-size="14.0" fill="#FFFEFE" transform="matrix(0.55, -0.01, -0.01, -0.55, 741.7, 203.6)">e</text><text xml:space="preserve" font-family="Helvetica,Helvetica" font-size="14.0" fill="#FFFEFE" transform="matrix(0.55, -0.01, -0.01, -0.55, 745.9, 203.6)">o</text><text xml:space="preserve" font-family="Helvetica,Helvetica" font-size="14.0" fill="#FFFEFE" transform="matrix(0.55, -0.01, -0.01, -0.55, 750.2, 203.5)">l</text><text xml:space="preserve" font-family="Helvetica,Helvetica" font-size="14.0" fill="#FFFEFE" transform="matrix(0.55, -0.01, -0.01, -0.55, 751.9, 203.5)">o</text><text xml:space="preserve" font-family="Helvetica,Helvetica" font-size="14.0" fill="#FFFEFE" transform="matrix(0.55, -0.01, -0.01, -0.55, 756.2, 203.4)">g</text><text xml:space="preserve" font-family="Helvetica,Helvetica" font-size="14.0" fill="#FFFEFE" transform="matrix(0.55, -0.01, -0.01, -0.55, 760.5, 203.3)">y</text><text xml:space="preserve" font-family="Helvetica,Helvetica" font-size="14.0" fill="#FFFEFE" transform="matrix(0.55, -0.01, -0.01, -0.55, 764.3, 203.2)"> </text><text xml:space="preserve" font-family="Helvetica,Helvetica" font-size="14.0" fill="#FFFEFE" transform="matrix(0.55, -0.01, -0.01, -0.55, 766.4, 203.2)">a</text><text xml:space="preserve" font-family="Helvetica,Helvetica" font-size="14.0" fill="#FFFEFE" transform="matrix(0.55, -0.01, -0.01, -0.55, 770.7, 203.1)">n</text><text xml:space="preserve" font-family="Helvetica,Helvetica" font-size="14.0" fill="#FFFEFE" transform="matrix(0.55, -0.01, -0.01, -0.55, 775.0, 203.1)">d</text><text xml:space="preserve" font-family="Helvetica,Helvetica" font-size="14.0" fill="#FFFEFE" transform="matrix(0.55, -0.01, -0.01, -0.55, 779.2, 203.0)"> </text><text xml:space="preserve" font-family="Helvetica,Helvetica" font-size="14.0" fill="#FFFEFE" transform="matrix(0.55, -0.01, -0.01, -0.55, 781.4, 203.0)">C</text><text xml:space="preserve" font-family="Helvetica,Helvetica" font-size="14.0" fill="#FFFEFE" transform="matrix(0.55, -0.01, -0.01, -0.55, 786.9, 202.9)">u</text><text xml:space="preserve" font-family="Helvetica,Helvetica" font-size="14.0" fill="#FFFEFE" transform="matrix(0.55, -0.01, -0.01, -0.55, 791.2, 202.8)">l</text><text xml:space="preserve" font-family="Helvetica,Helvetica" font-size="14.0" fill="#FFFEFE" transform="matrix(0.55, -0.01, -0.01, -0.55, 792.9, 202.7)">t</text><text xml:space="preserve" font-family="Helvetica,Helvetica" font-size="14.0" fill="#FFFEFE" transform="matrix(0.55, -0.01, -0.01, -0.55, 795.0, 202.7)">u</text><text xml:space="preserve" font-family="Helvetica,Helvetica" font-size="14.0" fill="#FFFEFE" transform="matrix(0.55, -0.01, -0.01, -0.55, 799.3, 202.6)">r</text><text xml:space="preserve" font-family="Helvetica,Helvetica" font-size="14.0" fill="#FFFEFE" transform="matrix(0.55, -0.01, -0.01, -0.55, 801.9, 202.6)">a</text><text xml:space="preserve" font-family="Helvetica,Helvetica" font-size="14.0" fill="#FFFEFE" transform="matrix(0.55, -0.01, -0.01, -0.55, 806.1, 202.5)">l</text><text xml:space="preserve" font-family="Helvetica,Helvetica" font-size="14.0" fill="#FFFEFE" transform="matrix(0.55, -0.01, -0.01, -0.55, 807.8, 202.5)"> </text><text xml:space="preserve" font-family="Helvetica,Helvetica" font-size="14.0" fill="#FFFEFE" transform="matrix(0.55, -0.01, -0.01, -0.55, 810.0, 202.5)">H</text><text xml:space="preserve" font-family="Helvetica,Helvetica" font-size="14.0" fill="#FFFEFE" transform="matrix(0.55, -0.01, -0.01, -0.55, 815.5, 202.4)">e</text><text xml:space="preserve" font-family="Helvetica,Helvetica" font-size="14.0" fill="#FFFEFE" transform="matrix(0.55, -0.01, -0.01, -0.55, 819.8, 202.3)">r</text><text xml:space="preserve" font-family="Helvetica,Helvetica" font-size="14.0" fill="#FFFEFE" transform="matrix(0.55, -0.01, -0.01, -0.55, 822.3, 202.2)">i</text><text xml:space="preserve" font-family="Helvetica,Helvetica" font-size="14.0" fill="#FFFEFE" transform="matrix(0.55, -0.01, -0.01, -0.55, 824.0, 202.2)">t</text><text xml:space="preserve" font-family="Helvetica,Helvetica" font-size="14.0" fill="#FFFEFE" transform="matrix(0.55, -0.01, -0.01, -0.55, 826.2, 202.2)">a</text><text xml:space="preserve" font-family="Helvetica,Helvetica" font-size="14.0" fill="#FFFEFE" transform="matrix(0.55, -0.01, -0.01, -0.55, 830.5, 202.1)">g</text><text xml:space="preserve" font-family="Helvetica,Helvetica" font-size="14.0" fill="#FFFEFE" transform="matrix(0.55, -0.01, -0.01, -0.55, 834.7, 202.0)">e</text><text xml:space="preserve" font-family="Helvetica,Helvetica" font-size="13.0" fill="#FFFEFE" transform="matrix(0.55, -0.01, -0.01, -0.55, 776.5, 191.9)">I</text><text xml:space="preserve" font-family="Helvetica,Helvetica" font-size="13.0" fill="#FFFEFE" transform="matrix(0.55, -0.01, -0.01, -0.55, 778.5, 191.9)">S</text><text xml:space="preserve" font-family="Helvetica,Helvetica" font-size="13.0" fill="#FFFEFE" transform="matrix(0.55, -0.01, -0.01, -0.55, 783.2, 191.8)">S</text><text xml:space="preserve" font-family="Helvetica,Helvetica" font-size="13.0" fill="#FFFEFE" transform="matrix(0.55, -0.01, -0.01, -0.55, 788.0, 191.7)">N</text><text xml:space="preserve" font-family="Helvetica,Helvetica" font-size="9.0" fill="#FFFEFE" transform="matrix(0.55, -0.01, -0.01, -0.55, 793.3, 191.6)"> </text><text xml:space="preserve" font-family="Helvetica,Helvetica" font-size="13.0" fill="#FFFEFE" transform="matrix(0.55, -0.01, -0.01, -0.55, 794.6, 191.6)">2</text><text xml:space="preserve" font-family="Helvetica,Helvetica" font-size="13.0" fill="#FFFEFE" transform="matrix(0.55, -0.01, -0.01, -0.55, 798.6, 191.5)">3</text><text xml:space="preserve" font-family="Helvetica,Helvetica" font-size="13.0" fill="#FFFEFE" transform="matrix(0.55, -0.01, -0.01, -0.55, 802.5, 191.5)">1</text><text xml:space="preserve" font-family="Helvetica,Helvetica" font-size="13.0" fill="#FFFEFE" transform="matrix(0.55, -0.01, -0.01, -0.55, 806.5, 191.4)">2</text><text xml:space="preserve" font-family="Helvetica,Helvetica" font-size="13.0" fill="#FFFEFE" transform="matrix(0.55, -0.01, -0.01, -0.55, 810.5, 191.3)">-</text><text xml:space="preserve" font-family="Helvetica,Helvetica" font-size="13.0" fill="#FFFEFE" transform="matrix(0.55, -0.01, -0.01, -0.55, 812.9, 191.3)">5</text><text xml:space="preserve" font-family="Helvetica,Helvetica" font-size="13.0" fill="#FFFEFE" transform="matrix(0.55, -0.01, -0.01, -0.55, 816.8, 191.2)">0</text><text xml:space="preserve" font-family="Helvetica,Helvetica" font-size="13.0" fill="#FFFEFE" transform="matrix(0.55, -0.01, -0.01, -0.55, 820.8, 191.1)">0</text><text xml:space="preserve" font-family="Helvetica,Helvetica" font-size="13.0" fill="#FFFEFE" transform="matrix(0.55, -0.01, -0.01, -0.55, 824.8, 191.1)">4</text><text xml:space="preserve" font-family="Helvetica,Helvetica" font-size="14.0" fill="#FFFEFE" transform="matrix(0.55, -0.01, -0.01, -0.55, 872.7, 190.6)">V</text><text xml:space="preserve" font-family="Helvetica,Helvetica" font-size="14.0" fill="#FFFEFE" transform="matrix(0.55, -0.01, -0.01, -0.55, 877.8, 190.6)">o</text><text xml:space="preserve" font-family="Helvetica,Helvetica" font-size="14.0" fill="#FFFEFE" transform="matrix(0.55, -0.01, -0.01, -0.55, 882.1, 190.5)">l</text><text xml:space="preserve" font-family="Helvetica,Helvetica" font-size="14.0" fill="#FFFEFE" transform="matrix(0.55, -0.01, -0.01, -0.55, 883.8, 190.4)">.</text><text xml:space="preserve" font-family="Helvetica,Helvetica" font-size="14.0" fill="#FFFEFE" transform="matrix(0.55, -0.01, -0.01, -0.55, 885.9, 190.4)"> </text><text xml:space="preserve" font-family="Helvetica,Helvetica" font-size="23.0" fill="#FFFEFE" transform="matrix(0.55, -0.01, -0.01, -0.55, 888.7, 190.4)">1</text></g></g></g></g></g></g></g></g></g></g></g></g></g><image xlink:href="53D769B3E69270E714389E993D5AC51B.png" width="373.00" height="487.00" transform="matrix(1.00, 0.00, -0.00, 1.00, 590.0, 140.5)"></image><text xml:space="preserve" font-family="AmericanTypewriter,American Typewriter" font-size="70.0" fill="#6E5F3B" transform="matrix(1.00, 0.00, -0.00, -1.00, 99.6, 466.5)">T</text><text xml:space="preserve" font-family="AmericanTypewriter,American Typewriter" font-size="70.0" fill="#6E5F3B" transform="matrix(1.00, 0.00, -0.00, -1.00, 147.1, 466.5)">Y</text><text xml:space="preserve" font-family="AmericanTypewriter,American Typewriter" font-size="70.0" fill="#6E5F3B" transform="matrix(1.00, 0.00, -0.00, -1.00, 198.8, 466.5)">P</text><text xml:space="preserve" font-family="AmericanTypewriter,American Typewriter" font-size="70.0" fill="#6E5F3B" transform="matrix(1.00, 0.00, -0.00, -1.00, 244.1, 466.5)">E</text><text xml:space="preserve" font-family="AmericanTypewriter,American Typewriter" font-size="70.0" fill="#6E5F3B" transform="matrix(1.00, 0.00, -0.00, -1.00, 291.9, 466.5)">S</text><text xml:space="preserve" font-family="AmericanTypewriter,American Typewriter" font-size="70.0" fill="#6E5F3B" transform="matrix(1.00, 0.00, -0.00, -1.00, 335.9, 466.5)"> </text><text xml:space="preserve" font-family="AmericanTypewriter,American Typewriter" font-size="70.0" fill="#6E5F3B" transform="matrix(1.00, 0.00, -0.00, -1.00, 354.1, 466.5)">O</text><text xml:space="preserve" font-family="AmericanTypewriter,American Typewriter" font-size="70.0" fill="#6E5F3B" transform="matrix(1.00, 0.00, -0.00, -1.00, 400.7, 466.5)">F</text><text xml:space="preserve" font-family="AmericanTypewriter,American Typewriter" font-size="70.0" fill="#6E5F3B" transform="matrix(1.00, 0.00, -0.00, -1.00, 444.7, 466.5)"> </text><text xml:space="preserve" font-family="AmericanTypewriter,American Typewriter" font-size="70.0" fill="#6E5F3B" transform="matrix(1.00, 0.00, -0.00, -1.00, 462.9, 466.5)">O</text><text xml:space="preserve" font-family="AmericanTypewriter,American Typewriter" font-size="70.0" fill="#6E5F3B" transform="matrix(1.00, 0.00, -0.00, -1.00, 507.5, 466.5)">A</text><text xml:space="preserve" font-family="AmericanTypewriter,American Typewriter" font-size="70.0" fill="#6E5F3B" transform="matrix(1.00, 0.00, -0.00, -1.00, 560.4, 466.5)"> </text><text xml:space="preserve" font-family="AmericanTypewriter,American Typewriter" font-size="70.0" fill="#6E5F3B" transform="matrix(1.00, 0.00, -0.00, -1.00, 231.1, 385.5)">B</text><text xml:space="preserve" font-family="AmericanTypewriter,American Typewriter" font-size="70.0" fill="#6E5F3B" transform="matrix(1.00, 0.00, -0.00, -1.00, 280.3, 385.5)">O</text><text xml:space="preserve" font-family="AmericanTypewriter,American Typewriter" font-size="70.0" fill="#6E5F3B" transform="matrix(1.00, 0.00, -0.00, -1.00, 326.8, 385.5)">O</text><text xml:space="preserve" font-family="AmericanTypewriter,American Typewriter" font-size="70.0" fill="#6E5F3B" transform="matrix(1.00, 0.00, -0.00, -1.00, 373.4, 385.5)">K</text></g></svg>