<?xml version="1.0" encoding="UTF-8" standalone="no"?><svg xmlns="http://www.w3.org/2000/svg" xmlns:xlink="http://www.w3.org/1999/xlink" clip-rule="evenodd" stroke-miterlimit="10" viewBox="0 0 1024 768"><desc>SVG generated by Keynote</desc><defs></defs><g transform="matrix(1.00, 0.00, -0.00, -1.00, 0.0, 768.0)"><g><clipPath id="clip0x600000ab6da0"><path d="M 0.0 768.0 L 1024.0 768.0 L 1024.0 0.0 L 0.0 0.0 Z M 0.0 768.0 "></path></clipPath><g clip-path="url(#clip0x600000ab6da0)"><image xlink:href="../../45DA958D-0BF7-418D-8F04-7EBED7B3F604/assets/7DDA4CC5426700CA34754E241DBFD959.jpeg" width="2048.00" height="1536.00" transform="matrix(0.50, 0.00, -0.00, -0.50, 0.0, 768.0)"></image></g></g><text xml:space="preserve" font-family="AmericanTypewriter,American Typewriter" font-size="70.0" fill="#6E5F3B" transform="matrix(1.00, 0.00, -0.00, -1.00, 369.0, 632.5)">T</text><text xml:space="preserve" font-family="AmericanTypewriter,American Typewriter" font-size="70.0" fill="#6E5F3B" transform="matrix(1.00, 0.00, -0.00, -1.00, 413.2, 632.5)">e</text><text xml:space="preserve" font-family="AmericanTypewriter,American Typewriter" font-size="70.0" fill="#6E5F3B" transform="matrix(1.00, 0.00, -0.00, -1.00, 450.9, 632.5)">x</text><text xml:space="preserve" font-family="AmericanTypewriter,American Typewriter" font-size="70.0" fill="#6E5F3B" transform="matrix(1.00, 0.00, -0.00, -1.00, 496.2, 632.5)">t</text><text xml:space="preserve" font-family="AmericanTypewriter,American Typewriter" font-size="70.0" fill="#6E5F3B" transform="matrix(1.00, 0.00, -0.00, -1.00, 524.9, 632.5)">b</text><text xml:space="preserve" font-family="AmericanTypewriter,American Typewriter" font-size="70.0" fill="#6E5F3B" transform="matrix(1.00, 0.00, -0.00, -1.00, 565.1, 632.5)">o</text><text xml:space="preserve" font-family="AmericanTypewriter,American Typewriter" font-size="70.0" fill="#6E5F3B" transform="matrix(1.00, 0.00, -0.00, -1.00, 604.0, 632.5)">o</text><text xml:space="preserve" font-family="AmericanTypewriter,American Typewriter" font-size="70.0" fill="#6E5F3B" transform="matrix(1.00, 0.00, -0.00, -1.00, 642.9, 632.5)">k</text><text xml:space="preserve" font-family="AmericanTypewriter,American Typewriter" font-size="70.0" fill="#6E5F3B" transform="matrix(1.00, 0.00, -0.00, -1.00, 687.9, 632.5)">s</text><image xlink:href="../../EE0F35A8-E4D9-4F08-82A2-4E5256DEE888/assets/06324A8B8BF56E44D648BF26EFF2583E.png" width="84.00" height="90.00" transform="matrix(0.20, 0.00, -0.00, -0.20, 129.0, 517.7)"></image><text xml:space="preserve" font-family="Palatino-Roman,Palatino" font-size="36.0" fill="#93741B" transform="matrix(1.00, 0.00, -0.00, -1.00, 164.0, 499.0)">M</text><text xml:space="preserve" font-family="Palatino-Roman,Palatino" font-size="36.0" fill="#93741B" transform="matrix(1.00, 0.00, -0.00, -1.00, 198.0, 499.0)">a</text><text xml:space="preserve" font-family="Palatino-Roman,Palatino" font-size="36.0" fill="#93741B" transform="matrix(1.00, 0.00, -0.00, -1.00, 216.0, 499.0)">n</text><text xml:space="preserve" font-family="Palatino-Roman,Palatino" font-size="36.0" fill="#93741B" transform="matrix(1.00, 0.00, -0.00, -1.00, 237.0, 499.0)">y</text><text xml:space="preserve" font-family="Palatino-Roman,Palatino" font-size="36.0" fill="#93741B" transform="matrix(1.00, 0.00, -0.00, -1.00, 257.0, 499.0)"> </text><text xml:space="preserve" font-family="Palatino-Roman,Palatino" font-size="36.0" fill="#93741B" transform="matrix(1.00, 0.00, -0.00, -1.00, 266.0, 499.0)">O</text><text xml:space="preserve" font-family="Palatino-Roman,Palatino" font-size="36.0" fill="#93741B" transform="matrix(1.00, 0.00, -0.00, -1.00, 294.3, 499.0)">A</text><text xml:space="preserve" font-family="Palatino-Roman,Palatino" font-size="36.0" fill="#93741B" transform="matrix(1.00, 0.00, -0.00, -1.00, 320.4, 499.0)"> </text><text xml:space="preserve" font-family="Palatino-Roman,Palatino" font-size="36.0" fill="#93741B" transform="matrix(1.00, 0.00, -0.00, -1.00, 329.4, 499.0)">t</text><text xml:space="preserve" font-family="Palatino-Roman,Palatino" font-size="36.0" fill="#93741B" transform="matrix(1.00, 0.00, -0.00, -1.00, 341.1, 499.0)">e</text><text xml:space="preserve" font-family="Palatino-Roman,Palatino" font-size="36.0" fill="#93741B" transform="matrix(1.00, 0.00, -0.00, -1.00, 358.3, 499.0)">x</text><text xml:space="preserve" font-family="Palatino-Roman,Palatino" font-size="36.0" fill="#93741B" transform="matrix(1.00, 0.00, -0.00, -1.00, 376.9, 499.0)">t</text><text xml:space="preserve" font-family="Palatino-Roman,Palatino" font-size="36.0" fill="#93741B" transform="matrix(1.00, 0.00, -0.00, -1.00, 388.7, 499.0)">b</text><text xml:space="preserve" font-family="Palatino-Roman,Palatino" font-size="36.0" fill="#93741B" transform="matrix(1.00, 0.00, -0.00, -1.00, 408.6, 499.0)">o</text><text xml:space="preserve" font-family="Palatino-Roman,Palatino" font-size="36.0" fill="#93741B" transform="matrix(1.00, 0.00, -0.00, -1.00, 428.3, 499.0)">o</text><text xml:space="preserve" font-family="Palatino-Roman,Palatino" font-size="36.0" fill="#93741B" transform="matrix(1.00, 0.00, -0.00, -1.00, 447.9, 499.0)">k</text><text xml:space="preserve" font-family="Palatino-Roman,Palatino" font-size="36.0" fill="#93741B" transform="matrix(1.00, 0.00, -0.00, -1.00, 467.9, 499.0)">s</text><text xml:space="preserve" font-family="Palatino-Roman,Palatino" font-size="36.0" fill="#93741B" transform="matrix(1.00, 0.00, -0.00, -1.00, 483.2, 499.0)"> </text><text xml:space="preserve" font-family="Palatino-Roman,Palatino" font-size="36.0" fill="#93741B" transform="matrix(1.00, 0.00, -0.00, -1.00, 492.2, 499.0)">i</text><text xml:space="preserve" font-family="Palatino-Roman,Palatino" font-size="36.0" fill="#93741B" transform="matrix(1.00, 0.00, -0.00, -1.00, 502.7, 499.0)">n</text><text xml:space="preserve" font-family="Palatino-Roman,Palatino" font-size="36.0" fill="#93741B" transform="matrix(1.00, 0.00, -0.00, -1.00, 523.6, 499.0)"> </text><text xml:space="preserve" font-family="Palatino-Roman,Palatino" font-size="36.0" fill="#93741B" transform="matrix(1.00, 0.00, -0.00, -1.00, 532.6, 499.0)">t</text><text xml:space="preserve" font-family="Palatino-Roman,Palatino" font-size="36.0" fill="#93741B" transform="matrix(1.00, 0.00, -0.00, -1.00, 544.4, 499.0)">h</text><text xml:space="preserve" font-family="Palatino-Roman,Palatino" font-size="36.0" fill="#93741B" transform="matrix(1.00, 0.00, -0.00, -1.00, 565.3, 499.0)">e</text><text xml:space="preserve" font-family="Palatino-Roman,Palatino" font-size="36.0" fill="#93741B" transform="matrix(1.00, 0.00, -0.00, -1.00, 582.6, 499.0)"> </text><text xml:space="preserve" font-family="Palatino-Roman,Palatino" font-size="36.0" fill="#93741B" transform="matrix(1.00, 0.00, -0.00, -1.00, 591.6, 499.0)">w</text><text xml:space="preserve" font-family="Palatino-Roman,Palatino" font-size="36.0" fill="#93741B" transform="matrix(1.00, 0.00, -0.00, -1.00, 621.6, 499.0)">o</text><text xml:space="preserve" font-family="Palatino-Roman,Palatino" font-size="36.0" fill="#93741B" transform="matrix(1.00, 0.00, -0.00, -1.00, 641.2, 499.0)">r</text><text xml:space="preserve" font-family="Palatino-Roman,Palatino" font-size="36.0" fill="#93741B" transform="matrix(1.00, 0.00, -0.00, -1.00, 655.4, 499.0)">l</text><text xml:space="preserve" font-family="Palatino-Roman,Palatino" font-size="36.0" fill="#93741B" transform="matrix(1.00, 0.00, -0.00, -1.00, 665.9, 499.0)">d</text><image xlink:href="../../EE0F35A8-E4D9-4F08-82A2-4E5256DEE888/assets/06324A8B8BF56E44D648BF26EFF2583E.png" width="84.00" height="90.00" transform="matrix(0.20, 0.00, -0.00, -0.20, 129.0, 433.7)"></image><text xml:space="preserve" font-family="Palatino-Roman,Palatino" font-size="36.0" fill="#93741B" transform="matrix(1.00, 0.00, -0.00, -1.00, 164.0, 415.0)">M</text><text xml:space="preserve" font-family="Palatino-Roman,Palatino" font-size="36.0" fill="#93741B" transform="matrix(1.00, 0.00, -0.00, -1.00, 198.0, 415.0)">a</text><text xml:space="preserve" font-family="Palatino-Roman,Palatino" font-size="36.0" fill="#93741B" transform="matrix(1.00, 0.00, -0.00, -1.00, 216.0, 415.0)">n</text><text xml:space="preserve" font-family="Palatino-Roman,Palatino" font-size="36.0" fill="#93741B" transform="matrix(1.00, 0.00, -0.00, -1.00, 237.0, 415.0)">y</text><text xml:space="preserve" font-family="Palatino-Roman,Palatino" font-size="36.0" fill="#93741B" transform="matrix(1.00, 0.00, -0.00, -1.00, 257.0, 415.0)"> </text><text xml:space="preserve" font-family="Palatino-Roman,Palatino" font-size="36.0" fill="#93741B" transform="matrix(1.00, 0.00, -0.00, -1.00, 266.0, 415.0)">a</text><text xml:space="preserve" font-family="Palatino-Roman,Palatino" font-size="36.0" fill="#93741B" transform="matrix(1.00, 0.00, -0.00, -1.00, 284.0, 415.0)">r</text><text xml:space="preserve" font-family="Palatino-Roman,Palatino" font-size="36.0" fill="#93741B" transform="matrix(1.00, 0.00, -0.00, -1.00, 297.6, 415.0)">e</text><text xml:space="preserve" font-family="Palatino-Roman,Palatino" font-size="36.0" fill="#93741B" transform="matrix(1.00, 0.00, -0.00, -1.00, 314.9, 415.0)"> </text><text xml:space="preserve" font-family="Palatino-Roman,Palatino" font-size="36.0" fill="#93741B" transform="matrix(1.00, 0.00, -0.00, -1.00, 323.9, 415.0)">r</text><text xml:space="preserve" font-family="Palatino-Roman,Palatino" font-size="36.0" fill="#93741B" transform="matrix(1.00, 0.00, -0.00, -1.00, 338.1, 415.0)">i</text><text xml:space="preserve" font-family="Palatino-Roman,Palatino" font-size="36.0" fill="#93741B" transform="matrix(1.00, 0.00, -0.00, -1.00, 348.6, 415.0)">p</text><text xml:space="preserve" font-family="Palatino-Roman,Palatino" font-size="36.0" fill="#93741B" transform="matrix(1.00, 0.00, -0.00, -1.00, 370.2, 415.0)">e</text><text xml:space="preserve" font-family="Palatino-Roman,Palatino" font-size="36.0" fill="#93741B" transform="matrix(1.00, 0.00, -0.00, -1.00, 387.4, 415.0)"> </text><text xml:space="preserve" font-family="Palatino-Roman,Palatino" font-size="36.0" fill="#93741B" transform="matrix(1.00, 0.00, -0.00, -1.00, 396.4, 415.0)">f</text><text xml:space="preserve" font-family="Palatino-Roman,Palatino" font-size="36.0" fill="#93741B" transform="matrix(1.00, 0.00, -0.00, -1.00, 408.4, 415.0)">o</text><text xml:space="preserve" font-family="Palatino-Roman,Palatino" font-size="36.0" fill="#93741B" transform="matrix(1.00, 0.00, -0.00, -1.00, 428.1, 415.0)">r</text><text xml:space="preserve" font-family="Palatino-Roman,Palatino" font-size="36.0" fill="#93741B" transform="matrix(1.00, 0.00, -0.00, -1.00, 442.3, 415.0)"> </text><text xml:space="preserve" font-family="Palatino-Roman,Palatino" font-size="36.0" fill="#93741B" transform="matrix(1.00, 0.00, -0.00, -1.00, 451.3, 415.0)">r</text><text xml:space="preserve" font-family="Palatino-Roman,Palatino" font-size="36.0" fill="#93741B" transform="matrix(1.00, 0.00, -0.00, -1.00, 464.9, 415.0)">e</text><text xml:space="preserve" font-family="Palatino-Roman,Palatino" font-size="36.0" fill="#93741B" transform="matrix(1.00, 0.00, -0.00, -1.00, 482.1, 415.0)">m</text><text xml:space="preserve" font-family="Palatino-Roman,Palatino" font-size="36.0" fill="#93741B" transform="matrix(1.00, 0.00, -0.00, -1.00, 513.9, 415.0)">i</text><text xml:space="preserve" font-family="Palatino-Roman,Palatino" font-size="36.0" fill="#93741B" transform="matrix(1.00, 0.00, -0.00, -1.00, 524.4, 415.0)">x</text><text xml:space="preserve" font-family="Palatino-Roman,Palatino" font-size="36.0" fill="#93741B" transform="matrix(1.00, 0.00, -0.00, -1.00, 543.0, 415.0)">i</text><text xml:space="preserve" font-family="Palatino-Roman,Palatino" font-size="36.0" fill="#93741B" transform="matrix(1.00, 0.00, -0.00, -1.00, 553.4, 415.0)">n</text><text xml:space="preserve" font-family="Palatino-Roman,Palatino" font-size="36.0" fill="#93741B" transform="matrix(1.00, 0.00, -0.00, -1.00, 574.4, 415.0)">g</text><text xml:space="preserve" font-family="Palatino-Roman,Palatino" font-size="36.0" fill="#93741B" transform="matrix(1.00, 0.00, -0.00, -1.00, 594.4, 415.0)">/</text><text xml:space="preserve" font-family="Palatino-Roman,Palatino" font-size="36.0" fill="#93741B" transform="matrix(1.00, 0.00, -0.00, -1.00, 616.2, 415.0)">t</text><text xml:space="preserve" font-family="Palatino-Roman,Palatino" font-size="36.0" fill="#93741B" transform="matrix(1.00, 0.00, -0.00, -1.00, 628.0, 415.0)">r</text><text xml:space="preserve" font-family="Palatino-Roman,Palatino" font-size="36.0" fill="#93741B" transform="matrix(1.00, 0.00, -0.00, -1.00, 642.2, 415.0)">a</text><text xml:space="preserve" font-family="Palatino-Roman,Palatino" font-size="36.0" fill="#93741B" transform="matrix(1.00, 0.00, -0.00, -1.00, 660.2, 415.0)">n</text><text xml:space="preserve" font-family="Palatino-Roman,Palatino" font-size="36.0" fill="#93741B" transform="matrix(1.00, 0.00, -0.00, -1.00, 681.2, 415.0)">s</text><text xml:space="preserve" font-family="Palatino-Roman,Palatino" font-size="36.0" fill="#93741B" transform="matrix(1.00, 0.00, -0.00, -1.00, 696.4, 415.0)">l</text><text xml:space="preserve" font-family="Palatino-Roman,Palatino" font-size="36.0" fill="#93741B" transform="matrix(1.00, 0.00, -0.00, -1.00, 706.9, 415.0)">a</text><text xml:space="preserve" font-family="Palatino-Roman,Palatino" font-size="36.0" fill="#93741B" transform="matrix(1.00, 0.00, -0.00, -1.00, 724.9, 415.0)">t</text><text xml:space="preserve" font-family="Palatino-Roman,Palatino" font-size="36.0" fill="#93741B" transform="matrix(1.00, 0.00, -0.00, -1.00, 736.6, 415.0)">i</text><text xml:space="preserve" font-family="Palatino-Roman,Palatino" font-size="36.0" fill="#93741B" transform="matrix(1.00, 0.00, -0.00, -1.00, 747.1, 415.0)">n</text><text xml:space="preserve" font-family="Palatino-Roman,Palatino" font-size="36.0" fill="#93741B" transform="matrix(1.00, 0.00, -0.00, -1.00, 768.1, 415.0)">g</text><text xml:space="preserve" font-family="Palatino-Roman,Palatino" font-size="36.0" fill="#93741B" transform="matrix(1.00, 0.00, -0.00, -1.00, 788.1, 415.0)"> </text><text xml:space="preserve" font-family="Palatino-Roman,Palatino" font-size="36.0" fill="#93741B" transform="matrix(1.00, 0.00, -0.00, -1.00, 797.1, 415.0)">f</text><text xml:space="preserve" font-family="Palatino-Roman,Palatino" font-size="36.0" fill="#93741B" transform="matrix(1.00, 0.00, -0.00, -1.00, 809.1, 415.0)">o</text><text xml:space="preserve" font-family="Palatino-Roman,Palatino" font-size="36.0" fill="#93741B" transform="matrix(1.00, 0.00, -0.00, -1.00, 828.7, 415.0)">r</text><text xml:space="preserve" font-family="Palatino-Roman,Palatino" font-size="36.0" fill="#93741B" transform="matrix(1.00, 0.00, -0.00, -1.00, 843.0, 415.0)"> </text><text xml:space="preserve" font-family="Palatino-Roman,Palatino" font-size="36.0" fill="#93741B" transform="matrix(1.00, 0.00, -0.00, -1.00, 850.6, 415.0)">A</text><text xml:space="preserve" font-family="Palatino-Roman,Palatino" font-size="36.0" fill="#93741B" transform="matrix(1.00, 0.00, -0.00, -1.00, 878.6, 415.0)">r</text><text xml:space="preserve" font-family="Palatino-Roman,Palatino" font-size="36.0" fill="#93741B" transform="matrix(1.00, 0.00, -0.00, -1.00, 892.8, 415.0)">a</text><text xml:space="preserve" font-family="Palatino-Roman,Palatino" font-size="36.0" fill="#93741B" transform="matrix(1.00, 0.00, -0.00, -1.00, 910.8, 415.0)">b</text><text xml:space="preserve" font-family="Palatino-Roman,Palatino" font-size="36.0" fill="#93741B" transform="matrix(1.00, 0.00, -0.00, -1.00, 930.8, 415.0)"> </text><text xml:space="preserve" font-family="Palatino-Roman,Palatino" font-size="36.0" fill="#93741B" transform="matrix(1.00, 0.00, -0.00, -1.00, 164.0, 367.0)">W</text><text xml:space="preserve" font-family="Palatino-Roman,Palatino" font-size="36.0" fill="#93741B" transform="matrix(1.00, 0.00, -0.00, -1.00, 196.7, 367.0)">o</text><text xml:space="preserve" font-family="Palatino-Roman,Palatino" font-size="36.0" fill="#93741B" transform="matrix(1.00, 0.00, -0.00, -1.00, 216.3, 367.0)">r</text><text xml:space="preserve" font-family="Palatino-Roman,Palatino" font-size="36.0" fill="#93741B" transform="matrix(1.00, 0.00, -0.00, -1.00, 230.6, 367.0)">l</text><text xml:space="preserve" font-family="Palatino-Roman,Palatino" font-size="36.0" fill="#93741B" transform="matrix(1.00, 0.00, -0.00, -1.00, 241.0, 367.0)">d</text><image xlink:href="../../EE0F35A8-E4D9-4F08-82A2-4E5256DEE888/assets/06324A8B8BF56E44D648BF26EFF2583E.png" width="84.00" height="90.00" transform="matrix(0.20, 0.00, -0.00, -0.20, 129.0, 301.7)"></image><text xml:space="preserve" font-family="Palatino-Roman,Palatino" font-size="36.0" fill="#93741B" transform="matrix(1.00, 0.00, -0.00, -1.00, 164.0, 283.0)">O</text><text xml:space="preserve" font-family="Palatino-Roman,Palatino" font-size="36.0" fill="#93741B" transform="matrix(1.00, 0.00, -0.00, -1.00, 192.3, 283.0)">A</text><text xml:space="preserve" font-family="Palatino-Roman,Palatino" font-size="36.0" fill="#93741B" transform="matrix(1.00, 0.00, -0.00, -1.00, 218.3, 283.0)"> </text><text xml:space="preserve" font-family="Palatino-Roman,Palatino" font-size="36.0" fill="#93741B" transform="matrix(1.00, 0.00, -0.00, -1.00, 227.3, 283.0)">t</text><text xml:space="preserve" font-family="Palatino-Roman,Palatino" font-size="36.0" fill="#93741B" transform="matrix(1.00, 0.00, -0.00, -1.00, 239.1, 283.0)">e</text><text xml:space="preserve" font-family="Palatino-Roman,Palatino" font-size="36.0" fill="#93741B" transform="matrix(1.00, 0.00, -0.00, -1.00, 256.3, 283.0)">x</text><text xml:space="preserve" font-family="Palatino-Roman,Palatino" font-size="36.0" fill="#93741B" transform="matrix(1.00, 0.00, -0.00, -1.00, 274.9, 283.0)">t</text><text xml:space="preserve" font-family="Palatino-Roman,Palatino" font-size="36.0" fill="#93741B" transform="matrix(1.00, 0.00, -0.00, -1.00, 286.7, 283.0)">b</text><text xml:space="preserve" font-family="Palatino-Roman,Palatino" font-size="36.0" fill="#93741B" transform="matrix(1.00, 0.00, -0.00, -1.00, 306.6, 283.0)">o</text><text xml:space="preserve" font-family="Palatino-Roman,Palatino" font-size="36.0" fill="#93741B" transform="matrix(1.00, 0.00, -0.00, -1.00, 326.2, 283.0)">o</text><text xml:space="preserve" font-family="Palatino-Roman,Palatino" font-size="36.0" fill="#93741B" transform="matrix(1.00, 0.00, -0.00, -1.00, 345.9, 283.0)">k</text><text xml:space="preserve" font-family="Palatino-Roman,Palatino" font-size="36.0" fill="#93741B" transform="matrix(1.00, 0.00, -0.00, -1.00, 365.9, 283.0)">s</text><text xml:space="preserve" font-family="Palatino-Roman,Palatino" font-size="36.0" fill="#93741B" transform="matrix(1.00, 0.00, -0.00, -1.00, 381.2, 283.0)"> </text><text xml:space="preserve" font-family="Palatino-Roman,Palatino" font-size="36.0" fill="#93741B" transform="matrix(1.00, 0.00, -0.00, -1.00, 390.2, 283.0)">c</text><text xml:space="preserve" font-family="Palatino-Roman,Palatino" font-size="36.0" fill="#93741B" transform="matrix(1.00, 0.00, -0.00, -1.00, 406.1, 283.0)">a</text><text xml:space="preserve" font-family="Palatino-Roman,Palatino" font-size="36.0" fill="#93741B" transform="matrix(1.00, 0.00, -0.00, -1.00, 424.1, 283.0)">n</text><text xml:space="preserve" font-family="Palatino-Roman,Palatino" font-size="36.0" fill="#93741B" transform="matrix(1.00, 0.00, -0.00, -1.00, 445.1, 283.0)"> </text><text xml:space="preserve" font-family="Palatino-Roman,Palatino" font-size="36.0" fill="#93741B" transform="matrix(1.00, 0.00, -0.00, -1.00, 454.1, 283.0)">b</text><text xml:space="preserve" font-family="Palatino-Roman,Palatino" font-size="36.0" fill="#93741B" transform="matrix(1.00, 0.00, -0.00, -1.00, 474.0, 283.0)">e</text><text xml:space="preserve" font-family="Palatino-Roman,Palatino" font-size="36.0" fill="#93741B" transform="matrix(1.00, 0.00, -0.00, -1.00, 491.2, 283.0)"> </text><text xml:space="preserve" font-family="Palatino-Roman,Palatino" font-size="36.0" fill="#93741B" transform="matrix(1.00, 0.00, -0.00, -1.00, 500.2, 283.0)">e</text><text xml:space="preserve" font-family="Palatino-Roman,Palatino" font-size="36.0" fill="#93741B" transform="matrix(1.00, 0.00, -0.00, -1.00, 517.5, 283.0)">a</text><text xml:space="preserve" font-family="Palatino-Roman,Palatino" font-size="36.0" fill="#93741B" transform="matrix(1.00, 0.00, -0.00, -1.00, 535.5, 283.0)">s</text><text xml:space="preserve" font-family="Palatino-Roman,Palatino" font-size="36.0" fill="#93741B" transform="matrix(1.00, 0.00, -0.00, -1.00, 550.7, 283.0)">i</text><text xml:space="preserve" font-family="Palatino-Roman,Palatino" font-size="36.0" fill="#93741B" transform="matrix(1.00, 0.00, -0.00, -1.00, 561.2, 283.0)">l</text><text xml:space="preserve" font-family="Palatino-Roman,Palatino" font-size="36.0" fill="#93741B" transform="matrix(1.00, 0.00, -0.00, -1.00, 571.7, 283.0)">y</text><text xml:space="preserve" font-family="Palatino-Roman,Palatino" font-size="36.0" fill="#93741B" transform="matrix(1.00, 0.00, -0.00, -1.00, 591.7, 283.0)"> </text><text xml:space="preserve" font-family="Palatino-Roman,Palatino" font-size="36.0" fill="#93741B" transform="matrix(1.00, 0.00, -0.00, -1.00, 600.7, 283.0)">m</text><text xml:space="preserve" font-family="Palatino-Roman,Palatino" font-size="36.0" fill="#93741B" transform="matrix(1.00, 0.00, -0.00, -1.00, 632.5, 283.0)">a</text><text xml:space="preserve" font-family="Palatino-Roman,Palatino" font-size="36.0" fill="#93741B" transform="matrix(1.00, 0.00, -0.00, -1.00, 650.5, 283.0)">d</text><text xml:space="preserve" font-family="Palatino-Roman,Palatino" font-size="36.0" fill="#93741B" transform="matrix(1.00, 0.00, -0.00, -1.00, 672.5, 283.0)">e</text><text xml:space="preserve" font-family="Palatino-Roman,Palatino" font-size="36.0" fill="#93741B" transform="matrix(1.00, 0.00, -0.00, -1.00, 689.7, 283.0)"> </text><text xml:space="preserve" font-family="Palatino-Roman,Palatino" font-size="36.0" fill="#93741B" transform="matrix(1.00, 0.00, -0.00, -1.00, 698.7, 283.0)">f</text><text xml:space="preserve" font-family="Palatino-Roman,Palatino" font-size="36.0" fill="#93741B" transform="matrix(1.00, 0.00, -0.00, -1.00, 710.7, 283.0)">r</text><text xml:space="preserve" font-family="Palatino-Roman,Palatino" font-size="36.0" fill="#93741B" transform="matrix(1.00, 0.00, -0.00, -1.00, 724.3, 283.0)">o</text><text xml:space="preserve" font-family="Palatino-Roman,Palatino" font-size="36.0" fill="#93741B" transform="matrix(1.00, 0.00, -0.00, -1.00, 744.0, 283.0)">m</text><text xml:space="preserve" font-family="Palatino-Roman,Palatino" font-size="36.0" fill="#93741B" transform="matrix(1.00, 0.00, -0.00, -1.00, 775.7, 283.0)"> </text><text xml:space="preserve" font-family="Palatino-Roman,Palatino" font-size="36.0" fill="#93741B" transform="matrix(1.00, 0.00, -0.00, -1.00, 784.7, 283.0)">c</text><text xml:space="preserve" font-family="Palatino-Roman,Palatino" font-size="36.0" fill="#93741B" transform="matrix(1.00, 0.00, -0.00, -1.00, 800.7, 283.0)">o</text><text xml:space="preserve" font-family="Palatino-Roman,Palatino" font-size="36.0" fill="#93741B" transform="matrix(1.00, 0.00, -0.00, -1.00, 820.3, 283.0)">u</text><text xml:space="preserve" font-family="Palatino-Roman,Palatino" font-size="36.0" fill="#93741B" transform="matrix(1.00, 0.00, -0.00, -1.00, 842.1, 283.0)">r</text><text xml:space="preserve" font-family="Palatino-Roman,Palatino" font-size="36.0" fill="#93741B" transform="matrix(1.00, 0.00, -0.00, -1.00, 856.3, 283.0)">s</text><text xml:space="preserve" font-family="Palatino-Roman,Palatino" font-size="36.0" fill="#93741B" transform="matrix(1.00, 0.00, -0.00, -1.00, 871.5, 283.0)">e</text><text xml:space="preserve" font-family="Palatino-Roman,Palatino" font-size="36.0" fill="#93741B" transform="matrix(1.00, 0.00, -0.00, -1.00, 888.8, 283.0)"> </text><text xml:space="preserve" font-family="Palatino-Roman,Palatino" font-size="36.0" fill="#93741B" transform="matrix(1.00, 0.00, -0.00, -1.00, 164.0, 235.0)">n</text><text xml:space="preserve" font-family="Palatino-Roman,Palatino" font-size="36.0" fill="#93741B" transform="matrix(1.00, 0.00, -0.00, -1.00, 185.0, 235.0)">o</text><text xml:space="preserve" font-family="Palatino-Roman,Palatino" font-size="36.0" fill="#93741B" transform="matrix(1.00, 0.00, -0.00, -1.00, 204.6, 235.0)">t</text><text xml:space="preserve" font-family="Palatino-Roman,Palatino" font-size="36.0" fill="#93741B" transform="matrix(1.00, 0.00, -0.00, -1.00, 216.4, 235.0)">e</text><text xml:space="preserve" font-family="Palatino-Roman,Palatino" font-size="36.0" fill="#93741B" transform="matrix(1.00, 0.00, -0.00, -1.00, 233.6, 235.0)">s</text><text xml:space="preserve" font-family="Palatino-Roman,Palatino" font-size="36.0" fill="#93741B" transform="matrix(1.00, 0.00, -0.00, -1.00, 248.8, 235.0)">/</text><text xml:space="preserve" font-family="Palatino-Roman,Palatino" font-size="36.0" fill="#93741B" transform="matrix(1.00, 0.00, -0.00, -1.00, 270.7, 235.0)">c</text><text xml:space="preserve" font-family="Palatino-Roman,Palatino" font-size="36.0" fill="#93741B" transform="matrix(1.00, 0.00, -0.00, -1.00, 286.6, 235.0)">u</text><text xml:space="preserve" font-family="Palatino-Roman,Palatino" font-size="36.0" fill="#93741B" transform="matrix(1.00, 0.00, -0.00, -1.00, 308.3, 235.0)">r</text><text xml:space="preserve" font-family="Palatino-Roman,Palatino" font-size="36.0" fill="#93741B" transform="matrix(1.00, 0.00, -0.00, -1.00, 322.6, 235.0)">r</text><text xml:space="preserve" font-family="Palatino-Roman,Palatino" font-size="36.0" fill="#93741B" transform="matrix(1.00, 0.00, -0.00, -1.00, 336.8, 235.0)">i</text><text xml:space="preserve" font-family="Palatino-Roman,Palatino" font-size="36.0" fill="#93741B" transform="matrix(1.00, 0.00, -0.00, -1.00, 347.3, 235.0)">c</text><text xml:space="preserve" font-family="Palatino-Roman,Palatino" font-size="36.0" fill="#93741B" transform="matrix(1.00, 0.00, -0.00, -1.00, 363.2, 235.0)">u</text><text xml:space="preserve" font-family="Palatino-Roman,Palatino" font-size="36.0" fill="#93741B" transform="matrix(1.00, 0.00, -0.00, -1.00, 384.9, 235.0)">l</text><text xml:space="preserve" font-family="Palatino-Roman,Palatino" font-size="36.0" fill="#93741B" transform="matrix(1.00, 0.00, -0.00, -1.00, 395.4, 235.0)">a</text><image xlink:href="../../EE0F35A8-E4D9-4F08-82A2-4E5256DEE888/assets/06324A8B8BF56E44D648BF26EFF2583E.png" width="84.00" height="90.00" transform="matrix(0.20, 0.00, -0.00, -0.20, 129.0, 169.7)"></image><text xml:space="preserve" font-family="Palatino-Roman,Palatino" font-size="36.0" fill="#93741B" transform="matrix(1.00, 0.00, -0.00, -1.00, 164.0, 151.0)">S</text><text xml:space="preserve" font-family="Palatino-Roman,Palatino" font-size="36.0" fill="#93741B" transform="matrix(1.00, 0.00, -0.00, -1.00, 182.9, 151.0)">a</text><text xml:space="preserve" font-family="Palatino-Roman,Palatino" font-size="36.0" fill="#93741B" transform="matrix(1.00, 0.00, -0.00, -1.00, 200.9, 151.0)">v</text><text xml:space="preserve" font-family="Palatino-Roman,Palatino" font-size="36.0" fill="#93741B" transform="matrix(1.00, 0.00, -0.00, -1.00, 221.2, 151.0)">e</text><text xml:space="preserve" font-family="Palatino-Roman,Palatino" font-size="36.0" fill="#93741B" transform="matrix(1.00, 0.00, -0.00, -1.00, 238.5, 151.0)"> </text><text xml:space="preserve" font-family="Palatino-Roman,Palatino" font-size="36.0" fill="#93741B" transform="matrix(1.00, 0.00, -0.00, -1.00, 247.5, 151.0)">s</text><text xml:space="preserve" font-family="Palatino-Roman,Palatino" font-size="36.0" fill="#93741B" transform="matrix(1.00, 0.00, -0.00, -1.00, 262.7, 151.0)">t</text><text xml:space="preserve" font-family="Palatino-Roman,Palatino" font-size="36.0" fill="#93741B" transform="matrix(1.00, 0.00, -0.00, -1.00, 274.5, 151.0)">u</text><text xml:space="preserve" font-family="Palatino-Roman,Palatino" font-size="36.0" fill="#93741B" transform="matrix(1.00, 0.00, -0.00, -1.00, 296.2, 151.0)">d</text><text xml:space="preserve" font-family="Palatino-Roman,Palatino" font-size="36.0" fill="#93741B" transform="matrix(1.00, 0.00, -0.00, -1.00, 318.2, 151.0)">e</text><text xml:space="preserve" font-family="Palatino-Roman,Palatino" font-size="36.0" fill="#93741B" transform="matrix(1.00, 0.00, -0.00, -1.00, 335.4, 151.0)">n</text><text xml:space="preserve" font-family="Palatino-Roman,Palatino" font-size="36.0" fill="#93741B" transform="matrix(1.00, 0.00, -0.00, -1.00, 356.4, 151.0)">t</text><text xml:space="preserve" font-family="Palatino-Roman,Palatino" font-size="36.0" fill="#93741B" transform="matrix(1.00, 0.00, -0.00, -1.00, 368.1, 151.0)">s</text><text xml:space="preserve" font-family="Palatino-Roman,Palatino" font-size="36.0" fill="#93741B" transform="matrix(1.00, 0.00, -0.00, -1.00, 383.4, 151.0)"> </text><text xml:space="preserve" font-family="Palatino-Roman,Palatino" font-size="36.0" fill="#93741B" transform="matrix(1.00, 0.00, -0.00, -1.00, 392.4, 151.0)">$</text><text xml:space="preserve" font-family="Palatino-Roman,Palatino" font-size="36.0" fill="#93741B" transform="matrix(1.00, 0.00, -0.00, -1.00, 410.4, 151.0)">1</text><text xml:space="preserve" font-family="Palatino-Roman,Palatino" font-size="36.0" fill="#93741B" transform="matrix(1.00, 0.00, -0.00, -1.00, 428.4, 151.0)">0</text><text xml:space="preserve" font-family="Palatino-Roman,Palatino" font-size="36.0" fill="#93741B" transform="matrix(1.00, 0.00, -0.00, -1.00, 446.4, 151.0)">0</text><text xml:space="preserve" font-family="Palatino-Roman,Palatino" font-size="36.0" fill="#93741B" transform="matrix(1.00, 0.00, -0.00, -1.00, 464.4, 151.0)">s</text><text xml:space="preserve" font-family="Palatino-Roman,Palatino" font-size="36.0" fill="#93741B" transform="matrix(1.00, 0.00, -0.00, -1.00, 479.6, 151.0)"> </text><text xml:space="preserve" font-family="Palatino-Roman,Palatino" font-size="36.0" fill="#93741B" transform="matrix(1.00, 0.00, -0.00, -1.00, 488.6, 151.0)">b</text><text xml:space="preserve" font-family="Palatino-Roman,Palatino" font-size="36.0" fill="#93741B" transform="matrix(1.00, 0.00, -0.00, -1.00, 508.5, 151.0)">y</text><text xml:space="preserve" font-family="Palatino-Roman,Palatino" font-size="36.0" fill="#93741B" transform="matrix(1.00, 0.00, -0.00, -1.00, 528.6, 151.0)"> </text><text xml:space="preserve" font-family="Palatino-Roman,Palatino" font-size="36.0" fill="#93741B" transform="matrix(1.00, 0.00, -0.00, -1.00, 537.6, 151.0)">m</text><text xml:space="preserve" font-family="Palatino-Roman,Palatino" font-size="36.0" fill="#93741B" transform="matrix(1.00, 0.00, -0.00, -1.00, 569.3, 151.0)">a</text><text xml:space="preserve" font-family="Palatino-Roman,Palatino" font-size="36.0" fill="#93741B" transform="matrix(1.00, 0.00, -0.00, -1.00, 587.3, 151.0)">k</text><text xml:space="preserve" font-family="Palatino-Roman,Palatino" font-size="36.0" fill="#93741B" transform="matrix(1.00, 0.00, -0.00, -1.00, 607.4, 151.0)">i</text><text xml:space="preserve" font-family="Palatino-Roman,Palatino" font-size="36.0" fill="#93741B" transform="matrix(1.00, 0.00, -0.00, -1.00, 617.8, 151.0)">n</text><text xml:space="preserve" font-family="Palatino-Roman,Palatino" font-size="36.0" fill="#93741B" transform="matrix(1.00, 0.00, -0.00, -1.00, 638.8, 151.0)">g</text><text xml:space="preserve" font-family="Palatino-Roman,Palatino" font-size="36.0" fill="#93741B" transform="matrix(1.00, 0.00, -0.00, -1.00, 658.8, 151.0)"> </text><text xml:space="preserve" font-family="Palatino-Roman,Palatino" font-size="36.0" fill="#93741B" transform="matrix(1.00, 0.00, -0.00, -1.00, 667.8, 151.0)">y</text><text xml:space="preserve" font-family="Palatino-Roman,Palatino" font-size="36.0" fill="#93741B" transform="matrix(1.00, 0.00, -0.00, -1.00, 687.9, 151.0)">o</text><text xml:space="preserve" font-family="Palatino-Roman,Palatino" font-size="36.0" fill="#93741B" transform="matrix(1.00, 0.00, -0.00, -1.00, 707.5, 151.0)">u</text><text xml:space="preserve" font-family="Palatino-Roman,Palatino" font-size="36.0" fill="#93741B" transform="matrix(1.00, 0.00, -0.00, -1.00, 729.2, 151.0)">r</text><text xml:space="preserve" font-family="Palatino-Roman,Palatino" font-size="36.0" fill="#93741B" transform="matrix(1.00, 0.00, -0.00, -1.00, 743.4, 151.0)"> </text><text xml:space="preserve" font-family="Palatino-Roman,Palatino" font-size="36.0" fill="#93741B" transform="matrix(1.00, 0.00, -0.00, -1.00, 752.4, 151.0)">r</text><text xml:space="preserve" font-family="Palatino-Roman,Palatino" font-size="36.0" fill="#93741B" transform="matrix(1.00, 0.00, -0.00, -1.00, 766.0, 151.0)">e</text><text xml:space="preserve" font-family="Palatino-Roman,Palatino" font-size="36.0" fill="#93741B" transform="matrix(1.00, 0.00, -0.00, -1.00, 783.3, 151.0)">q</text><text xml:space="preserve" font-family="Palatino-Roman,Palatino" font-size="36.0" fill="#93741B" transform="matrix(1.00, 0.00, -0.00, -1.00, 803.4, 151.0)">u</text><text xml:space="preserve" font-family="Palatino-Roman,Palatino" font-size="36.0" fill="#93741B" transform="matrix(1.00, 0.00, -0.00, -1.00, 825.1, 151.0)">i</text><text xml:space="preserve" font-family="Palatino-Roman,Palatino" font-size="36.0" fill="#93741B" transform="matrix(1.00, 0.00, -0.00, -1.00, 835.6, 151.0)">r</text><text xml:space="preserve" font-family="Palatino-Roman,Palatino" font-size="36.0" fill="#93741B" transform="matrix(1.00, 0.00, -0.00, -1.00, 849.2, 151.0)">e</text><text xml:space="preserve" font-family="Palatino-Roman,Palatino" font-size="36.0" fill="#93741B" transform="matrix(1.00, 0.00, -0.00, -1.00, 866.4, 151.0)">d</text><text xml:space="preserve" font-family="Palatino-Roman,Palatino" font-size="36.0" fill="#93741B" transform="matrix(1.00, 0.00, -0.00, -1.00, 888.4, 151.0)"> </text><text xml:space="preserve" font-family="Palatino-Roman,Palatino" font-size="36.0" fill="#93741B" transform="matrix(1.00, 0.00, -0.00, -1.00, 164.0, 103.0)">t</text><text xml:space="preserve" font-family="Palatino-Roman,Palatino" font-size="36.0" fill="#93741B" transform="matrix(1.00, 0.00, -0.00, -1.00, 175.7, 103.0)">e</text><text xml:space="preserve" font-family="Palatino-Roman,Palatino" font-size="36.0" fill="#93741B" transform="matrix(1.00, 0.00, -0.00, -1.00, 193.0, 103.0)">x</text><text xml:space="preserve" font-family="Palatino-Roman,Palatino" font-size="36.0" fill="#93741B" transform="matrix(1.00, 0.00, -0.00, -1.00, 211.6, 103.0)">t</text><text xml:space="preserve" font-family="Palatino-Roman,Palatino" font-size="36.0" fill="#93741B" transform="matrix(1.00, 0.00, -0.00, -1.00, 223.3, 103.0)"> </text><text xml:space="preserve" font-family="Palatino-Roman,Palatino" font-size="36.0" fill="#93741B" transform="matrix(1.00, 0.00, -0.00, -1.00, 232.3, 103.0)">y</text><text xml:space="preserve" font-family="Palatino-Roman,Palatino" font-size="36.0" fill="#93741B" transform="matrix(1.00, 0.00, -0.00, -1.00, 252.4, 103.0)">o</text><text xml:space="preserve" font-family="Palatino-Roman,Palatino" font-size="36.0" fill="#93741B" transform="matrix(1.00, 0.00, -0.00, -1.00, 272.0, 103.0)">u</text><text xml:space="preserve" font-family="Palatino-Roman,Palatino" font-size="36.0" fill="#93741B" transform="matrix(1.00, 0.00, -0.00, -1.00, 293.7, 103.0)">r</text><text xml:space="preserve" font-family="Palatino-Roman,Palatino" font-size="36.0" fill="#93741B" transform="matrix(1.00, 0.00, -0.00, -1.00, 307.9, 103.0)"> </text><text xml:space="preserve" font-family="Palatino-Roman,Palatino" font-size="36.0" fill="#93741B" transform="matrix(1.00, 0.00, -0.00, -1.00, 316.9, 103.0)">o</text><text xml:space="preserve" font-family="Palatino-Roman,Palatino" font-size="36.0" fill="#93741B" transform="matrix(1.00, 0.00, -0.00, -1.00, 336.6, 103.0)">w</text><text xml:space="preserve" font-family="Palatino-Roman,Palatino" font-size="36.0" fill="#93741B" transform="matrix(1.00, 0.00, -0.00, -1.00, 366.6, 103.0)">n</text><text xml:space="preserve" font-family="Palatino-Roman,Palatino" font-size="36.0" fill="#93741B" transform="matrix(1.00, 0.00, -0.00, -1.00, 387.6, 103.0)"> </text><text xml:space="preserve" font-family="Palatino-Roman,Palatino" font-size="36.0" fill="#93741B" transform="matrix(1.00, 0.00, -0.00, -1.00, 396.6, 103.0)">O</text><text xml:space="preserve" font-family="Palatino-Roman,Palatino" font-size="36.0" fill="#93741B" transform="matrix(1.00, 0.00, -0.00, -1.00, 424.9, 103.0)">A</text><text xml:space="preserve" font-family="Palatino-Roman,Palatino" font-size="36.0" fill="#93741B" transform="matrix(1.00, 0.00, -0.00, -1.00, 450.9, 103.0)"> </text><text xml:space="preserve" font-family="Palatino-Roman,Palatino" font-size="36.0" fill="#93741B" transform="matrix(1.00, 0.00, -0.00, -1.00, 459.9, 103.0)">t</text><text xml:space="preserve" font-family="Palatino-Roman,Palatino" font-size="36.0" fill="#93741B" transform="matrix(1.00, 0.00, -0.00, -1.00, 471.6, 103.0)">e</text><text xml:space="preserve" font-family="Palatino-Roman,Palatino" font-size="36.0" fill="#93741B" transform="matrix(1.00, 0.00, -0.00, -1.00, 488.9, 103.0)">x</text><text xml:space="preserve" font-family="Palatino-Roman,Palatino" font-size="36.0" fill="#93741B" transform="matrix(1.00, 0.00, -0.00, -1.00, 507.5, 103.0)">t</text><text xml:space="preserve" font-family="Palatino-Roman,Palatino" font-size="36.0" fill="#93741B" transform="matrix(1.00, 0.00, -0.00, -1.00, 519.2, 103.0)">.</text></g></svg>